<svg width="45" height="45" viewBox="0 0 45 45" fill="none" xmlns="http://www.w3.org/2000/svg">
<path d="M10.6875 9C9.04647 9 7.47266 9.6519 6.31228 10.8123C5.1519 11.9727 4.5 13.5465 4.5 15.1875V18H40.5V15.1875C40.5 13.5465 39.8481 11.9727 38.6877 10.8123C37.5273 9.6519 35.9535 9 34.3125 9H10.6875ZM40.5 20.25H4.5V29.8125C4.5 31.4535 5.1519 33.0273 6.31228 34.1877C7.47266 35.3481 9.04647 36 10.6875 36H34.3125C35.9535 36 37.5273 35.3481 38.6877 34.1877C39.8481 33.0273 40.5 31.4535 40.5 29.8125V20.25ZM30.375 29.25H34.875C35.1734 29.25 35.4595 29.3685 35.6705 29.5795C35.8815 29.7905 36 30.0766 36 30.375C36 30.6734 35.8815 30.9595 35.6705 31.1705C35.4595 31.3815 35.1734 31.5 34.875 31.5H30.375C30.0766 31.5 29.7905 31.3815 29.5795 31.1705C29.3685 30.9595 29.25 30.6734 29.25 30.375C29.25 30.0766 29.3685 29.7905 29.5795 29.5795C29.7905 29.3685 30.0766 29.25 30.375 29.25Z" fill="url(#paint0_linear_0_49)"/>
<defs>
<linearGradient id="paint0_linear_0_49" x1="22.5" y1="9" x2="22.5" y2="36" gradientUnits="userSpaceOnUse">
<stop stop-color="#E3D3C4"/>
<stop offset="0.427083" stop-color="#E3D3C4"/>
<stop offset="1" stop-color="#E3D3C4"/>
</linearGradient>
</defs>
</svg>
