<svg width="45" height="45" viewBox="0 0 45 45" fill="none" xmlns="http://www.w3.org/2000/svg">
<path d="M36.5625 15H31.875V11.25C31.875 9.1875 30.1875 7.5 28.125 7.5H5.625C3.5625 7.5 1.875 9.1875 1.875 11.25V28.125C1.875 30.1875 3.5625 31.875 5.625 31.875C5.625 34.9875 8.1375 37.5 11.25 37.5C14.3625 37.5 16.875 34.9875 16.875 31.875H28.125C28.125 34.9875 30.6375 37.5 33.75 37.5C36.8625 37.5 39.375 34.9875 39.375 31.875H41.25C42.2812 31.875 43.125 31.0312 43.125 30V23.7563C43.125 22.95 42.8625 22.1625 42.375 21.5063L38.0625 15.75C37.7062 15.2812 37.1437 15 36.5625 15ZM11.25 33.75C10.2188 33.75 9.375 32.9062 9.375 31.875C9.375 30.8438 10.2188 30 11.25 30C12.2812 30 13.125 30.8438 13.125 31.875C13.125 32.9062 12.2812 33.75 11.25 33.75ZM36.5625 17.8125L40.2375 22.5H31.875V17.8125H36.5625ZM33.75 33.75C32.7188 33.75 31.875 32.9062 31.875 31.875C31.875 30.8438 32.7188 30 33.75 30C34.7812 30 35.625 30.8438 35.625 31.875C35.625 32.9062 34.7812 33.75 33.75 33.75Z" fill="url(#paint0_linear_0_44)"/>
<defs>
<linearGradient id="paint0_linear_0_44" x1="22.5" y1="7.5" x2="22.5" y2="37.5" gradientUnits="userSpaceOnUse">
<stop stop-color="#E3D3C4"/>
<stop offset="0.427083" stop-color="#E3D3C4"/>
<stop offset="1" stop-color="#E3D3C4"/>
</linearGradient>
</defs>
</svg>
