<svg width="96" height="96" viewBox="0 0 96 96" fill="none" xmlns="http://www.w3.org/2000/svg">
<path d="M78 54C78 70.5685 64.5685 84 48 84C31.4315 84 18 70.5685 18 54C18 37.4315 31.4315 24 48 24C64.5685 24 78 37.4315 78 54Z" fill="#FCE72D"/>
<path fill-rule="evenodd" clip-rule="evenodd" d="M80 54C80 71.6731 65.6731 86 48 86C30.3269 86 16 71.6731 16 54C16 36.3269 30.3269 22 48 22C65.6731 22 80 36.3269 80 54ZM48 84C64.5685 84 78 70.5685 78 54C78 37.4315 64.5685 24 48 24C31.4315 24 18 37.4315 18 54C18 70.5685 31.4315 84 48 84Z" fill="#FF3D3D"/>
<path fill-rule="evenodd" clip-rule="evenodd" d="M36 76C52.5685 76 66 62.5686 66 46C66 38.1989 63.0223 31.0932 58.1416 25.7576C69.7195 29.9157 78 40.9908 78 54C78 70.5686 64.5685 84 48 84C39.2325 84 31.3435 80.2391 25.8583 74.2425C29.026 75.3802 32.4406 76 36 76Z" fill="#EFDB23"/>
<path fill-rule="evenodd" clip-rule="evenodd" d="M44.0001 81.9997C60.5687 81.9997 74.0001 68.5683 74.0001 51.9997C74.0001 41.0463 68.1299 31.464 59.3639 26.2271C70.2979 30.7056 78 41.4533 78 54C78 70.5685 64.5685 84 48 84C42.3848 84 37.13 82.4573 32.6362 79.7726C36.1412 81.2083 39.9782 81.9997 44.0001 81.9997Z" fill="#DDC917"/>
<path d="M50.1875 43.3125C50.1875 50.5267 44.3392 56.375 37.125 56.375C29.9108 56.375 24.0625 50.5267 24.0625 43.3125C24.0625 36.0983 29.9108 30.25 37.125 30.25C44.3392 30.25 50.1875 36.0983 50.1875 43.3125Z" fill="#F9F371"/>
<path d="M66.3125 71.75C66.3125 72.3023 65.8648 72.75 65.3125 72.75C64.7602 72.75 64.3125 72.3023 64.3125 71.75C64.3125 71.1977 64.7602 70.75 65.3125 70.75C65.8648 70.75 66.3125 71.1977 66.3125 71.75Z" fill="#D3C012"/>
<path d="M68.5 66.375C68.5 67.1689 67.8564 67.8125 67.0625 67.8125C66.2686 67.8125 65.625 67.1689 65.625 66.375C65.625 65.5811 66.2686 64.9375 67.0625 64.9375C67.8564 64.9375 68.5 65.5811 68.5 66.375Z" fill="#D3C012"/>
<path d="M74.1875 62.75C74.1875 63.5439 73.5439 64.1875 72.75 64.1875C71.9561 64.1875 71.3125 63.5439 71.3125 62.75C71.3125 61.9561 71.9561 61.3125 72.75 61.3125C73.5439 61.3125 74.1875 61.9561 74.1875 62.75Z" fill="#D3C012"/>
<path d="M62.6875 68.6875C62.6875 69.4814 62.0439 70.125 61.25 70.125C60.4561 70.125 59.8125 69.4814 59.8125 68.6875C59.8125 67.8936 60.4561 67.25 61.25 67.25C62.0439 67.25 62.6875 67.8936 62.6875 68.6875Z" fill="#D3C012"/>
<path d="M62.6875 76.0625C62.6875 76.8564 62.0439 77.5 61.25 77.5C60.4561 77.5 59.8125 76.8564 59.8125 76.0625C59.8125 75.2686 60.4561 74.625 61.25 74.625C62.0439 74.625 62.6875 75.2686 62.6875 76.0625Z" fill="#D3C012"/>
<path d="M54.6875 78.125C54.6875 78.5737 54.3237 78.9375 53.875 78.9375C53.4263 78.9375 53.0625 78.5737 53.0625 78.125C53.0625 77.6763 53.4263 77.3125 53.875 77.3125C54.3237 77.3125 54.6875 77.6763 54.6875 78.125Z" fill="#D3C012"/>
<path d="M59 71.9375C59 72.3862 58.6362 72.75 58.1875 72.75C57.7388 72.75 57.375 72.3862 57.375 71.9375C57.375 71.4888 57.7388 71.125 58.1875 71.125C58.6362 71.125 59 71.4888 59 71.9375Z" fill="#D3C012"/>
<path d="M66.125 61.9375C66.125 62.3862 65.7612 62.75 65.3125 62.75C64.8638 62.75 64.5 62.3862 64.5 61.9375C64.5 61.4888 64.8638 61.125 65.3125 61.125C65.7612 61.125 66.125 61.4888 66.125 61.9375Z" fill="#D3C012"/>
<path d="M40.5458 79.375C40.5458 79.8237 40.182 80.1875 39.7333 80.1875C39.2845 80.1875 38.9208 79.8237 38.9208 79.375C38.9208 78.9263 39.2845 78.5625 39.7333 78.5625C40.182 78.5625 40.5458 78.9263 40.5458 79.375Z" fill="#D3C012"/>
<path d="M75 56.375C75 56.8237 74.6362 57.1875 74.1875 57.1875C73.7388 57.1875 73.375 56.8237 73.375 56.375C73.375 55.9263 73.7388 55.5625 74.1875 55.5625C74.6362 55.5625 75 55.9263 75 56.375Z" fill="#D3C012"/>
<path d="M70.9062 52.25C70.9062 52.6987 70.5425 53.0625 70.0938 53.0625C69.645 53.0625 69.2812 52.6987 69.2812 52.25C69.2812 51.8013 69.645 51.4375 70.0938 51.4375C70.5425 51.4375 70.9062 51.8013 70.9062 52.25Z" fill="#D3C012"/>
<path d="M73.5625 44.6875C73.5625 45.1362 73.1987 45.5 72.75 45.5C72.3013 45.5 71.9375 45.1362 71.9375 44.6875C71.9375 44.2388 72.3013 43.875 72.75 43.875C73.1987 43.875 73.5625 44.2388 73.5625 44.6875Z" fill="#D3C012"/>
<path d="M58.1875 79.375C58.1875 79.8237 57.8237 80.1875 57.375 80.1875C56.9263 80.1875 56.5625 79.8237 56.5625 79.375C56.5625 78.9263 56.9263 78.5625 57.375 78.5625C57.8237 78.5625 58.1875 78.9263 58.1875 79.375Z" fill="#D3C012"/>
<path d="M50.875 79.75C50.875 80.1987 50.5112 80.5625 50.0625 80.5625C49.6138 80.5625 49.25 80.1987 49.25 79.75C49.25 79.3013 49.6138 78.9375 50.0625 78.9375C50.5112 78.9375 50.875 79.3013 50.875 79.75Z" fill="#D3C012"/>
<path d="M55.5 73.8125C55.5 74.2612 55.1362 74.625 54.6875 74.625C54.2388 74.625 53.875 74.2612 53.875 73.8125C53.875 73.3638 54.2388 73 54.6875 73C55.1362 73 55.5 73.3638 55.5 73.8125Z" fill="#D3C012"/>
<path d="M46.3125 79.75C46.3125 80.1987 45.9487 80.5625 45.5 80.5625C45.0513 80.5625 44.6875 80.1987 44.6875 79.75C44.6875 79.3013 45.0513 78.9375 45.5 78.9375C45.9487 78.9375 46.3125 79.3013 46.3125 79.75Z" fill="#D3C012"/>
<path d="M44.6875 76.4688C44.6875 76.9175 44.3237 77.2812 43.875 77.2812C43.4263 77.2812 43.0625 76.9175 43.0625 76.4688C43.0625 76.02 43.4263 75.6562 43.875 75.6562C44.3237 75.6562 44.6875 76.02 44.6875 76.4688Z" fill="#D3C012"/>
<path d="M55.0625 69.5C55.0625 69.9487 54.6987 70.3125 54.25 70.3125C53.8013 70.3125 53.4375 69.9487 53.4375 69.5C53.4375 69.0513 53.8013 68.6875 54.25 68.6875C54.6987 68.6875 55.0625 69.0513 55.0625 69.5Z" fill="#D3C012"/>
<path d="M69.5625 70.75C69.5625 71.1987 69.1987 71.5625 68.75 71.5625C68.3013 71.5625 67.9375 71.1987 67.9375 70.75C67.9375 70.3013 68.3013 69.9375 68.75 69.9375C69.1987 69.9375 69.5625 70.3013 69.5625 70.75Z" fill="#D3C012"/>
<path d="M52.125 76.4688C52.125 77.1418 51.5793 77.6875 50.9062 77.6875C50.2332 77.6875 49.6875 77.1418 49.6875 76.4688C49.6875 75.7957 50.2332 75.25 50.9062 75.25C51.5793 75.25 52.125 75.7957 52.125 76.4688Z" fill="#D3C012"/>
<path d="M72.75 67.4688C72.75 68.1418 72.2043 68.6875 71.5312 68.6875C70.8582 68.6875 70.3125 68.1418 70.3125 67.4688C70.3125 66.7957 70.8582 66.25 71.5312 66.25C72.2043 66.25 72.75 66.7957 72.75 67.4688Z" fill="#D3C012"/>
<path d="M71.3125 57.5938C71.3125 58.2668 70.7668 58.8125 70.0938 58.8125C69.4207 58.8125 68.875 58.2668 68.875 57.5938C68.875 56.9207 69.4207 56.375 70.0938 56.375C70.7668 56.375 71.3125 56.9207 71.3125 57.5938Z" fill="#D3C012"/>
<path d="M75.4062 50.2188C75.4062 50.8918 74.8606 51.4375 74.1875 51.4375C73.5144 51.4375 72.9688 50.8918 72.9688 50.2188C72.9688 49.5457 73.5144 49 74.1875 49C74.8606 49 75.4062 49.5457 75.4062 50.2188Z" fill="#D3C012"/>
<path fill-rule="evenodd" clip-rule="evenodd" d="M35.9842 34.127C36.6044 35.041 36.3662 36.2847 35.4522 36.9049C34.5887 37.4909 32.0932 39.7983 30.5517 43.516C30.1286 44.5363 28.9585 45.0205 27.9382 44.5974C26.9179 44.1744 26.4337 43.0043 26.8567 41.9839C28.7153 37.5016 31.7365 34.5923 33.2062 33.595C34.1202 32.9748 35.364 33.2129 35.9842 34.127Z" fill="white"/>
<path fill-rule="evenodd" clip-rule="evenodd" d="M19.3875 66.5221C19.824 66.1838 20.4521 66.2635 20.7904 66.7C23.1598 69.7575 32.6775 76.5854 49.5088 75.8879C57.953 75.538 63.9792 73.9545 68.0647 72.1509C72.1838 70.3324 74.2561 68.3256 74.9184 67.1948C75.1975 66.7183 75.8101 66.5583 76.2867 66.8374C76.7632 67.1165 76.9233 67.7291 76.6441 68.2057C75.6856 69.8421 73.1898 72.0745 68.8724 73.9805C64.5213 75.9014 58.2424 77.5277 49.5916 77.8862C32.233 78.6055 22.0437 71.5824 19.2096 67.9251C18.8713 67.4885 18.9509 66.8604 19.3875 66.5221Z" fill="#FF3D3D"/>
<path fill-rule="evenodd" clip-rule="evenodd" d="M73.1524 34.4268C73.8141 34.9252 73.9466 35.8656 73.4482 36.5274C72.4732 37.8219 70.1434 39.3797 66.377 40.6729C62.5401 41.9903 57.0367 43.0948 49.4844 43.3382C34.3684 43.8253 25.6564 39.3497 22.9999 36.6837C22.4152 36.0969 22.4169 35.1471 23.0037 34.5624C23.5906 33.9777 24.5403 33.9794 25.1251 34.5662C26.9943 36.4422 34.7677 40.8109 49.3877 40.3397C56.7035 40.104 61.9022 39.0374 65.4028 37.8355C68.974 36.6093 70.6171 35.2997 71.0518 34.7226C71.5502 34.0608 72.4907 33.9284 73.1524 34.4268Z" fill="#FF3D3D"/>
<path fill-rule="evenodd" clip-rule="evenodd" d="M62.2185 25.8289C62.8653 26.3465 62.97 27.2905 62.4524 27.9373C61.7839 28.7727 60.3411 29.6319 58.2283 30.3146C56.0406 31.0215 52.9398 31.6027 48.7214 31.7306C44.466 31.8597 41.1128 31.33 38.6262 30.5896C36.1794 29.861 34.4845 28.9012 33.6263 28.0905C33.024 27.5217 32.9969 26.5723 33.5658 25.9701C34.1346 25.3678 35.084 25.3407 35.6862 25.9096C36.0783 26.2799 37.2857 27.0602 39.4824 27.7144C41.6393 28.3566 44.6708 28.8521 48.6304 28.732C52.627 28.6108 55.4394 28.063 57.3059 27.4599C58.2396 27.1582 58.9231 26.847 59.3947 26.5778C59.6302 26.4434 59.8045 26.3242 59.927 26.228C59.9878 26.1803 60.0326 26.1408 60.064 26.1107C60.0795 26.0959 60.0909 26.0841 60.0987 26.0757C60.1066 26.0672 60.1101 26.0628 60.1101 26.0628C60.6277 25.416 61.5717 25.3113 62.2185 25.8289Z" fill="#FF3D3D"/>
<path d="M41.6221 57.0934L45.2482 56.1677C45.3578 56.1397 45.4505 56.0666 45.5032 55.9664L46.673 53.7444L47.6108 51.9629C47.7525 51.6939 48.1306 51.675 48.2984 51.9285L50.7952 55.7016C50.8577 55.7959 50.9572 55.8594 51.0691 55.8763L54.7694 56.4354C55.0837 56.4829 55.2197 56.8602 55.0081 57.0973L52.1778 60.2678C52.0896 60.3666 52.056 60.5026 52.0881 60.6311L52.9813 64.2054C53.0621 64.5288 52.7351 64.8034 52.4305 64.6677L48.689 63.0016C48.5726 62.9497 48.4385 62.9565 48.3279 63.0196L44.7714 65.0511C44.4819 65.2165 44.1291 64.9759 44.1772 64.646L44.709 61.0005C44.7281 60.8694 44.6811 60.7374 44.5835 60.6479L41.4508 57.7759C41.2165 57.5611 41.3142 57.1721 41.6221 57.0934Z" fill="#FF3D3D"/>
<path fill-rule="evenodd" clip-rule="evenodd" d="M50.7952 55.7017C50.8577 55.796 50.9572 55.8595 51.0691 55.8764L54.7694 56.4355C55.0837 56.483 55.2197 56.8603 55.0081 57.0974L52.1778 60.2679C52.0896 60.3667 52.056 60.5027 52.0881 60.6312L52.9813 64.2055C53.0621 64.5289 52.7351 64.8035 52.4305 64.6678L48.689 63.0017C48.5726 62.9498 48.4385 62.9566 48.3279 63.0197L44.7714 65.0512C44.4819 65.2166 44.1291 64.976 44.1772 64.6461L44.709 61.0006C44.7281 60.8695 44.6811 60.7375 44.5835 60.648L41.4508 57.776C41.2165 57.5612 41.3142 57.1722 41.6221 57.0935L45.2482 56.1678C45.3578 56.1398 45.4505 56.0667 45.5032 55.9665L47.6108 51.963C47.7525 51.694 48.1306 51.6751 48.2984 51.9286L50.7952 55.7017ZM44.0646 54.4058L45.8411 51.0314C46.6909 49.4172 48.9595 49.3037 49.9662 50.8249L52.0708 54.0051L55.0682 54.4579C56.9537 54.7428 57.77 57.0067 56.5001 58.4293L54.2338 60.968L54.9216 63.7206C55.4066 65.6612 53.4442 67.3086 51.6169 66.4949L48.6159 65.1585L45.7634 66.7879C44.0265 67.78 41.9094 66.3368 42.1982 64.3574L42.6077 61.5499L40.0992 59.2502C38.6936 57.9616 39.2798 55.6274 41.1274 55.1557L44.0646 54.4058Z" fill="#F9F371"/>
<path d="M64.07 53.8976L66.4891 53.7225C66.602 53.7144 66.7061 53.6588 66.7757 53.5696L67.8525 52.1887L68.6233 51.2003C68.8102 50.9606 69.1857 51.0088 69.306 51.288L70.495 54.0472C70.5398 54.1511 70.6265 54.2312 70.7336 54.2676L73.03 55.0483C73.3309 55.1506 73.3981 55.546 73.1479 55.742L70.959 57.4558C70.8548 57.5375 70.7976 57.6655 70.8065 57.7976L70.9643 60.1434C70.9866 60.476 70.6162 60.6884 70.3404 60.5011L68.1492 59.0126C68.0439 58.9411 67.9107 58.924 67.7906 58.9666L65.2945 59.853C64.9803 59.9646 64.6756 59.6655 64.7812 59.3493L65.5266 57.1195C65.5686 56.9939 65.5457 56.8557 65.4654 56.7503L63.7807 54.5389C63.5881 54.2861 63.753 53.9205 64.07 53.8976Z" fill="#FF3D3D"/>
<path fill-rule="evenodd" clip-rule="evenodd" d="M70.9642 60.1434C70.9866 60.476 70.6162 60.6884 70.3404 60.5011L68.1492 59.0127C68.0439 58.9411 67.9107 58.924 67.7906 58.9666L65.2945 59.8531C64.9803 59.9647 64.6755 59.6655 64.7812 59.3493L65.5266 57.1196C65.5686 56.9939 65.5457 56.8557 65.4654 56.7503L63.7807 54.539C63.5881 54.2862 63.753 53.9206 64.07 53.8976L66.4891 53.7226C66.602 53.7144 66.7061 53.6588 66.7757 53.5696L68.6233 51.2004C68.8102 50.9606 69.1857 51.0089 69.306 51.2881L70.495 54.0473C70.5398 54.1512 70.6265 54.2313 70.7336 54.2677L73.03 55.0483C73.3309 55.1506 73.3981 55.5461 73.1479 55.742L70.959 57.4559C70.8547 57.5375 70.7976 57.6655 70.8065 57.7976L70.9642 60.1434ZM65.6357 51.7791L63.9256 51.9028C62.0237 52.0404 61.0341 54.2342 62.1898 55.751L63.3613 57.2887L62.8844 58.7153C62.2503 60.6124 64.0789 62.4072 65.9638 61.7378L67.696 61.1226L69.2166 62.1555C70.8712 63.2795 73.0939 62.005 72.9597 60.0092L72.8588 58.5085L74.3809 57.3167C75.8823 56.1411 75.4792 53.7685 73.6737 53.1548L72.0504 52.6029L71.1428 50.4966C70.4209 48.8214 68.1679 48.532 67.0461 49.9705L65.6357 51.7791Z" fill="#F9F371"/>
<path d="M24.191 55.7727L26.1471 54.3387C26.2384 54.2718 26.2971 54.1694 26.3086 54.0569L26.4869 52.3148L26.6145 51.068C26.6455 50.7656 26.9892 50.6069 27.2395 50.7794L29.713 52.4848C29.8062 52.549 29.9222 52.5708 30.0323 52.5447L32.3924 51.9855C32.7017 51.9123 32.9687 52.2115 32.8609 52.5105L31.9176 55.1256C31.8727 55.2502 31.8923 55.3889 31.9701 55.4961L33.3504 57.3994C33.5461 57.6692 33.3452 58.0461 33.012 58.0339L30.3649 57.9376C30.2376 57.933 30.1157 57.9893 30.0366 58.0892L28.3933 60.1667C28.1865 60.4282 27.7693 60.3367 27.6908 60.0127L27.1371 57.7278C27.106 57.5991 27.0131 57.4942 26.8891 57.4476L24.2867 56.4697C23.9892 56.3579 23.9346 55.9606 24.191 55.7727Z" fill="#FF3D3D"/>
<path fill-rule="evenodd" clip-rule="evenodd" d="M33.3504 57.3994C33.5461 57.6693 33.3452 58.0461 33.012 58.034L30.3649 57.9377C30.2376 57.933 30.1157 57.9893 30.0366 58.0892L28.3933 60.1667C28.1865 60.4282 27.7693 60.3368 27.6908 60.0128L27.1372 57.7278C27.106 57.5991 27.0131 57.4942 26.8891 57.4476L24.2867 56.4698C23.9892 56.358 23.9346 55.9606 24.191 55.7727L26.1471 54.3388C26.2384 54.2719 26.2971 54.1695 26.3086 54.0569L26.6145 51.068C26.6455 50.7656 26.9892 50.6069 27.2395 50.7795L29.713 52.4848C29.8062 52.5491 29.9222 52.5708 30.0323 52.5448L32.3924 51.9856C32.7017 51.9123 32.9687 52.2116 32.8609 52.5105L31.9176 55.1256C31.8727 55.2502 31.8923 55.389 31.9701 55.4962L33.3504 57.3994ZM24.3914 53.146L23.0085 54.1597C21.4706 55.287 21.7982 57.6712 23.5833 58.342L25.3928 59.0219L25.7471 60.4838C26.2181 62.4278 28.7209 62.9763 29.9619 61.4075L31.1023 59.9658L32.9393 60.0327C34.9382 60.1054 36.1437 57.8445 34.9694 56.2252L34.0863 55.0076L34.7423 53.1892C35.3893 51.3954 33.7869 49.5998 31.9313 50.0395L30.263 50.4347L28.3747 49.1329C26.8729 48.0975 24.8106 49.0497 24.6249 50.8644L24.3914 53.146Z" fill="#F9F371"/>
<path d="M50.4894 14.158H45.6981C44.7607 14.158 43.9491 14.809 43.7457 15.7241L42.0938 23.158C44.0833 23.7934 49.2688 24.683 54.0938 23.158L52.4418 15.7241C52.2384 14.809 51.4268 14.158 50.4894 14.158Z" fill="#E8A92E"/>
<path fill-rule="evenodd" clip-rule="evenodd" d="M56.0461 22.7241C56.271 23.7363 55.6851 24.7525 54.6965 25.065C49.3539 26.7536 43.7243 25.7782 41.4853 25.0632C40.4998 24.7484 39.9169 23.734 40.1414 22.7241L41.7933 15.2902C42.2 13.4601 43.8233 12.158 45.6981 12.158H50.4894C52.3642 12.158 53.9875 13.4601 54.3942 15.2902L56.0461 22.7241ZM42.0937 23.158L43.7457 15.7241C43.9491 14.809 44.7607 14.158 45.6981 14.158H50.4894C51.4268 14.158 52.2384 14.809 52.4418 15.7241L54.0937 23.158C49.2687 24.683 44.0833 23.7934 42.0937 23.158Z" fill="#BE8412"/>
<path fill-rule="evenodd" clip-rule="evenodd" d="M45.7274 15.0194C46.2689 15.1277 46.6201 15.6545 46.5118 16.1961L45.8243 19.6336C45.716 20.1751 45.1892 20.5263 44.6476 20.418C44.1061 20.3097 43.7549 19.7829 43.8632 19.2413L44.5507 15.8038C44.659 15.2623 45.1858 14.9111 45.7274 15.0194Z" fill="#FDC73E"/>
<path d="M50.8303 12.1259C50.8303 13.4898 49.6852 14.5955 48.2725 14.5955C46.8599 14.5955 45.7147 13.4898 45.7147 12.1259C45.7147 10.7619 46.8599 9.65625 48.2725 9.65625C49.6852 9.65625 50.8303 10.7619 50.8303 12.1259Z" fill="#BE8412"/>
<path d="M48.2725 11.5978C48.2725 12.0798 47.8678 12.4705 47.3687 12.4705C46.8695 12.4705 46.4648 12.0798 46.4648 11.5978C46.4648 11.1158 46.8695 10.7251 47.3687 10.7251C47.8678 10.7251 48.2725 11.1158 48.2725 11.5978Z" fill="#F0BA2F"/>
</svg>
