<svg width="96" height="96" viewBox="0 0 96 96" fill="none" xmlns="http://www.w3.org/2000/svg">
<path fill-rule="evenodd" clip-rule="evenodd" d="M17.3178 25.5346C18.3938 25.2852 19.4683 25.9553 19.7177 27.0314C22.437 38.7642 22.4507 45.5264 21.0394 50.8838C20.34 53.5391 19.3108 55.7674 18.2228 57.9672C18.0268 58.3633 17.8295 58.7576 17.6314 59.1535C16.718 60.9786 15.787 62.839 14.8936 65.077C12.7935 70.338 12.9829 74.7015 14.4303 77.7249C15.8559 80.7025 18.6162 82.6422 22.321 82.9667C25.3516 83.2321 28.0609 81.7296 30.2921 79.4091C32.5285 77.083 34.0291 74.1819 34.5877 72.3362C34.9077 71.279 36.0241 70.6813 37.0813 71.0013C38.1385 71.3213 38.7362 72.4377 38.4162 73.4949C37.6799 75.9276 35.8629 79.3863 33.1755 82.1814C30.4827 84.9821 26.6617 87.3621 21.972 86.9514C16.938 86.5105 12.8926 83.7761 10.8225 79.4522C8.77423 75.1739 8.77783 69.6084 11.1786 63.5941C12.1402 61.1851 13.158 59.1526 14.0751 57.3212C14.2674 56.9371 14.4553 56.5619 14.6374 56.1938C15.6982 54.049 16.5785 52.1155 17.1714 49.8649C18.3448 45.4103 18.4746 39.3839 15.821 27.9345C15.5716 26.8585 16.2417 25.784 17.3178 25.5346Z" fill="#935F10"/>
<path fill-rule="evenodd" clip-rule="evenodd" d="M17.5436 26.5088C18.0816 26.3841 18.6188 26.7192 18.7435 27.2572C21.4464 38.9191 21.4242 45.4974 20.0724 50.629C19.3996 53.1832 18.4077 55.3378 17.3264 57.5239C17.134 57.9128 16.9391 58.3023 16.7424 58.6953C15.8279 60.5223 14.8752 62.4256 13.9648 64.7063C13.7601 65.2192 13.1783 65.469 12.6654 65.2643C12.1524 65.0595 11.9026 64.4777 12.1074 63.9648C13.0519 61.5987 14.0479 59.6094 14.9642 57.7791C15.158 57.3921 15.3483 57.0121 15.5337 56.6372C16.6014 54.4786 17.5189 52.4714 18.1384 50.1196C19.3713 45.4393 19.4652 39.229 16.7952 27.7087C16.6705 27.1707 17.0056 26.6335 17.5436 26.5088Z" fill="#BD8023"/>
<path fill-rule="evenodd" clip-rule="evenodd" d="M19.8944 40.5685C20.4462 40.5461 20.9117 40.9753 20.9341 41.5271C21.0191 43.6202 20.9446 45.458 20.7413 47.1212C20.6743 47.6694 20.1756 48.0595 19.6274 47.9924C19.0792 47.9254 18.6891 47.4267 18.7561 46.8785C18.9448 45.3346 19.0169 43.6058 18.9358 41.6082C18.9134 41.0564 19.3426 40.5909 19.8944 40.5685Z" fill="#E49B2D"/>
<path d="M55.3004 22.6622C56.5339 20.8295 59.0195 20.3437 60.8523 21.5771L75.6061 31.5067C77.4388 32.7401 77.9246 35.2258 76.6912 37.0585L48.1752 79.429C47.6598 80.1947 46.8958 80.7633 45.9793 80.8728C43.593 81.1581 38.4613 81.1075 33 76.875C27.0634 72.2741 26.0876 68.5771 25.9705 67.0178C25.9307 66.4892 26.1399 65.9903 26.4359 65.5506L55.3004 22.6622Z" fill="#1D7F05"/>
<path fill-rule="evenodd" clip-rule="evenodd" d="M61.9689 19.9179L76.7228 29.8475C79.4719 31.6977 80.2006 35.4261 78.3504 38.1752L49.8344 80.5457C49.0775 81.6702 47.8445 82.6641 46.2166 82.8587C43.4611 83.1881 37.759 83.0935 31.7749 78.4559C25.4879 73.5835 24.1441 69.4031 23.9761 67.1677C23.8891 66.0102 24.3548 65.0607 24.7766 64.434L53.6412 21.5455C55.4914 18.7965 59.2198 18.0677 61.9689 19.9179ZM60.8523 21.5771C59.0195 20.3437 56.5339 20.8295 55.3004 22.6622L26.4359 65.5507C26.1399 65.9904 25.9307 66.4893 25.9705 67.0178C26.0876 68.5771 27.0634 72.2742 33 76.875C38.4613 81.1076 43.593 81.1581 45.9792 80.8729C46.8958 80.7633 47.6598 80.1947 48.1752 79.429L76.6912 37.0585C77.9246 35.2258 77.4388 32.7401 75.6061 31.5067L60.8523 21.5771Z" fill="#154909"/>
<path fill-rule="evenodd" clip-rule="evenodd" d="M28.778 72.8826C29.7879 74.1013 31.1542 75.4444 33 76.875C38.4614 81.1075 43.593 81.1581 45.9793 80.8728C46.8958 80.7632 47.6598 80.1947 48.1752 79.4289L76.6912 37.0585C77.9247 35.2257 77.4388 32.7401 75.6061 31.5066L74.1583 30.5322C74.5476 31.6749 74.4172 32.9797 73.6912 34.0585L45.1752 76.4289C44.6598 77.1947 43.8958 77.7632 42.9793 77.8728C40.593 78.1581 35.4614 78.1075 30 73.875C29.5668 73.5392 29.16 73.2082 28.778 72.8826Z" fill="#1F630E"/>
<path fill-rule="evenodd" clip-rule="evenodd" d="M54.7544 35.503C56.1312 36.4245 56.5003 38.2878 55.5788 39.6647L34.5788 71.0397C33.6572 72.4166 31.7939 72.7857 30.417 71.8641C29.0401 70.9425 28.671 69.0793 29.5926 67.7024L50.5926 36.3274C51.5142 34.9505 53.3775 34.5814 54.7544 35.503Z" fill="#39AC1B"/>
<path fill-rule="evenodd" clip-rule="evenodd" d="M37.7476 48.7432L52.48 26.853L64.6016 24.1004L73.7891 30.2837L74.9917 39.5837L59.4108 62.7345C54.7007 61.393 49.7952 59.2803 45.3473 56.0529C42.1759 53.7518 39.6866 51.2542 37.7476 48.7432Z" fill="#154909"/>
<path fill-rule="evenodd" clip-rule="evenodd" d="M41.2055 45.1248C41.7578 45.1248 42.2055 45.5725 42.2055 46.1248C42.2055 48.2629 42.741 52.464 46.3571 55.9736C50.9407 60.4224 53.6437 65.5251 54.0789 69.2551C54.1429 69.8037 53.7501 70.3003 53.2015 70.3643C52.653 70.4283 52.1564 70.0355 52.0924 69.4869C51.7279 66.363 49.3435 61.6593 44.9641 57.4088C40.8123 53.3792 40.2055 48.5559 40.2055 46.1248C40.2055 45.5725 40.6532 45.1248 41.2055 45.1248Z" fill="#B48204"/>
<path fill-rule="evenodd" clip-rule="evenodd" d="M44.9752 40.2236C45.5274 40.2236 45.9752 40.6713 45.9752 41.2236C45.9752 43.3617 46.5106 47.5628 50.1267 51.0725C54.7104 55.5213 57.4134 60.6239 57.8486 64.3539C57.9126 64.9025 57.5198 65.3991 56.9712 65.4631C56.4226 65.5271 55.926 65.1343 55.862 64.5857C55.4976 61.4618 53.1131 56.7581 48.7338 52.5076C44.582 48.478 43.9752 43.6547 43.9752 41.2236C43.9752 40.6713 44.4229 40.2236 44.9752 40.2236Z" fill="#B48204"/>
<path fill-rule="evenodd" clip-rule="evenodd" d="M48.7448 35.1973C49.2971 35.1973 49.7448 35.645 49.7448 36.1973C49.7448 38.3355 50.2803 42.5365 53.8964 46.0462C58.4801 50.495 61.1831 55.5977 61.6183 59.3277C61.6823 59.8763 61.2894 60.3728 60.7409 60.4368C60.1923 60.5008 59.6957 60.108 59.6317 59.5595C59.2673 56.4356 56.8828 51.7319 52.5035 47.4814C48.3516 43.4517 47.7448 38.6284 47.7448 36.1973C47.7448 35.645 48.1926 35.1973 48.7448 35.1973Z" fill="#B48204"/>
<path fill-rule="evenodd" clip-rule="evenodd" d="M37.5501 50.665C38.1024 50.665 38.5501 51.1128 38.5501 51.665C38.5501 53.8032 39.0855 58.0042 42.7016 61.5139C47.2853 65.9627 49.9883 71.0654 50.4235 74.7954C50.4875 75.344 50.0947 75.8406 49.5461 75.9046C48.9975 75.9686 48.501 75.5757 48.437 75.0272C48.0725 71.9033 45.6881 67.1996 41.3087 62.9491C37.1569 58.9195 36.5501 54.0962 36.5501 51.665C36.5501 51.1128 36.9978 50.665 37.5501 50.665Z" fill="#B48204"/>
<path fill-rule="evenodd" clip-rule="evenodd" d="M33.3164 55.6912C33.8687 55.6912 34.3164 56.1389 34.3164 56.6912C34.3164 58.8294 34.8518 63.0304 38.4679 66.5401C43.0516 70.9889 45.7546 76.0916 46.1898 79.8216C46.2538 80.3702 45.861 80.8667 45.3124 80.9307C44.7638 80.9947 44.2673 80.6019 44.2033 80.0534C43.8388 76.9295 41.4544 72.2258 37.075 67.9753C32.9232 63.9456 32.3164 59.1223 32.3164 56.6912C32.3164 56.1389 32.7641 55.6912 33.3164 55.6912Z" fill="#B48204"/>
<path fill-rule="evenodd" clip-rule="evenodd" d="M29.125 61.2551C29.6773 61.2551 30.125 61.7028 30.125 62.2551C30.125 64.314 30.9426 68.3238 34.6027 71.8762C37.1577 74.356 38.9849 76.6327 39.9988 79.3364C40.1927 79.8535 39.9307 80.4299 39.4136 80.6238C38.8965 80.8177 38.3201 80.5557 38.1262 80.0386C37.2651 77.7423 35.683 75.7118 33.2098 73.3113C29.102 69.3244 28.125 64.7656 28.125 62.2551C28.125 61.7028 28.5727 61.2551 29.125 61.2551Z" fill="#B48204"/>
<path fill-rule="evenodd" clip-rule="evenodd" d="M37.7143 54.3767C38.2484 54.2361 38.7953 54.5552 38.9358 55.0893C39.1273 55.8167 39.546 57.0291 40.1641 58.2298C40.7922 59.45 41.5678 60.5427 42.425 61.155C42.8744 61.476 42.9785 62.1006 42.6575 62.55C42.3365 62.9994 41.7119 63.1035 41.2625 62.7825C40.0197 61.8948 39.0661 60.4666 38.3859 59.1452C37.6956 57.8043 37.2269 56.4541 37.0017 55.5982C36.8611 55.0641 37.1802 54.5172 37.7143 54.3767Z" fill="#EFB31C"/>
<path fill-rule="evenodd" clip-rule="evenodd" d="M33.5893 59.5954C34.1234 59.4549 34.6703 59.7739 34.8108 60.308C35.0023 61.0354 35.421 62.2478 36.0391 63.4486C36.6672 64.6688 37.4428 65.7615 38.3 66.3738C38.7494 66.6948 38.8535 67.3193 38.5325 67.7687C38.2115 68.2182 37.5869 68.3222 37.1375 68.0012C35.8947 67.1135 34.9411 65.6854 34.2609 64.3639C33.5706 63.023 33.1019 61.6729 32.8767 60.817C32.7361 60.2829 33.0552 59.736 33.5893 59.5954Z" fill="#EFB31C"/>
<path fill-rule="evenodd" clip-rule="evenodd" d="M29.4452 65.2403C29.9692 65.0659 30.5354 65.3493 30.7098 65.8733C30.9473 66.587 31.4427 67.7702 32.1363 68.929C32.8411 70.1066 33.6849 71.1475 34.5795 71.7037C35.0485 71.9954 35.1923 72.612 34.9006 73.081C34.609 73.55 33.9924 73.6938 33.5234 73.4021C32.2264 72.5957 31.1835 71.2314 30.4202 69.9561C29.6457 68.662 29.0916 67.3446 28.8121 66.5049C28.6377 65.9808 28.9212 65.4147 29.4452 65.2403Z" fill="#EFB31C"/>
<path fill-rule="evenodd" clip-rule="evenodd" d="M41.5893 49.0991C42.1234 48.9586 42.6703 49.2776 42.8108 49.8117C43.0023 50.5392 43.421 51.7516 44.0391 52.9523C44.6672 54.1725 45.4428 55.2652 46.3 55.8775C46.7494 56.1985 46.8535 56.8231 46.5325 57.2725C46.2115 57.7219 45.5869 57.826 45.1375 57.505C43.8947 56.6172 42.9411 55.1891 42.2609 53.8677C41.5706 52.5267 41.1019 51.1766 40.8767 50.3207C40.7361 49.7866 41.0552 49.2397 41.5893 49.0991Z" fill="#EFB31C"/>
<path fill-rule="evenodd" clip-rule="evenodd" d="M44.942 43.5409C45.4761 43.4003 46.0231 43.7193 46.1636 44.2534C46.355 44.9809 46.7738 46.1933 47.3919 47.394C48.02 48.6142 48.7956 49.7069 49.6528 50.3192C50.1022 50.6402 50.2063 51.2648 49.8853 51.7142C49.5643 52.1636 48.9397 52.2677 48.4903 51.9467C47.2475 51.059 46.2939 49.6308 45.6137 48.3094C44.9234 46.9684 44.4547 45.6183 44.2295 44.7624C44.0889 44.2283 44.4079 43.6814 44.942 43.5409Z" fill="#EFB31C"/>
<path d="M40.3973 21.9594L74.4613 14.2239C76.7613 13.7016 79.0116 15.2725 79.3141 17.6116L83.7104 51.6074C83.9959 53.815 82.4233 55.8274 80.1974 55.8273C72.9169 55.827 61.0445 54.0893 51.3472 47.0529C41.609 39.9869 38.3021 31.0692 37.6103 25.5941C37.3883 23.8377 38.6708 22.3514 40.3973 21.9594Z" fill="#CA3737"/>
<path fill-rule="evenodd" clip-rule="evenodd" d="M39.9544 20.009L74.0184 12.2736C77.4684 11.4901 80.8438 13.8465 81.2976 17.3551L85.6939 51.3509C86.1148 54.6056 83.7755 57.8274 80.1973 57.8273C72.6828 57.827 60.3372 56.0471 50.1726 48.6717C39.9343 41.2428 36.3786 31.7999 35.6261 25.8448C35.2487 22.8584 37.444 20.5791 39.9544 20.009ZM74.4613 14.2239L40.3973 21.9594C38.6708 22.3514 37.3884 23.8377 37.6103 25.5941C38.3022 31.0692 41.609 39.987 51.3472 47.0529C61.0445 54.0893 72.917 55.827 80.1974 55.8273C82.4233 55.8274 83.9959 53.815 83.7104 51.6074L79.3141 17.6116C79.0116 15.2725 76.7613 13.7016 74.4613 14.2239Z" fill="#730606"/>
<path fill-rule="evenodd" clip-rule="evenodd" d="M75.0008 55.5577C76.8969 55.7487 78.6508 55.8272 80.1974 55.8272C82.4233 55.8273 83.9959 53.8149 83.7104 51.6073L79.3141 17.6116C79.1814 16.586 78.6744 15.7081 77.9529 15.0896C77.9513 15.1442 77.9485 15.1989 77.9447 15.2539L75.1723 54.6451C75.15 54.9621 75.0913 55.2678 75.0008 55.5577Z" fill="#B32D2D"/>
<path d="M41.75 24.875L74.875 16.75L48.875 39.75C43.975 36.25 42.0833 28.375 41.75 24.875Z" fill="#EC4747"/>
<path fill-rule="evenodd" clip-rule="evenodd" d="M65.1655 21.3786C65.4396 22.1604 65.0281 23.0163 64.2464 23.2905L51.0589 27.9155C50.2772 28.1897 49.4212 27.7782 49.147 26.9965C48.8728 26.2147 49.2843 25.3587 50.0661 25.0846L63.2536 20.4596C64.0353 20.1854 64.8913 20.5969 65.1655 21.3786Z" fill="#FF9B9B"/>
<path fill-rule="evenodd" clip-rule="evenodd" d="M41.9928 20.2836C42.5265 20.1416 43.0743 20.4591 43.2163 20.9928L43.2271 21.0333C44.5961 26.1774 47.1311 35.7036 57.7752 42.2741C68.1208 48.6602 77.6929 49.0364 82.8195 48.7515C83.3709 48.7209 83.8428 49.1431 83.8734 49.6945C83.9041 50.246 83.4819 50.7178 82.9304 50.7485C77.557 51.047 67.5342 50.6485 56.7247 43.9759C45.4026 36.987 42.6932 26.8047 41.3037 21.5827C41.297 21.5574 41.2903 21.5322 41.2836 21.5072C41.1416 20.9735 41.4591 20.4257 41.9928 20.2836Z" fill="#F6D04D"/>
<path fill-rule="evenodd" clip-rule="evenodd" d="M49.173 19.1963C49.7067 19.0543 50.2545 19.3718 50.3965 19.9055L50.4039 19.9333C51.4782 23.97 53.4528 31.3902 61.7497 36.5118C69.8348 41.5025 77.313 41.7959 81.3176 41.5734C81.869 41.5428 82.3409 41.9649 82.3715 42.5164C82.4022 43.0678 81.98 43.5397 81.4285 43.5703C77.1771 43.8065 69.2481 43.4908 60.6992 38.2136C51.7243 32.6736 49.5753 24.5973 48.4805 20.4828C48.4749 20.4617 48.4693 20.4407 48.4638 20.4198C48.3217 19.8861 48.6393 19.3383 49.173 19.1963Z" fill="#F6D04D"/>
<path fill-rule="evenodd" clip-rule="evenodd" d="M57.7815 17.4463C58.3152 17.3043 58.863 17.6218 59.005 18.1555L59.0091 18.1706C59.7911 21.1094 61.2101 26.4415 67.1797 30.1264C73.0234 33.7336 78.4255 33.9449 81.3176 33.7842C81.869 33.7536 82.3409 34.1757 82.3715 34.7272C82.4022 35.2786 81.98 35.7505 81.4285 35.7811C78.2896 35.9555 72.4367 35.7218 66.1292 31.8283C59.4816 27.7248 57.8883 21.7367 57.0857 18.7202C57.0812 18.7033 57.0767 18.6865 57.0723 18.6698C56.9303 18.1361 57.2478 17.5883 57.7815 17.4463Z" fill="#F6D04D"/>
<path fill-rule="evenodd" clip-rule="evenodd" d="M65.1444 15.7836C65.6781 15.6416 66.2259 15.9591 66.3679 16.4928L66.3685 16.4951C66.8595 18.3397 67.7246 21.5905 71.3745 23.8435C74.984 26.0716 78.3168 26.2011 80.1 26.102C80.6515 26.0714 81.1233 26.4935 81.154 27.045C81.1846 27.5964 80.7624 28.0683 80.211 28.0989C78.1809 28.2117 74.3974 28.0598 70.3239 25.5454C65.996 22.8738 64.9566 18.967 64.4452 17.0447C64.4419 17.0321 64.4385 17.0196 64.4352 17.0072C64.2932 16.4735 64.6107 15.9257 65.1444 15.7836Z" fill="#F6D04D"/>
<path fill-rule="evenodd" clip-rule="evenodd" d="M72.0798 14.8277C72.6135 14.6857 73.1613 15.0032 73.3034 15.5369C73.5051 16.2949 73.8227 17.4652 75.1561 18.2883C76.5417 19.1436 77.8145 19.1916 78.494 19.1539C79.0454 19.1232 79.5173 19.5454 79.5479 20.0969C79.5785 20.6483 79.1563 21.1201 78.6049 21.1508C77.6787 21.2022 75.955 21.1318 74.1056 19.9902C72.0867 18.744 71.5988 16.909 71.377 16.0752C71.3749 16.0671 71.3727 16.0591 71.3706 16.0512C71.2286 15.5175 71.5461 14.9697 72.0798 14.8277Z" fill="#F6D04D"/>
</svg>
