<svg width="96" height="96" viewBox="0 0 96 96" fill="none" xmlns="http://www.w3.org/2000/svg">
<path fill-rule="evenodd" clip-rule="evenodd" d="M39.5659 23.9256C38.6528 23.1167 37.3695 22.5654 35.3778 22.6826C33.2988 22.8049 31.8941 23.4754 30.894 24.3689C29.8615 25.2914 29.0994 26.5984 28.5911 28.2126C27.5546 31.5046 27.7423 35.5492 28.2891 38.283C28.5691 39.6833 27.661 41.0455 26.2607 41.3256C24.8604 41.6056 23.4982 40.6975 23.2181 39.2972C22.5701 36.0574 22.2714 31.0649 23.6585 26.6595C24.362 24.4251 25.5392 22.2183 27.4486 20.5124C29.3905 18.7775 31.9305 17.705 35.0741 17.5201C38.305 17.3301 40.9664 18.2573 42.9953 20.0549C44.9579 21.7937 46.1249 24.1641 46.8117 26.5472C48.1736 31.2728 47.8786 36.8521 47.2463 40.5105C47.0031 41.9177 45.6652 42.8613 44.258 42.6181C42.8509 42.3748 41.9073 41.0369 42.1505 39.6298C42.7129 36.3759 42.9043 31.6636 41.8426 27.9793C41.3175 26.1575 40.5453 24.7933 39.5659 23.9256Z" fill="#9D6B1F"/>
<path fill-rule="evenodd" clip-rule="evenodd" d="M29.9323 22.0306C28.1588 23.3243 27.0852 25.1024 26.6504 26.3101C26.4891 26.758 25.9954 26.9904 25.5475 26.8291C25.0996 26.6679 24.8672 26.1741 25.0285 25.7262C25.5633 24.2405 26.8276 22.1617 28.9165 20.638C31.0345 19.093 33.9742 18.1411 37.7578 18.9255C38.2239 19.0221 38.5234 19.4783 38.4268 19.9444C38.3301 20.4105 37.874 20.71 37.4078 20.6134C34.1239 19.9325 31.6767 20.7583 29.9323 22.0306Z" fill="#B67E2A"/>
<path fill-rule="evenodd" clip-rule="evenodd" d="M32.5218 19.7886C32.6835 20.2364 32.4516 20.7304 32.0039 20.892C31.437 21.0967 29.9476 21.8101 28.8083 22.91C28.4659 23.2407 27.9203 23.2311 27.5896 22.8887C27.259 22.5462 27.2686 22.0006 27.611 21.6699C28.9713 20.3566 30.6924 19.5329 31.4184 19.2707C31.8661 19.109 32.3601 19.3409 32.5218 19.7886Z" fill="#D69B43"/>
<path d="M14.083 40.6472C14.4597 37.1446 17.4159 34.4891 20.9387 34.4891H50.0253C53.548 34.4891 56.5043 37.1446 56.8809 40.6472L60.5183 74.4746C60.9566 78.551 57.7625 82.107 53.6626 82.107H17.3014C13.2015 82.107 10.0074 78.551 10.4457 74.4746L14.083 40.6472Z" fill="#E7401B"/>
<path fill-rule="evenodd" clip-rule="evenodd" d="M20.9387 32.7653H50.0253C54.4287 32.7653 58.1241 36.0846 58.5949 40.4628L62.2322 74.2902C62.7801 79.3857 58.7874 83.8307 53.6626 83.8307H17.3014C12.1765 83.8307 8.18386 79.3857 8.73176 74.2902L12.3691 40.4628C12.8399 36.0846 16.5352 32.7653 20.9387 32.7653ZM20.9387 34.4891C17.4159 34.4891 14.4597 37.1445 14.083 40.6471L10.4457 74.4745C10.0074 78.5509 13.2015 82.1069 17.3014 82.1069H53.6626C57.7625 82.1069 60.9566 78.5509 60.5183 74.4745L56.8809 40.6471C56.5043 37.1445 53.548 34.4891 50.0253 34.4891H20.9387Z" fill="#972309"/>
<path fill-rule="evenodd" clip-rule="evenodd" d="M10.8736 77.7135C11.8697 80.2654 14.3511 82.107 17.3015 82.107H53.6627C57.7626 82.107 60.9567 78.5509 60.5184 74.4746L56.8811 40.6472C56.5173 37.2638 53.7464 34.6709 50.3831 34.4983L54.0454 70.3051C54.4626 74.3837 51.25 77.9231 47.1502 77.9018L10.8736 77.7135Z" fill="#BB2B0C"/>
<path d="M15.2532 52.2368L16.1496 41.6719C16.3634 39.1516 18.3688 37.1558 20.8901 36.9541L28.0099 36.3846C28.7612 36.3245 29.2223 37.1896 28.7535 37.7798L16.7869 52.8457C16.2561 53.514 15.181 53.0871 15.2532 52.2368Z" fill="#FA522D"/>
<path fill-rule="evenodd" clip-rule="evenodd" d="M20.8727 38.2949C21.1583 38.6757 21.0811 39.2159 20.7003 39.5015C20.1204 39.9365 18.4594 41.7852 18.4594 45.3301C18.4594 45.8062 18.0735 46.192 17.5975 46.192C17.1215 46.192 16.7356 45.8062 16.7356 45.3301C16.7356 41.2257 18.6658 38.8727 19.6661 38.1225C20.0469 37.8369 20.5871 37.9141 20.8727 38.2949Z" fill="#FF7C5F"/>
<path d="M57.3188 61.3636C57.3188 61.7433 57.011 62.0511 56.6313 62.0511C56.2516 62.0511 55.9438 61.7433 55.9438 61.3636C55.9438 60.9839 56.2516 60.6761 56.6313 60.6761C57.011 60.6761 57.3188 60.9839 57.3188 61.3636Z" fill="#087332"/>
<path d="M56.6141 79.207C56.6141 79.5867 56.3063 79.8945 55.9266 79.8945C55.5469 79.8945 55.2391 79.5867 55.2391 79.207C55.2391 78.8273 55.5469 78.5195 55.9266 78.5195C56.3063 78.5195 56.6141 78.8273 56.6141 79.207Z" fill="#087332"/>
<path d="M57.783 68.4824C57.783 68.995 57.3674 69.4105 56.8549 69.4105C56.3423 69.4105 55.9268 68.995 55.9268 68.4824C55.9268 67.9698 56.3423 67.5543 56.8549 67.5543C57.3674 67.5543 57.783 67.9698 57.783 68.4824Z" fill="#087332"/>
<path d="M57.3189 65.4662C57.3189 65.8506 57.0073 66.1623 56.6228 66.1623C56.2384 66.1623 55.9268 65.8506 55.9268 65.4662C55.9268 65.0818 56.2384 64.7701 56.6228 64.7701C57.0073 64.7701 57.3189 65.0818 57.3189 65.4662Z" fill="#087332"/>
<path d="M58.6352 72.6417C58.6352 73.439 57.9888 74.0854 57.1915 74.0854C56.3942 74.0854 55.7478 73.439 55.7478 72.6417C55.7478 71.8444 56.3942 71.198 57.1915 71.198C57.9888 71.198 58.6352 71.8444 58.6352 72.6417Z" fill="#087332"/>
<path d="M54.8742 70.441C54.8742 70.8591 54.5353 71.198 54.1172 71.198C53.6992 71.198 53.3603 70.8591 53.3603 70.441C53.3603 70.023 53.6992 69.6841 54.1172 69.6841C54.5353 69.6841 54.8742 70.023 54.8742 70.441Z" fill="#087332"/>
<path d="M58.1195 76.234C58.1195 76.7466 57.704 77.1621 57.1914 77.1621C56.6789 77.1621 56.2634 76.7466 56.2634 76.234C56.2634 75.7214 56.6789 75.3059 57.1914 75.3059C57.704 75.3059 58.1195 75.7214 58.1195 76.234Z" fill="#087332"/>
<path d="M54.8742 76.599C54.8742 76.9099 54.6221 77.162 54.3112 77.162C54.0003 77.162 53.7482 76.9099 53.7482 76.599C53.7482 76.2881 54.0003 76.036 54.3112 76.036C54.6221 76.036 54.8742 76.2881 54.8742 76.599Z" fill="#087332"/>
<path d="M46.5076 80.0021C46.5076 80.313 46.2556 80.5651 45.9446 80.5651C45.6337 80.5651 45.3817 80.313 45.3817 80.0021C45.3817 79.6911 45.6337 79.4391 45.9446 79.4391C46.2556 79.4391 46.5076 79.6911 46.5076 80.0021Z" fill="#087332"/>
<path d="M51.1403 77.162C51.1403 77.4729 50.8882 77.725 50.5773 77.725C50.2663 77.725 50.0143 77.4729 50.0143 77.162C50.0143 76.8511 50.2663 76.599 50.5773 76.599C50.8882 76.599 51.1403 76.8511 51.1403 77.162Z" fill="#087332"/>
<path d="M53.3603 79.4391C53.3603 79.9516 52.9448 80.3671 52.4322 80.3671C51.9197 80.3671 51.5042 79.9516 51.5042 79.4391C51.5042 78.9265 51.9197 78.511 52.4322 78.511C52.9448 78.511 53.3603 78.9265 53.3603 79.4391Z" fill="#087332"/>
<path d="M53.6238 74.0853C53.6238 74.5979 53.2083 75.0134 52.6957 75.0134C52.1831 75.0134 51.7676 74.5979 51.7676 74.0853C51.7676 73.5727 52.1831 73.1572 52.6957 73.1572C53.2083 73.1572 53.6238 73.5727 53.6238 74.0853Z" fill="#087332"/>
<path d="M49.7019 79.1985C49.7019 79.5829 49.3903 79.8946 49.0058 79.8946C48.6214 79.8946 48.3098 79.5829 48.3098 79.1985C48.3098 78.8141 48.6214 78.5024 49.0058 78.5024C49.3903 78.5024 49.7019 78.8141 49.7019 79.1985Z" fill="#087332"/>
<path fill-rule="evenodd" clip-rule="evenodd" d="M61.3632 16.6033C60.3039 15.6648 58.8149 15.0252 56.504 15.1611C54.092 15.303 52.4622 16.081 51.3019 17.1176C50.1038 18.1879 49.2197 19.7043 48.63 21.5772C47.4274 25.3967 47.6452 30.0894 48.2795 33.2611C48.6045 34.8858 47.5508 36.4663 45.9261 36.7912C44.3014 37.1162 42.721 36.0625 42.396 34.4378C41.6443 30.6789 41.2977 24.8865 42.907 19.7753C43.7232 17.1828 45.089 14.6224 47.3044 12.6432C49.5574 10.6304 52.5044 9.38605 56.1517 9.1715C59.9003 8.95099 62.988 10.0268 65.3421 12.1124C67.6192 14.1298 68.9732 16.88 69.77 19.645C71.3501 25.1278 71.0079 31.6009 70.2743 35.8456C69.9921 37.4782 68.4398 38.573 66.8072 38.2908C65.1745 38.0086 64.0797 36.4564 64.3619 34.8237C65.0144 31.0485 65.2365 25.5811 64.0046 21.3065C63.3955 19.1928 62.4995 17.61 61.3632 16.6033Z" fill="#C4850D"/>
<path fill-rule="evenodd" clip-rule="evenodd" d="M50.1862 14.4047C48.1285 15.9056 46.8828 17.9686 46.3784 19.3699C46.1913 19.8895 45.6184 20.1591 45.0988 19.972C44.5791 19.785 44.3095 19.2121 44.4966 18.6924C45.1172 16.9687 46.584 14.5567 49.0076 12.7889C51.465 10.9964 54.8757 9.89188 59.2655 10.802C59.8063 10.9141 60.1538 11.4434 60.0417 11.9842C59.9296 12.5249 59.4003 12.8724 58.8595 12.7603C55.0493 11.9704 52.21 12.9284 50.1862 14.4047Z" fill="#E1A736"/>
<path fill-rule="evenodd" clip-rule="evenodd" d="M53.1906 11.8035C53.3781 12.3229 53.1091 12.8961 52.5896 13.0836C51.932 13.3211 50.2038 14.1488 48.8821 15.425C48.4848 15.8086 47.8517 15.7975 47.4681 15.4002C47.0845 15.0029 47.0956 14.3698 47.4929 13.9862C49.0712 12.4624 51.068 11.5067 51.9104 11.2025C52.4298 11.015 53.003 11.284 53.1906 11.8035Z" fill="#F8DBA4"/>
<path d="M31.7973 36.0041C32.2343 31.9403 35.6643 28.8594 39.7515 28.8594H73.4985C77.5857 28.8594 81.0157 31.9403 81.4526 36.0041L85.6728 75.2516C86.1814 79.9811 82.4754 84.1069 77.7187 84.1069H35.5313C30.7746 84.1069 27.0686 79.9811 27.5772 75.2516L31.7973 36.0041Z" fill="#179C4C"/>
<path fill-rule="evenodd" clip-rule="evenodd" d="M39.7515 26.8594H73.4985C78.6075 26.8594 82.895 30.7105 83.4412 35.7903L87.6614 75.0378C88.297 80.9497 83.6646 86.1069 77.7187 86.1069H35.5313C29.5854 86.1069 24.953 80.9497 25.5886 75.0378L29.8088 35.7903C30.355 30.7105 34.6425 26.8594 39.7515 26.8594ZM39.7515 28.8594C35.6643 28.8594 32.2343 31.9403 31.7973 36.0041L27.5772 75.2516C27.0686 79.9811 30.7746 84.1069 35.5313 84.1069H77.7187C82.4754 84.1069 86.1814 79.9811 85.6728 75.2516L81.4527 36.0041C81.0157 31.9403 77.5857 28.8594 73.4985 28.8594H39.7515Z" fill="#07632C"/>
<path fill-rule="evenodd" clip-rule="evenodd" d="M28.0735 79.0095C29.2292 81.9702 32.1082 84.1069 35.5314 84.1069H77.7187C82.4755 84.1069 86.1814 79.9811 85.6729 75.2516L81.4527 36.0041C81.0306 32.0786 77.8158 29.0703 73.9136 28.87L78.1627 70.414C78.6467 75.1461 74.9194 79.2526 70.1628 79.2279L28.0735 79.0095Z" fill="#168A44"/>
<path d="M33.155 49.4507L34.195 37.193C34.4431 34.2689 36.7698 31.9534 39.695 31.7193L47.9557 31.0585C48.8273 30.9888 49.3623 31.9925 48.8184 32.6773L34.9344 50.1572C34.3186 50.9325 33.0712 50.4373 33.155 49.4507Z" fill="#30B766"/>
<path fill-rule="evenodd" clip-rule="evenodd" d="M39.675 33.2749C40.0064 33.7168 39.9168 34.3436 39.475 34.6749C38.8022 35.1796 36.875 37.3245 36.875 41.4374C36.875 41.9897 36.4273 42.4374 35.875 42.4374C35.3227 42.4374 34.875 41.9897 34.875 41.4374C34.875 36.6753 37.1145 33.9453 38.275 33.0749C38.7168 32.7436 39.3436 32.8331 39.675 33.2749Z" fill="#48F08B"/>
<path d="M81.9608 60.0399C81.9608 60.4805 81.6037 60.8376 81.1631 60.8376C80.7226 60.8376 80.3655 60.4805 80.3655 60.0399C80.3655 59.5994 80.7226 59.2423 81.1631 59.2423C81.6037 59.2423 81.9608 59.5994 81.9608 60.0399Z" fill="#087332"/>
<path d="M81.1432 80.7423C81.1432 81.1829 80.7861 81.54 80.3455 81.54C79.905 81.54 79.5479 81.1829 79.5479 80.7423C79.5479 80.3018 79.905 79.9447 80.3455 79.9447C80.7861 79.9447 81.1432 80.3018 81.1432 80.7423Z" fill="#087332"/>
<path d="M82.4992 68.2993C82.4992 68.894 82.0171 69.3761 81.4224 69.3761C80.8277 69.3761 80.3456 68.894 80.3456 68.2993C80.3456 67.7046 80.8277 67.2225 81.4224 67.2225C82.0171 67.2225 82.4992 67.7046 82.4992 68.2993Z" fill="#087332"/>
<path d="M81.9608 64.7999C81.9608 65.2459 81.5992 65.6075 81.1532 65.6075C80.7072 65.6075 80.3456 65.2459 80.3456 64.7999C80.3456 64.3539 80.7072 63.9923 81.1532 63.9923C81.5992 63.9923 81.9608 64.3539 81.9608 64.7999Z" fill="#087332"/>
<path d="M83.4879 73.125C83.4879 74.05 82.738 74.8 81.8129 74.8C80.8879 74.8 80.1379 74.05 80.1379 73.125C80.1379 72.1999 80.8879 71.45 81.8129 71.45C82.738 71.45 83.4879 72.1999 83.4879 73.125Z" fill="#087332"/>
<path d="M79.1243 70.5717C79.1243 71.0568 78.7311 71.45 78.2461 71.45C77.7611 71.45 77.3679 71.0568 77.3679 70.5717C77.3679 70.0867 77.7611 69.6935 78.2461 69.6935C78.7311 69.6935 79.1243 70.0867 79.1243 70.5717Z" fill="#087332"/>
<path d="M82.8897 77.2928C82.8897 77.8875 82.4076 78.3696 81.8129 78.3696C81.2182 78.3696 80.7361 77.8875 80.7361 77.2928C80.7361 76.6982 81.2182 76.2161 81.8129 76.2161C82.4076 76.2161 82.8897 76.6982 82.8897 77.2928Z" fill="#087332"/>
<path d="M79.1244 77.7164C79.1244 78.0772 78.8319 78.3696 78.4712 78.3696C78.1104 78.3696 77.818 78.0772 77.818 77.7164C77.818 77.3557 78.1104 77.0632 78.4712 77.0632C78.8319 77.0632 79.1244 77.3557 79.1244 77.7164Z" fill="#087332"/>
<path d="M69.4172 81.6647C69.4172 82.0254 69.1248 82.3179 68.764 82.3179C68.4033 82.3179 68.1108 82.0254 68.1108 81.6647C68.1108 81.3039 68.4033 81.0115 68.764 81.0115C69.1248 81.0115 69.4172 81.3039 69.4172 81.6647Z" fill="#087332"/>
<path d="M74.7922 78.3696C74.7922 78.7304 74.4998 79.0228 74.139 79.0228C73.7783 79.0228 73.4858 78.7304 73.4858 78.3696C73.4858 78.0089 73.7783 77.7164 74.139 77.7164C74.4998 77.7164 74.7922 78.0089 74.7922 78.3696Z" fill="#087332"/>
<path d="M77.3679 81.0115C77.3679 81.6062 76.8858 82.0883 76.2911 82.0883C75.6964 82.0883 75.2143 81.6062 75.2143 81.0115C75.2143 80.4168 75.6964 79.9347 76.2911 79.9347C76.8858 79.9347 77.3679 80.4168 77.3679 81.0115Z" fill="#087332"/>
<path d="M77.6736 74.8001C77.6736 75.3947 77.1915 75.8768 76.5968 75.8768C76.0021 75.8768 75.52 75.3947 75.52 74.8001C75.52 74.2054 76.0021 73.7233 76.5968 73.7233C77.1915 73.7233 77.6736 74.2054 77.6736 74.8001Z" fill="#087332"/>
<path d="M73.1234 80.7324C73.1234 81.1784 72.7618 81.54 72.3158 81.54C71.8697 81.54 71.5082 81.1784 71.5082 80.7324C71.5082 80.2864 71.8697 79.9248 72.3158 79.9248C72.7618 79.9248 73.1234 80.2864 73.1234 80.7324Z" fill="#087332"/>
<path d="M30.513 60.0399C30.513 60.4805 30.8701 60.8376 31.3106 60.8376C31.7511 60.8376 32.1082 60.4805 32.1082 60.0399C32.1082 59.5994 31.7511 59.2423 31.3106 59.2423C30.8701 59.2423 30.513 59.5994 30.513 60.0399Z" fill="#1FBC5E"/>
<path d="M31.3306 80.7423C31.3306 81.1829 31.6877 81.54 32.1282 81.54C32.5687 81.54 32.9258 81.1829 32.9258 80.7423C32.9258 80.3018 32.5687 79.9447 32.1282 79.9447C31.6877 79.9447 31.3306 80.3018 31.3306 80.7423Z" fill="#1FBC5E"/>
<path d="M29.9746 68.2993C29.9746 68.894 30.4567 69.3761 31.0514 69.3761C31.6461 69.3761 32.1282 68.894 32.1282 68.2993C32.1282 67.7046 31.6461 67.2225 31.0514 67.2225C30.4567 67.2225 29.9746 67.7046 29.9746 68.2993Z" fill="#1FBC5E"/>
<path d="M30.513 64.7999C30.513 65.2459 30.8746 65.6075 31.3206 65.6075C31.7666 65.6075 32.1282 65.2459 32.1282 64.7999C32.1282 64.3539 31.7666 63.9923 31.3206 63.9923C30.8746 63.9923 30.513 64.3539 30.513 64.7999Z" fill="#1FBC5E"/>
<path d="M28.9858 73.125C28.9858 74.05 29.7357 74.8 30.6608 74.8C31.5859 74.8 32.3358 74.05 32.3358 73.125C32.3358 72.1999 31.5859 71.45 30.6608 71.45C29.7357 71.45 28.9858 72.1999 28.9858 73.125Z" fill="#1FBC5E"/>
<path d="M33.3494 70.5717C33.3494 71.0568 33.7426 71.45 34.2277 71.45C34.7127 71.45 35.1059 71.0568 35.1059 70.5717C35.1059 70.0867 34.7127 69.6935 34.2277 69.6935C33.7426 69.6935 33.3494 70.0867 33.3494 70.5717Z" fill="#1FBC5E"/>
<path d="M29.5841 77.2928C29.5841 77.8875 30.0662 78.3696 30.6609 78.3696C31.2555 78.3696 31.7376 77.8875 31.7376 77.2928C31.7376 76.6982 31.2555 76.2161 30.6609 76.2161C30.0662 76.2161 29.5841 76.6982 29.5841 77.2928Z" fill="#1FBC5E"/>
<path d="M33.3494 77.7164C33.3494 78.0772 33.6418 78.3696 34.0026 78.3696C34.3633 78.3696 34.6558 78.0772 34.6558 77.7164C34.6558 77.3557 34.3633 77.0632 34.0026 77.0632C33.6418 77.0632 33.3494 77.3557 33.3494 77.7164Z" fill="#1FBC5E"/>
<path d="M43.0565 81.6647C43.0565 82.0254 43.349 82.3179 43.7097 82.3179C44.0705 82.3179 44.3629 82.0254 44.3629 81.6647C44.3629 81.3039 44.0705 81.0115 43.7097 81.0115C43.349 81.0115 43.0565 81.3039 43.0565 81.6647Z" fill="#1FBC5E"/>
<path d="M37.6815 78.3696C37.6815 78.7304 37.974 79.0228 38.3347 79.0228C38.6955 79.0228 38.9879 78.7304 38.9879 78.3696C38.9879 78.0089 38.6955 77.7164 38.3347 77.7164C37.974 77.7164 37.6815 78.0089 37.6815 78.3696Z" fill="#1FBC5E"/>
<path d="M35.1059 81.0115C35.1059 81.6062 35.588 82.0883 36.1827 82.0883C36.7774 82.0883 37.2595 81.6062 37.2595 81.0115C37.2595 80.4168 36.7774 79.9347 36.1827 79.9347C35.588 79.9347 35.1059 80.4168 35.1059 81.0115Z" fill="#1FBC5E"/>
<path d="M34.8002 74.8001C34.8002 75.3947 35.2823 75.8768 35.8769 75.8768C36.4716 75.8768 36.9537 75.3947 36.9537 74.8001C36.9537 74.2054 36.4716 73.7233 35.8769 73.7233C35.2823 73.7233 34.8002 74.2054 34.8002 74.8001Z" fill="#1FBC5E"/>
<path d="M39.3504 80.7324C39.3504 81.1784 39.712 81.54 40.158 81.54C40.604 81.54 40.9656 81.1784 40.9656 80.7324C40.9656 80.2864 40.604 79.9248 40.158 79.9248C39.712 79.9248 39.3504 80.2864 39.3504 80.7324Z" fill="#1FBC5E"/>
<path fill-rule="evenodd" clip-rule="evenodd" d="M57.2215 59.8318C59.0006 59.8318 60.4428 58.3896 60.4428 56.6106C60.4428 54.8315 59.0006 53.3893 57.2215 53.3893C55.4424 53.3893 54.0002 54.8315 54.0002 56.6106C54.0002 58.3896 55.4424 59.8318 57.2215 59.8318ZM57.2215 61.8318C60.1051 61.8318 62.4428 59.4942 62.4428 56.6106C62.4428 53.7269 60.1051 51.3893 57.2215 51.3893C54.3379 51.3893 52.0002 53.7269 52.0002 56.6106C52.0002 59.4942 54.3379 61.8318 57.2215 61.8318Z" fill="#F6C74E"/>
<path fill-rule="evenodd" clip-rule="evenodd" d="M70.5897 64.3363C70.3132 64.8144 69.7015 64.9778 69.2234 64.7013L43.794 49.9964C43.3159 49.7199 43.1524 49.1082 43.4289 48.6301C43.7054 48.152 44.3171 47.9885 44.7952 48.265L70.2246 62.97C70.7027 63.2465 70.8661 63.8582 70.5897 64.3363Z" fill="#F6C74E"/>
<path fill-rule="evenodd" clip-rule="evenodd" d="M56.5384 65.8976C56.8595 65.7056 57.261 65.7089 57.5789 65.9061L62.1634 68.7502C62.6327 69.0414 62.7771 69.6578 62.486 70.1271C62.1949 70.5964 61.5784 70.7409 61.1091 70.4497L57.0422 67.9267L53.2351 70.2035C52.7611 70.487 52.1471 70.3325 51.8636 69.8585C51.5802 69.3845 51.7346 68.7705 52.2086 68.487L56.5384 65.8976Z" fill="#F6C74E"/>
<path fill-rule="evenodd" clip-rule="evenodd" d="M42.8706 58.7952C43.1176 58.3012 43.7183 58.101 44.2122 58.348L48.7968 60.6402C49.1356 60.8096 49.3496 61.1559 49.3496 61.5347V66.9682C49.3496 67.5205 48.9018 67.9682 48.3496 67.9682C47.7973 67.9682 47.3496 67.5205 47.3496 66.9682V62.1527L43.3178 60.1368C42.8238 59.8898 42.6236 59.2892 42.8706 58.7952Z" fill="#F6C74E"/>
<path fill-rule="evenodd" clip-rule="evenodd" d="M48.6725 45.6373C49.2235 45.6749 49.6396 46.1521 49.6019 46.7031L49.2623 51.6697C49.2407 51.9867 49.0696 52.2746 48.8015 52.4452L44.599 55.1195C44.1331 55.416 43.515 55.2786 43.2185 54.8127C42.922 54.3468 43.0594 53.7287 43.5253 53.4322L47.3015 51.0291L47.6066 46.5667C47.6443 46.0157 48.1215 45.5996 48.6725 45.6373Z" fill="#F6C74E"/>
<path fill-rule="evenodd" clip-rule="evenodd" d="M51.7163 43.6661C52.0197 43.2046 52.6397 43.0763 53.1012 43.3796L57.0343 45.9642L60.8258 43.6967C61.2998 43.4132 61.9139 43.5677 62.1973 44.0417C62.4808 44.5156 62.3263 45.1297 61.8523 45.4132L57.5225 48.0026C57.1933 48.1994 56.7806 48.1907 56.4601 47.98L52.0029 45.051C51.5413 44.7477 51.413 44.1277 51.7163 43.6661Z" fill="#F6C74E"/>
<path fill-rule="evenodd" clip-rule="evenodd" d="M65.9236 45.6349C66.4759 45.6349 66.9236 46.0826 66.9236 46.6349V50.7913L70.6121 53.0872C71.081 53.3791 71.2245 53.9958 70.9326 54.4646C70.6408 54.9335 70.0241 55.077 69.5552 54.7852L65.3952 52.1957C65.1019 52.0132 64.9236 51.6922 64.9236 51.3468V46.6349C64.9236 46.0826 65.3713 45.6349 65.9236 45.6349Z" fill="#F6C74E"/>
<path fill-rule="evenodd" clip-rule="evenodd" d="M71.4252 58.9286C71.6454 59.435 71.4134 60.0241 70.9069 60.2444L66.6518 62.0944L66.838 66.9725C66.8591 67.5244 66.4287 67.9888 65.8769 68.0099C65.325 68.031 64.8605 67.6006 64.8394 67.0488L64.6272 61.4879C64.6115 61.0762 64.8499 60.697 65.2277 60.5327L70.1094 58.4102C70.6159 58.19 71.205 58.4221 71.4252 58.9286Z" fill="#F6C74E"/>
<path fill-rule="evenodd" clip-rule="evenodd" d="M70.5153 48.5029C70.7963 48.9784 70.6386 49.5916 70.1631 49.8726L44.873 64.8158C44.3975 65.0968 43.7843 64.9391 43.5033 64.4636C43.2224 63.9881 43.3801 63.3749 43.8556 63.094L69.1457 48.1507C69.6211 47.8697 70.2343 48.0274 70.5153 48.5029Z" fill="#F6C74E"/>
<path fill-rule="evenodd" clip-rule="evenodd" d="M57.0092 40.7957C57.5615 40.7957 58.0092 41.2434 58.0092 41.7957V71.1707C58.0092 71.7229 57.5615 72.1707 57.0092 72.1707C56.457 72.1707 56.0092 71.7229 56.0092 71.1707V41.7957C56.0092 41.2434 56.457 40.7957 57.0092 40.7957Z" fill="#F6C74E"/>
</svg>
