<svg width="96" height="96" viewBox="0 0 96 96" fill="none" xmlns="http://www.w3.org/2000/svg">
<path d="M50.9823 22.6292C50.9823 27.9645 46.6572 32.2896 41.3219 32.2896C35.9866 32.2896 31.6615 27.9645 31.6615 22.6292C31.6615 17.294 35.9866 12.9689 41.3219 12.9689C46.6572 12.9689 50.9823 17.294 50.9823 22.6292Z" fill="#D6FDFF"/>
<path fill-rule="evenodd" clip-rule="evenodd" d="M52.9823 22.6292C52.9823 29.0691 47.7617 34.2896 41.3219 34.2896C34.882 34.2896 29.6615 29.0691 29.6615 22.6292C29.6615 16.1894 34.882 10.9689 41.3219 10.9689C47.7617 10.9689 52.9823 16.1894 52.9823 22.6292ZM41.3219 32.2896C46.6572 32.2896 50.9823 27.9645 50.9823 22.6292C50.9823 17.294 46.6572 12.9689 41.3219 12.9689C35.9866 12.9689 31.6615 17.294 31.6615 22.6292C31.6615 27.9645 35.9866 32.2896 41.3219 32.2896Z" fill="#32CDD5"/>
<path fill-rule="evenodd" clip-rule="evenodd" d="M42.8376 32.1714C47.4528 31.4441 50.9823 27.4488 50.9823 22.6292C50.9823 17.294 46.6572 12.9689 41.3219 12.9689C39.6906 12.9689 38.1538 13.3732 36.8062 14.0871C37.3 14.0093 37.8062 13.9689 38.3219 13.9689C43.6572 13.9689 47.9823 18.294 47.9823 23.6292C47.9823 27.3333 45.8976 30.5504 42.8376 32.1714Z" fill="#C2EDF0"/>
<path d="M38.0306 18.2501C38.0306 19.1648 37.2891 19.9064 36.3744 19.9064C35.4597 19.9064 34.7181 19.1648 34.7181 18.2501C34.7181 17.3354 35.4597 16.5939 36.3744 16.5939C37.2891 16.5939 38.0306 17.3354 38.0306 18.2501Z" fill="white"/>
<path d="M50.7371 25.6479C69.5748 29.5121 76.2968 54.2265 77.3031 66.1008L21.1522 68.5159C23.1647 52.6165 31.8993 21.7838 50.7371 25.6479Z" fill="#3AAAFB"/>
<path fill-rule="evenodd" clip-rule="evenodd" d="M79.472 68.0094L79.296 65.9319C78.776 59.7959 76.7913 50.3854 72.488 41.9608C68.192 33.5506 61.4025 25.7941 51.1389 23.6888C45.8061 22.5949 41.1577 23.9818 37.2588 26.8737C33.4215 29.72 30.3289 34.0008 27.8607 38.748C22.9235 48.2437 20.1914 60.1799 19.168 68.2647L18.8704 70.6159L79.472 68.0094ZM77.3031 66.1008L21.1522 68.5159C21.2341 67.8683 21.3273 67.1959 21.4318 66.502C23.8931 50.1623 32.6666 21.9412 50.7371 25.648C68.5756 29.3072 75.5496 51.6634 77.0938 64.108C77.1803 64.805 77.2497 65.471 77.3031 66.1008Z" fill="#0B6BB2"/>
<path fill-rule="evenodd" clip-rule="evenodd" d="M40.551 30.3754C41.0859 31.008 41.0068 31.9544 40.3742 32.4893C37.7494 34.7088 31.6701 41.8563 29.3039 51.9972C29.1157 52.804 28.3091 53.3054 27.5023 53.1172C26.6955 52.9289 26.1941 52.1223 26.3824 51.3156C28.9162 40.4565 35.3952 32.7707 38.4371 30.1985C39.0697 29.6636 40.0161 29.7428 40.551 30.3754Z" fill="#6ED3FF"/>
<path fill-rule="evenodd" clip-rule="evenodd" d="M21.8016 64.2341C21.5366 65.7467 21.3208 67.1837 21.1521 68.5159L49.171 67.3107L21.8016 64.2341ZM66.1235 66.5816L77.3031 66.1008C76.2968 54.2265 69.5748 29.5121 50.737 25.6479C49.2835 25.3498 47.8901 25.2582 46.5553 25.3504C62.863 31.8991 66.3833 54.0593 66.1235 66.5816Z" fill="#2697E9"/>
<path fill-rule="evenodd" clip-rule="evenodd" d="M50.5687 36.3181C50.8591 36.7878 50.7137 37.4041 50.244 37.6945C47.6378 39.3056 44.5256 42.4701 41.6528 45.8592C38.7999 49.2249 36.2599 52.7193 34.799 54.9004C34.4916 55.3593 33.8705 55.4821 33.4116 55.1747C32.9528 54.8674 32.8299 54.2462 33.1373 53.7874C34.6347 51.5518 37.2197 47.9962 40.1272 44.566C43.0149 41.1593 46.2985 37.7822 49.1923 35.9933C49.6621 35.7029 50.2783 35.8483 50.5687 36.3181Z" fill="#198FE5"/>
<path fill-rule="evenodd" clip-rule="evenodd" d="M59.4437 40.8181C59.7341 41.2878 59.5887 41.9041 59.119 42.1945C56.5144 43.8046 53.9796 46.4388 51.701 49.2763C49.5385 51.9691 47.6572 54.7796 46.201 56.9551C46.1284 57.0634 46.0569 57.1703 45.9865 57.2754C45.6791 57.7343 45.058 57.8571 44.5991 57.5497C44.1403 57.2424 44.0174 56.6212 44.3248 56.1624C44.3977 56.0535 44.4719 55.9426 44.5474 55.8299C45.9986 53.6617 47.923 50.7866 50.1416 48.024C52.4671 45.1281 55.1719 42.2832 58.0673 40.4933C58.5371 40.2029 59.1533 40.3483 59.4437 40.8181Z" fill="#198FE5"/>
<path fill-rule="evenodd" clip-rule="evenodd" d="M28.844 46.802C28.8671 46.2502 29.3332 45.8217 29.885 45.8448C34.0364 46.0186 40.4762 47.8453 46.5039 50.1999C50.3183 51.69 54.0616 53.428 57.0282 55.1571C57.7403 54.0962 58.4003 53.1706 59.1731 52.2992C60.5003 50.8024 62.1454 49.4723 64.9423 47.7433C65.4121 47.4529 66.0283 47.5983 66.3187 48.0681C66.6091 48.5378 66.4637 49.1541 65.994 49.4445C63.2909 51.1155 61.8214 52.327 60.6695 53.6261C59.9801 54.4035 59.3989 55.2155 58.733 56.2068C59.7166 56.8501 60.5708 57.4847 61.2583 58.0972C61.6707 58.4646 61.7072 59.0967 61.3398 59.5091C60.9724 59.9215 60.3403 59.9579 59.9279 59.5905C59.3139 59.0435 58.5366 58.4665 57.6287 57.8733C57.4645 58.1213 57.2926 58.3799 57.1115 58.6504C56.8041 59.1093 56.183 59.2321 55.7241 58.9247C55.2653 58.6174 55.1424 57.9962 55.4498 57.5374C55.6129 57.2939 55.77 57.0574 55.9224 56.8271C53.1267 55.2082 49.5377 53.5322 45.7762 52.0628C39.7934 49.7258 33.6083 48.0025 29.8013 47.843C29.2495 47.8199 28.8209 47.3538 28.844 46.802Z" fill="#198FE5"/>
<path fill-rule="evenodd" clip-rule="evenodd" d="M36.5323 38.2415C36.7269 37.7247 37.3037 37.4634 37.8205 37.658C44.5689 40.1991 60.1696 46.825 68.198 52.9225C68.6378 53.2566 68.7235 53.8839 68.3895 54.3237C68.0555 54.7635 67.4281 54.8493 66.9883 54.5153C59.2167 48.6128 43.8674 42.072 37.1158 39.5298C36.5989 39.3351 36.3377 38.7584 36.5323 38.2415Z" fill="#198FE5"/>
<path fill-rule="evenodd" clip-rule="evenodd" d="M45.2957 33.0828C45.509 32.5733 46.0948 32.3332 46.6043 32.5464C49.3133 33.6805 53.5123 35.5878 57.3193 37.6316C59.2219 38.653 61.0436 39.7176 62.5381 40.7448C64.001 41.7502 65.2608 42.7926 65.9252 43.7892C66.2315 44.2487 66.1074 44.8696 65.6478 45.1759C65.1883 45.4823 64.5674 45.3581 64.2611 44.8986C63.8255 44.2452 62.8478 43.3845 61.4052 42.393C59.9942 41.4233 58.2425 40.3973 56.3733 39.3937C52.6364 37.3875 48.498 35.5073 45.832 34.3913C45.3226 34.1781 45.0824 33.5922 45.2957 33.0828Z" fill="#198FE5"/>
<path d="M14.7181 70.9312C14.7181 67.5966 17.4213 64.8934 20.7559 64.8934H78.7181C82.0527 64.8934 84.7559 67.5966 84.7559 70.9312C84.7559 74.2657 82.0527 76.9689 78.7181 76.9689H20.7559C17.4213 76.9689 14.7181 74.2657 14.7181 70.9312Z" fill="#FF5E8E"/>
<path fill-rule="evenodd" clip-rule="evenodd" d="M20.7559 62.8934H78.7181C83.1573 62.8934 86.7559 66.4921 86.7559 70.9312C86.7559 75.3703 83.1573 78.9689 78.7181 78.9689H20.7559C16.3167 78.9689 12.7181 75.3703 12.7181 70.9312C12.7181 66.4921 16.3168 62.8934 20.7559 62.8934ZM20.7559 64.8934C17.4213 64.8934 14.7181 67.5966 14.7181 70.9312C14.7181 74.2657 17.4213 76.9689 20.7559 76.9689H78.7181C82.0527 76.9689 84.7559 74.2657 84.7559 70.9312C84.7559 67.5966 82.0527 64.8934 78.7181 64.8934H20.7559Z" fill="#B91E4C"/>
<path fill-rule="evenodd" clip-rule="evenodd" d="M18.9681 74.7189C18.9681 73.8904 19.6397 73.2189 20.4681 73.2189H78.0931C78.9216 73.2189 79.5931 73.8904 79.5931 74.7189C79.5931 75.5473 78.9216 76.2189 78.0931 76.2189H20.4681C19.6397 76.2189 18.9681 75.5473 18.9681 74.7189Z" fill="#E34172"/>
<path fill-rule="evenodd" clip-rule="evenodd" d="M45.1556 66.1564C45.9841 66.1564 46.6556 66.8279 46.6556 67.6564V74.2189C46.6556 75.0473 45.9841 75.7189 45.1556 75.7189C44.3272 75.7189 43.6556 75.0473 43.6556 74.2189V67.6564C43.6556 66.8279 44.3272 66.1564 45.1556 66.1564Z" fill="#FF97B6"/>
<path fill-rule="evenodd" clip-rule="evenodd" d="M37.8431 66.1564C38.6716 66.1564 39.3431 66.8279 39.3431 67.6564V74.2189C39.3431 75.0473 38.6716 75.7189 37.8431 75.7189C37.0147 75.7189 36.3431 75.0473 36.3431 74.2189V67.6564C36.3431 66.8279 37.0147 66.1564 37.8431 66.1564Z" fill="#FF97B6"/>
<path fill-rule="evenodd" clip-rule="evenodd" d="M30.2181 66.1564C31.0466 66.1564 31.7181 66.8279 31.7181 67.6564V74.2189C31.7181 75.0473 31.0466 75.7189 30.2181 75.7189C29.3897 75.7189 28.7181 75.0473 28.7181 74.2189V67.6564C28.7181 66.8279 29.3897 66.1564 30.2181 66.1564Z" fill="#FF97B6"/>
<path fill-rule="evenodd" clip-rule="evenodd" d="M24.2806 66.4689C25.1091 66.4689 25.7806 67.1404 25.7806 67.9689V74.5314C25.7806 75.3598 25.1091 76.0314 24.2806 76.0314C23.4522 76.0314 22.7806 75.3598 22.7806 74.5314V67.9689C22.7806 67.1404 23.4522 66.4689 24.2806 66.4689Z" fill="#FF97B6"/>
<path fill-rule="evenodd" clip-rule="evenodd" d="M19.1556 67.4689C19.9841 67.4689 20.6556 68.1404 20.6556 68.9689V72.5314C20.6556 73.3598 19.9841 74.0314 19.1556 74.0314C18.3272 74.0314 17.6556 73.3598 17.6556 72.5314V68.9689C17.6556 68.1404 18.3272 67.4689 19.1556 67.4689Z" fill="#FF97B6"/>
<path fill-rule="evenodd" clip-rule="evenodd" d="M51.9681 66.1564C52.7966 66.1564 53.4681 66.8279 53.4681 67.6564V74.2189C53.4681 75.0473 52.7966 75.7189 51.9681 75.7189C51.1397 75.7189 50.4681 75.0473 50.4681 74.2189V67.6564C50.4681 66.8279 51.1397 66.1564 51.9681 66.1564Z" fill="#FF97B6"/>
<path fill-rule="evenodd" clip-rule="evenodd" d="M59.7181 66.15C60.5466 66.15 61.2181 66.8216 61.2181 67.65V74.2125C61.2181 75.041 60.5466 75.7125 59.7181 75.7125C58.8897 75.7125 58.2181 75.041 58.2181 74.2125V67.65C58.2181 66.8216 58.8897 66.15 59.7181 66.15Z" fill="#FF97B6"/>
<path fill-rule="evenodd" clip-rule="evenodd" d="M66.1556 66.15C66.9841 66.15 67.6556 66.8216 67.6556 67.65V74.2125C67.6556 75.041 66.9841 75.7125 66.1556 75.7125C65.3272 75.7125 64.6556 75.041 64.6556 74.2125V67.65C64.6556 66.8216 65.3272 66.15 66.1556 66.15Z" fill="#FF97B6"/>
<path fill-rule="evenodd" clip-rule="evenodd" d="M73.8431 66.1564C74.6716 66.1564 75.3431 66.8279 75.3431 67.6564V74.2189C75.3431 75.0473 74.6716 75.7189 73.8431 75.7189C73.0147 75.7189 72.3431 75.0473 72.3431 74.2189V67.6564C72.3431 66.8279 73.0147 66.1564 73.8431 66.1564Z" fill="#FF97B6"/>
<path fill-rule="evenodd" clip-rule="evenodd" d="M79.9681 66.6564C80.7966 66.6564 81.4681 67.3279 81.4681 68.1564V72.7189C81.4681 73.5473 80.7966 74.2189 79.9681 74.2189C79.1397 74.2189 78.4681 73.5473 78.4681 72.7189V68.1564C78.4681 67.3279 79.1397 66.6564 79.9681 66.6564Z" fill="#FF97B6"/>
</svg>
