<svg width="96" height="96" viewBox="0 0 96 96" fill="none" xmlns="http://www.w3.org/2000/svg">
<path d="M14.4996 40.125C16.5692 47.3067 25.4996 57.5 31.1246 61.75C37.6398 60.5307 50.0263 57.3794 46.9464 51.3995C43.8665 45.4196 45.6631 38.8354 46.9464 36.2908C49.0688 34.0112 52.0401 28.9432 46.9464 26.9075C41.8527 24.8718 39.4935 30.0883 38.9505 32.951C33.4718 21.6592 25.3279 16.2519 19.405 20.705C13.4821 25.1581 11.8422 30.9034 14.4996 40.125Z" fill="#EA382D"/>
<path fill-rule="evenodd" clip-rule="evenodd" d="M30.624 63.8784L31.4925 63.7158C34.7777 63.101 39.7212 61.9713 43.4971 60.1639C45.36 59.2723 47.189 58.1012 48.3141 56.5348C48.8981 55.7218 49.3178 54.7663 49.4107 53.682C49.5042 52.5924 49.2555 51.5148 48.7244 50.4837C46.1348 45.4557 47.5118 39.802 48.62 37.423C49.7623 36.1388 51.162 34.0961 51.6114 31.9104C51.859 30.7064 51.8439 29.3201 51.1771 28.0065C50.5017 26.6759 49.2964 25.6928 47.6886 25.0503C46.077 24.4062 44.5355 24.2847 43.1182 24.6555C41.7181 25.0218 40.6115 25.8232 39.7698 26.7385C39.3455 27.1999 38.9749 27.7043 38.6533 28.227C36.2208 24.244 33.3985 21.1365 30.4195 19.2372C26.4638 16.7153 22.0091 16.2448 18.2031 19.1064C14.9635 21.542 12.7547 24.4491 11.7991 28.1233C10.8569 31.7459 11.1949 35.8798 12.5778 40.6788C13.7247 44.6587 16.6781 49.2535 19.9195 53.2892C23.188 57.3588 26.9422 61.0966 29.9189 63.3457L30.624 63.8784ZM37.6053 30.3882C32.1996 20.8667 24.8602 16.6035 19.405 20.705C13.4821 25.1581 11.8422 30.9033 14.4996 40.125C16.5691 47.3066 25.4996 57.5 31.1246 61.75C37.6398 60.5306 50.0263 57.3794 46.9464 51.3995C43.8665 45.4196 45.6631 38.8354 46.9464 36.2907C49.0688 34.0112 52.0401 28.9431 46.9464 26.9074C43.2474 25.4291 40.9904 27.7753 39.8238 30.2673C39.384 31.2069 39.0992 32.1672 38.9505 32.951C38.5179 32.0594 38.0687 31.2045 37.6053 30.3882Z" fill="#840808"/>
<path fill-rule="evenodd" clip-rule="evenodd" d="M33.3195 61.3068C40.0447 59.8459 49.7066 56.7586 46.9464 51.3995C43.8665 45.4196 45.6631 38.8354 46.9464 36.2908C49.0688 34.0112 52.0401 28.9432 46.9464 26.9075C44.744 26.0273 43.0528 26.5029 41.7986 27.5578C42.1647 27.6329 42.5472 27.7479 42.9464 27.9075C48.0401 29.9432 45.0688 35.0112 42.9464 37.2908C41.6631 39.8354 39.8665 46.4196 42.9464 52.3995C45.188 56.7517 39.237 59.6056 33.3195 61.3068ZM37.0046 29.3647C31.9415 21.0213 25.381 17.1614 20.2343 20.1536C25.2681 20.3554 30.8543 25.5085 34.9505 33.951C35.2049 32.6096 35.8581 30.7514 37.0046 29.3647Z" fill="#CA2D23"/>
<path d="M52.7488 58.1733C54.2419 56.7306 54.4145 54.3319 53.0185 52.8691C52.5625 52.3914 52.0871 51.9334 51.6407 51.5759C50.9684 51.0374 50.035 50.4647 49.2648 50.0242C48.404 49.5319 47.3512 49.6008 46.4959 50.1557L30.4269 60.5819C29.2855 61.3225 28.7303 62.7724 29.159 64.0824C29.4258 64.8976 29.7474 65.7882 30.076 66.4826C30.3344 67.0287 30.6867 67.6429 31.0463 68.2255C31.9323 69.6614 33.6516 70.1818 35.201 69.5584C37.8488 68.4929 41.9551 66.7122 44.7471 64.8918C47.4162 63.1514 50.5794 60.2694 52.7488 58.1733Z" fill="#BDEAE6"/>
<path fill-rule="evenodd" clip-rule="evenodd" d="M45.5158 48.4113L29.4468 58.8375C27.5639 60.0592 26.5719 62.5142 27.3215 64.8049C27.5966 65.6454 27.95 66.6334 28.3341 67.4452C28.6386 68.0887 29.0346 68.7745 29.4108 69.3842C30.8101 71.6517 33.4943 72.4234 35.8451 71.4775C38.4959 70.4109 42.7611 68.5701 45.7309 66.6337C48.5753 64.7791 51.859 61.7765 54.0356 59.6734C56.2895 57.4956 56.6461 53.7357 54.405 51.3875C53.9195 50.8789 53.379 50.3543 52.841 49.9234C52.0497 49.2896 51.0117 48.6584 50.226 48.209C48.7237 47.3498 46.9303 47.4935 45.5158 48.4113ZM53.0185 52.8691C54.4145 54.3318 54.2419 56.7305 52.7488 58.1732C50.5794 60.2694 47.4162 63.1514 44.7471 64.8917C41.9551 66.7122 37.8488 68.4929 35.201 69.5583C33.6516 70.1817 31.9323 69.6614 31.0463 68.2255C30.6867 67.6428 30.3344 67.0287 30.076 66.4826C29.7474 65.7881 29.4258 64.8976 29.159 64.0824C28.7303 62.7724 29.2855 61.3224 30.4269 60.5819L46.4959 50.1557C47.3512 49.6007 48.404 49.5318 49.2648 50.0242C50.035 50.4647 50.9684 51.0373 51.6407 51.5758C52.0871 51.9334 52.5625 52.3913 53.0185 52.8691Z" fill="#68C5BD"/>
<path d="M50.985 56.564C51.3242 56.767 51.4345 57.2066 51.2315 57.5457C51.0285 57.8849 50.589 57.9953 50.2498 57.7923C49.9106 57.5893 49.8003 57.1497 50.0033 56.8106C50.2063 56.4714 50.6458 56.361 50.985 56.564Z" fill="#B2E8E4"/>
<path d="M49.1216 54.8578C49.4607 55.0609 49.5711 55.5004 49.3681 55.8396C49.1651 56.1787 48.7256 56.2891 48.3864 56.0861C48.0472 55.8831 47.9368 55.4436 48.1398 55.1044C48.3429 54.7652 48.7824 54.6548 49.1216 54.8578Z" fill="#B2E8E4"/>
<path d="M50.8857 53.7936C51.1058 53.9253 51.1774 54.2105 51.0457 54.4306C50.9139 54.6507 50.6287 54.7223 50.4087 54.5906C50.1886 54.4588 50.117 54.1736 50.2487 53.9536C50.3804 53.7335 50.6656 53.6619 50.8857 53.7936Z" fill="#B2E8E4"/>
<path d="M47.3696 59.8171C47.7088 60.0201 47.8192 60.4596 47.6161 60.7988C47.4131 61.138 46.9736 61.2483 46.6344 61.0453C46.2952 60.8423 46.1849 60.4028 46.3879 60.0636C46.5909 59.7244 47.0304 59.6141 47.3696 59.8171Z" fill="#B2E8E4"/>
<path d="M44.5274 58.4684C44.8666 58.6715 44.9769 59.111 44.7739 59.4502C44.5709 59.7893 44.1314 59.8997 43.7922 59.6967C43.453 59.4937 43.3426 59.0541 43.5457 58.715C43.7487 58.3758 44.1882 58.2654 44.5274 58.4684Z" fill="#B2E8E4"/>
<path d="M41.7092 63.1767C42.0484 63.3797 42.1587 63.8192 41.9557 64.1584C41.7527 64.4976 41.3132 64.608 40.974 64.4049C40.6348 64.2019 40.5244 63.7624 40.7275 63.4232C40.9305 63.084 41.37 62.9737 41.7092 63.1767Z" fill="#B2E8E4"/>
<path d="M45.0002 61.1045C45.4949 61.4005 45.6558 62.0415 45.3598 62.5362C45.0637 63.0308 44.4227 63.1918 43.9281 62.8957C43.4334 62.5996 43.2725 61.9586 43.5685 61.464C43.8646 60.9694 44.5056 60.8084 45.0002 61.1045Z" fill="#B2E8E4"/>
<path d="M47.8656 56.9562C48.3602 57.2522 48.5212 57.8932 48.2251 58.3878C47.9291 58.8825 47.2881 59.0434 46.7935 58.7474C46.2988 58.4513 46.1379 57.8103 46.4339 57.3157C46.73 56.8211 47.371 56.6601 47.8656 56.9562Z" fill="#B2E8E4"/>
<path d="M29.5077 51.3917C29.5077 51.9256 29.0995 52.3583 28.5959 52.3583C28.0924 52.3583 27.6842 51.9256 27.6842 51.3917C27.6842 50.8578 28.0924 50.425 28.5959 50.425C29.0995 50.425 29.5077 50.8578 29.5077 51.3917Z" fill="#C42218"/>
<path d="M34.1965 52.3583C34.1965 52.8921 33.7883 53.3249 33.2848 53.3249C32.7812 53.3249 32.373 52.8921 32.373 52.3583C32.373 51.8244 32.7812 51.3916 33.2848 51.3916C33.7883 51.3916 34.1965 51.8244 34.1965 52.3583Z" fill="#C42218"/>
<path d="M34.6058 49.4583C34.6058 49.9922 34.1976 50.425 33.6941 50.425C33.1905 50.425 32.7823 49.9922 32.7823 49.4583C32.7823 48.9245 33.1905 48.4917 33.6941 48.4917C34.1976 48.4917 34.6058 48.9245 34.6058 49.4583Z" fill="#C42218"/>
<path d="M31.4612 49.1888C31.4612 49.5755 31.1655 49.8891 30.8007 49.8891C30.436 49.8891 30.1403 49.5755 30.1403 49.1888C30.1403 48.802 30.436 48.4885 30.8007 48.4885C31.1655 48.4885 31.4612 48.802 31.4612 49.1888Z" fill="#C42218"/>
<path d="M37.198 51.1253C37.198 51.5121 36.9023 51.8256 36.5376 51.8256C36.1728 51.8256 35.8771 51.5121 35.8771 51.1253C35.8771 50.7386 36.1728 50.425 36.5376 50.425C36.9023 50.425 37.198 50.7386 37.198 51.1253Z" fill="#C42218"/>
<path d="M37.198 48.4886C37.198 48.8754 36.9023 49.1889 36.5376 49.1889C36.1728 49.1889 35.8771 48.8754 35.8771 48.4886C35.8771 48.1019 36.1728 47.7883 36.5376 47.7883C36.9023 47.7883 37.198 48.1019 37.198 48.4886Z" fill="#C42218"/>
<path d="M39.9844 49.4583C39.9844 49.7426 39.7669 49.9732 39.4987 49.9732C39.2305 49.9732 39.0131 49.7426 39.0131 49.4583C39.0131 49.1739 39.2305 48.9434 39.4987 48.9434C39.7669 48.9434 39.9844 49.1739 39.9844 49.4583Z" fill="#C42218"/>
<path d="M38.6719 46.7246C38.6719 47.009 38.4544 47.2395 38.1862 47.2395C37.918 47.2395 37.7006 47.009 37.7006 46.7246C37.7006 46.4402 37.918 46.2097 38.1862 46.2097C38.4544 46.2097 38.6719 46.4402 38.6719 46.7246Z" fill="#C42218"/>
<path d="M31.2864 52.8101C31.2864 53.0944 31.0689 53.325 30.8007 53.325C30.5325 53.325 30.3151 53.0944 30.3151 52.8101C30.3151 52.5257 30.5325 52.2952 30.8007 52.2952C31.0689 52.2952 31.2864 52.5257 31.2864 52.8101Z" fill="#C42218"/>
<path d="M27.5334 54.957C27.5334 55.2414 27.316 55.472 27.0478 55.472C26.7796 55.472 26.5621 55.2414 26.5621 54.957C26.5621 54.6727 26.7796 54.4421 27.0478 54.4421C27.316 54.4421 27.5334 54.6727 27.5334 54.957Z" fill="#C42218"/>
<path d="M34.8492 46.2097C34.8492 46.4941 34.6318 46.7246 34.3636 46.7246C34.0954 46.7246 33.8779 46.4941 33.8779 46.2097C33.8779 45.9254 34.0954 45.6948 34.3636 45.6948C34.6318 45.6948 34.8492 45.9254 34.8492 46.2097Z" fill="#C42218"/>
<path d="M31.4612 55.1905C31.4612 55.5773 31.1655 55.8908 30.8007 55.8908C30.436 55.8908 30.1403 55.5773 30.1403 55.1905C30.1403 54.8038 30.436 54.4902 30.8007 54.4902C31.1655 54.4902 31.4612 54.8038 31.4612 55.1905Z" fill="#C42218"/>
<path fill-rule="evenodd" clip-rule="evenodd" d="M19.7983 23.346C20.4946 23.7948 20.6953 24.7231 20.2465 25.4194C19.5768 26.4586 17.8152 30.2418 18.5396 34.3653C18.6829 35.1812 18.1377 35.9588 17.3217 36.1022C16.5058 36.2455 15.7282 35.7003 15.5848 34.8843C14.6843 29.7581 16.8152 25.2057 17.7249 23.7942C18.1737 23.0979 19.102 22.8972 19.7983 23.346Z" fill="#FC5D52"/>
<path d="M80.4223 49.8888C78.5151 57.8888 67.3805 70.1502 61.7329 75.2156C54.0475 73.8764 39.5851 69.5563 43.2181 62.9888C46.8512 56.4213 45.3935 49.331 43.2181 46.3954C40.5001 42.7275 35.3822 34.722 41.6875 33.5624C47.125 32.5624 52.0097 39.5834 52.6502 42.7275C59.1129 30.3261 68.7196 24.3874 75.7063 29.2781C82.6929 34.1688 82.75 40.1249 80.4223 49.8888Z" fill="#F63D31"/>
<path fill-rule="evenodd" clip-rule="evenodd" d="M62.3457 77.3526L61.3896 77.186C57.456 76.5005 51.7039 75.0431 47.3342 72.8505C45.1762 71.7677 43.1198 70.3916 41.8708 68.645C41.2262 67.7437 40.7614 66.6937 40.6624 65.5119C40.5624 64.3182 40.8485 63.1407 41.4681 62.0207C43.0788 59.1091 43.5619 56.0813 43.4001 53.4531C43.2356 50.7801 42.4161 48.6723 41.6113 47.5862C40.242 45.7385 38.1035 42.5918 37.1637 39.6462C36.7012 38.1969 36.4102 36.4412 37.0119 34.8382C37.6867 33.0404 39.2577 31.9757 41.3257 31.5954C45.0231 30.9155 48.2421 32.9911 50.3968 35.1918C51.3394 36.1545 52.1801 37.2418 52.8636 38.3321C55.8296 33.6133 59.3088 29.9663 62.9608 27.7985C67.5208 25.0917 72.546 24.6246 76.8532 27.6397C80.7098 30.3393 82.8216 33.4836 83.5257 37.4024C84.2014 41.1634 83.5376 45.4458 82.3677 50.3527C81.3032 54.8182 77.7864 60.1828 74.047 64.8958C70.25 69.6813 65.9773 74.0954 63.0683 76.7045L62.3457 77.3526ZM53.9587 40.3755C60.3598 29.5948 69.1771 24.7077 75.7062 29.2781C82.6929 34.1688 82.75 40.1249 80.4223 49.8889C78.5151 57.8888 67.3805 70.1503 61.7329 75.2156C54.0475 73.8765 39.5851 69.5564 43.2181 62.9889C46.8512 56.4214 45.3935 49.3311 43.2181 46.3955C40.5001 42.7275 35.3822 34.722 41.6875 33.5624C45.9628 32.7762 49.8963 36.9485 51.6938 40.2963C52.1825 41.2064 52.5133 42.0555 52.6502 42.7275C53.0734 41.9154 53.5101 41.131 53.9587 40.3755Z" fill="#840808"/>
<path fill-rule="evenodd" clip-rule="evenodd" d="M59.7328 72.2154C65.3803 67.1501 76.5149 54.8886 78.4222 46.8887C79.9471 40.4924 80.4485 35.7302 78.6488 31.8312C82.6454 36.2651 82.3611 41.756 80.4222 49.8888C78.515 57.8887 67.3804 70.1502 61.7328 75.2155C55.2067 74.0784 43.7937 70.7917 42.7238 65.8046C46.514 69.116 54.6219 71.3249 59.7328 72.2154ZM50.9816 39.1019C50.636 38.5752 50.2459 38.045 49.8174 37.5317C50.2383 38.3523 50.5251 39.1137 50.6501 39.7273C50.7597 39.517 50.8702 39.3085 50.9816 39.1019ZM41.0052 43.1059C41.3131 43.6194 41.6306 44.1167 41.9439 44.5864C41.7164 44.1377 41.4721 43.7381 41.218 43.3953C41.1486 43.3016 41.0776 43.205 41.0052 43.1059Z" fill="#D22B20"/>
<path d="M39.4624 61.4873L36.2567 64.0144C31.4119 68.8759 40.2336 75.4471 45.25 78.125C49.4256 80.4333 58.3174 84.183 61.7487 81.5103C62.0357 81.2868 62.2347 80.9746 62.3992 80.6501L64.0807 77.3332C64.7909 75.9323 64.3004 74.2209 62.9561 73.4088L42.8709 61.2754C41.8015 60.6294 40.4436 60.7138 39.4624 61.4873Z" fill="#D7FAF7"/>
<path fill-rule="evenodd" clip-rule="evenodd" d="M34.9245 62.5177L38.2243 59.9165C39.8596 58.6274 42.1226 58.4867 43.905 59.5634L63.9903 71.6968C66.2307 73.0503 67.0482 75.9027 65.8646 78.2374L64.1831 81.5544C63.9727 81.9692 63.6121 82.5939 62.9777 83.088C61.6143 84.15 59.8899 84.4469 58.2934 84.4333C56.6684 84.4195 54.9164 84.0826 53.2374 83.6108C49.8813 82.6677 46.4759 81.0867 44.2951 79.8823C41.682 78.4858 37.9902 76.0382 35.5401 73.1937C34.3186 71.7757 33.2505 70.082 32.9399 68.223C32.6061 66.2247 33.1885 64.2597 34.84 62.6025L34.9245 62.5177ZM45.25 78.1249C49.4255 80.4332 58.3173 84.1828 61.7487 81.5102C62.0357 81.2867 62.2347 80.9745 62.3992 80.65L64.0807 77.333C64.7909 75.9322 64.3004 74.2208 62.9561 73.4087L42.8709 61.2753C41.8014 60.6293 40.4436 60.7137 39.4624 61.4872L36.2567 64.0143C31.4119 68.8758 40.2336 75.447 45.25 78.1249Z" fill="#81D5CE"/>
<path fill-rule="evenodd" clip-rule="evenodd" d="M39.9019 62.3743C41.5648 61.6513 43.3051 62.0698 44.0144 62.3653C44.7791 62.6839 45.1407 63.5621 44.8221 64.3268C44.5034 65.0915 43.6252 65.4532 42.8605 65.1345C42.7656 65.095 42.4791 65.0063 42.1091 64.9807C41.745 64.9556 41.3916 64.9979 41.098 65.1255C40.7834 65.2623 40.3338 65.6027 39.8434 66.0887C39.3771 66.5509 38.9822 67.0356 38.7756 67.3197C38.2883 67.9897 37.3502 68.1378 36.6802 67.6506C36.0102 67.1633 35.8621 66.2252 36.3493 65.5552C36.6427 65.1518 37.1415 64.5428 37.7315 63.958C38.2974 63.3972 39.0665 62.7375 39.9019 62.3743Z" fill="white"/>
<path d="M59.25 80.7471C59.25 81.1613 58.9142 81.4971 58.5 81.4971C58.0858 81.4971 57.75 81.1613 57.75 80.7471C57.75 80.3329 58.0858 79.9971 58.5 79.9971C58.9142 79.9971 59.25 80.3329 59.25 80.7471Z" fill="#B2E8E4"/>
<path d="M59.7812 78.1533C59.7812 78.5675 59.4455 78.9033 59.0312 78.9033C58.617 78.9033 58.2812 78.5675 58.2812 78.1533C58.2812 77.7391 58.617 77.4033 59.0312 77.4033C59.4455 77.4033 59.7812 77.7391 59.7812 78.1533Z" fill="#B2E8E4"/>
<path d="M61.6875 79.1668C61.6875 79.4356 61.4696 79.6534 61.2009 79.6534C60.9321 79.6534 60.7142 79.4356 60.7142 79.1668C60.7142 78.898 60.9321 78.6802 61.2009 78.6802C61.4696 78.6802 61.6875 78.898 61.6875 79.1668Z" fill="#B2E8E4"/>
<path d="M54.3796 79.2471C54.3796 79.6613 54.0439 79.9971 53.6296 79.9971C53.2154 79.9971 52.8796 79.6613 52.8796 79.2471C52.8796 78.8329 53.2154 78.4971 53.6296 78.4971C54.0439 78.4971 54.3796 78.8329 54.3796 79.2471Z" fill="#B2E8E4"/>
<path d="M54.0625 75.9658C54.0625 76.38 53.7267 76.7158 53.3125 76.7158C52.8983 76.7158 52.5625 76.38 52.5625 75.9658C52.5625 75.5516 52.8983 75.2158 53.3125 75.2158C53.7267 75.2158 54.0625 75.5516 54.0625 75.9658Z" fill="#B2E8E4"/>
<path d="M48.3125 75.9658C48.3125 76.38 47.9767 76.7158 47.5625 76.7158C47.1483 76.7158 46.8125 76.38 46.8125 75.9658C46.8125 75.5516 47.1483 75.2158 47.5625 75.2158C47.9767 75.2158 48.3125 75.5516 48.3125 75.9658Z" fill="#B2E8E4"/>
<path d="M51.9468 77.8096C51.9468 78.4136 51.4571 78.9033 50.853 78.9033C50.249 78.9033 49.7593 78.4136 49.7593 77.8096C49.7593 77.2055 50.249 76.7158 50.853 76.7158C51.4571 76.7158 51.9468 77.2055 51.9468 77.8096Z" fill="#B2E8E4"/>
<path d="M57.2188 78.1533C57.2188 78.7574 56.7291 79.2471 56.125 79.2471C55.5209 79.2471 55.0312 78.7574 55.0312 78.1533C55.0312 77.5493 55.5209 77.0596 56.125 77.0596C56.7291 77.0596 57.2188 77.5493 57.2188 78.1533Z" fill="#B2E8E4"/>
<path fill-rule="evenodd" clip-rule="evenodd" d="M67.2862 31.0407C67.7124 31.7511 67.4821 32.6725 66.7717 33.0987C65.7182 33.7309 62.6925 36.1101 60.0629 40.0786C59.6053 40.7691 58.6745 40.958 57.9839 40.5004C57.2933 40.0428 57.1045 39.112 57.5621 38.4214C60.4324 34.0898 63.7818 31.3941 65.2282 30.5262C65.9386 30.1 66.86 30.3304 67.2862 31.0407Z" fill="#FC5D52"/>
<path d="M65.8438 60.125C65.8438 60.8844 65.2631 61.5 64.5469 61.5C63.8306 61.5 63.25 60.8844 63.25 60.125C63.25 59.3656 63.8306 58.75 64.5469 58.75C65.2631 58.75 65.8438 59.3656 65.8438 60.125Z" fill="#C42218"/>
<path d="M71.125 60.125C71.125 60.8844 70.5444 61.5 69.8281 61.5C69.1119 61.5 68.5312 60.8844 68.5312 60.125C68.5312 59.3656 69.1119 58.75 69.8281 58.75C70.5444 58.75 71.125 59.3656 71.125 60.125Z" fill="#C42218"/>
<path d="M77.4062 53.125C77.4062 53.8844 76.8256 54.5 76.1094 54.5C75.3931 54.5 74.8125 53.8844 74.8125 53.125C74.8125 52.3656 75.3931 51.75 76.1094 51.75C76.8256 51.75 77.4062 52.3656 77.4062 53.125Z" fill="#C42218"/>
<path d="M68.5312 56.2148C68.5312 56.765 68.1106 57.2109 67.5917 57.2109C67.0728 57.2109 66.6522 56.765 66.6522 56.2148C66.6522 55.6647 67.0728 55.2188 67.5917 55.2188C68.1106 55.2188 68.5312 55.6647 68.5312 56.2148Z" fill="#C42218"/>
<path d="M75.1562 57.2109C75.1562 57.7611 74.7356 58.207 74.2167 58.207C73.6978 58.207 73.2772 57.7611 73.2772 57.2109C73.2772 56.6608 73.6978 56.2148 74.2167 56.2148C74.7356 56.2148 75.1562 56.6608 75.1562 57.2109Z" fill="#C42218"/>
<path d="M73.004 53.125C73.004 53.6751 72.5834 54.1211 72.0645 54.1211C71.5456 54.1211 71.125 53.6751 71.125 53.125C71.125 52.5749 71.5456 52.1289 72.0645 52.1289C72.5834 52.1289 73.004 52.5749 73.004 53.125Z" fill="#C42218"/>
<path d="M78.7879 48.7324C78.7879 49.1369 78.4786 49.4648 78.0971 49.4648C77.7155 49.4648 77.4062 49.1369 77.4062 48.7324C77.4062 48.3279 77.7155 48 78.0971 48C78.4786 48 78.7879 48.3279 78.7879 48.7324Z" fill="#C42218"/>
<path d="M62.9441 65.416C62.9441 65.8205 62.6348 66.1484 62.2533 66.1484C61.8718 66.1484 61.5625 65.8205 61.5625 65.416C61.5625 65.0115 61.8718 64.6836 62.2533 64.6836C62.6348 64.6836 62.9441 65.0115 62.9441 65.416Z" fill="#C42218"/>
<path d="M69.2221 51.0176C69.2221 51.4221 68.9128 51.75 68.5313 51.75C68.1497 51.75 67.8405 51.4221 67.8405 51.0176C67.8405 50.6131 68.1497 50.2852 68.5313 50.2852C68.9128 50.2852 69.2221 50.6131 69.2221 51.0176Z" fill="#C42218"/>
<path d="M68.1875 64.6836C68.1875 65.2337 67.7668 65.6797 67.248 65.6797C66.7291 65.6797 66.3085 65.2337 66.3085 64.6836C66.3085 64.1335 66.7291 63.6875 67.248 63.6875C67.7668 63.6875 68.1875 64.1335 68.1875 64.6836Z" fill="#C42218"/>
</svg>
