<svg width="233" height="20" viewBox="0 0 233 20" fill="none" xmlns="http://www.w3.org/2000/svg">
<g clip-path="url(#clip0_0_422)">
<path d="M234.911 -0.596792L2.5457 -0.596772C0.999998 -0.500001 3 0.999999 3 0.999999C9.89331 6.75402 17.9987 0.955648 27.0249 1.5C36.051 2.04436 44.1158 7.36695 52.9461 8.95969C60.5124 10.3508 68.2211 8.95968 75.8764 8.55645C85.0322 8.07494 94.2021 9.05912 103.115 11.4798C115.844 14.9274 128.751 21.2984 141.534 18.1532C146.179 16.684 150.735 14.8723 155.171 12.7298C165.516 8.51158 176.608 7.1904 187.501 8.87903C192.611 9.68548 197.685 11.1573 202.83 10.8952C211.429 10.3508 219.636 4.84676 228.164 6.09676C229.568 6.47444 231.022 6.56323 232.454 6.35886C233.861 5.99596 235.196 4.50403 234.893 2.91128C234.59 1.31854 235.196 -2.18953 234.911 -0.596792Z" fill="#EEEEEE"/>
</g>
<defs>
<clipPath id="clip0_0_422">
<rect width="235" height="20" fill="white" transform="translate(235 20) rotate(180)"/>
</clipPath>
</defs>
</svg>
