<svg width="592" height="559" viewBox="0 0 592 559" fill="none" xmlns="http://www.w3.org/2000/svg">
<path d="M347.818 166.15C331.251 142.49 270.576 141.936 251.274 148.509C204.126 164.594 201.186 198.874 201.566 207.487C201.566 207.487 215.195 191.99 222.805 186.732C230.416 181.474 240.516 174.141 253.592 169.921C266.667 165.7 285.243 161.273 300.049 160.235C326.441 158.436 347.818 166.15 347.818 166.15Z" fill="#103E3F"/>
<path d="M375.423 215.27C375.414 215.073 375.393 214.876 375.355 214.683C372.655 197.94 366.463 177.981 349.999 170.233C331.354 147.195 283.997 146.468 257.016 151.38C232.076 157.745 207.758 175.594 202.327 201.918C202.12 203.786 200.667 209.632 201.186 212.884C190.566 228.588 188.214 269.302 216.129 253.667C226.956 248.236 234.048 238.17 243.491 230.906C272.963 209.736 311.877 199.635 346.607 213.437C353.214 215.616 359.717 218.072 366.43 219.698C370.545 221.289 375.769 220.771 375.423 215.27ZM254.802 155.531C270.887 151.449 288.529 151.83 304.924 153.767C313.642 154.943 322.533 156.915 330.662 160.27C335.054 162.103 339.829 164.836 343.461 168.088C295.828 154.493 237.23 170.751 204.818 208.387C206.928 182.616 229.793 162.795 254.802 155.531ZM370.684 217.069C365.495 216.101 360.481 214.475 355.499 212.78C329.936 202.645 301.156 199.6 275.281 210.497C259.957 216.343 244.736 223.745 233.045 235.472C229.62 238.827 225.538 243.082 222.217 245.642C217.72 249.032 211.598 252.837 206.686 253.598C204.956 253.771 203.849 253.736 202.293 253.113C200.736 252.491 199.456 251.072 198.626 248.963C197.173 244.846 196.931 240.038 197.485 235.16C197.555 234.949 197.591 234.727 197.588 234.503C197.588 234.399 197.623 234.261 197.623 234.157C197.697 233.694 197.824 233.242 198.004 232.808L198.28 232.324C198.453 232.013 198.661 231.701 198.868 231.39L198.937 231.321C200.805 228.969 203.296 227.17 205.613 225.302C207.931 223.434 211.148 221.324 214.054 220.148C214.746 219.802 218.343 218.764 219.07 218.764C220.481 218.58 221.91 218.568 223.324 218.73C224.016 218.833 224.708 219.006 225.4 219.179C227.544 219.802 228.479 216.447 226.334 215.859C220.868 214.233 215.057 215.582 210.145 218.176C206.997 220.252 202.708 222.742 199.352 225.786C199.975 223.642 200.702 221.531 201.497 219.525C201.705 218.764 203.746 214.994 204.161 214.613L204.23 214.544C204.306 214.479 204.365 214.395 204.403 214.302C233.217 177.739 282.925 162.519 328.205 168.088C336.508 169.368 346.918 171.236 354.01 176.597C365.288 186.11 369.748 201.469 371.998 215.547C372.033 216.343 371.687 217.381 370.684 217.069Z" fill="#E3D5C8"/>
<path d="M389.64 468.687C401.036 450.761 407.062 429.949 407.006 408.705C407.006 390.27 402.75 372.765 394.343 356.716C386.547 341.868 375.506 328.969 362.035 318.976C376.266 302.779 384.09 281.939 384.036 260.378C384.036 244.086 380.612 231.736 372.241 217.831C372.114 217.614 371.942 217.424 371.741 217.273C371.539 217.122 371.308 217.013 371.063 216.952C370.82 216.891 370.566 216.879 370.314 216.917C370.065 216.955 369.825 217.042 369.612 217.174C369.399 217.301 369.213 217.47 369.065 217.671C368.92 217.871 368.813 218.098 368.754 218.34C368.698 218.582 368.689 218.832 368.727 219.077C368.769 219.323 368.858 219.557 368.988 219.768C376.98 233.051 380.23 244.812 380.23 260.378C380.23 307.387 341.972 345.645 294.963 345.645C247.953 345.645 209.661 307.387 209.661 260.378V258.683C209.618 257.656 209.653 256.627 209.765 255.604C209.787 255.355 209.761 255.103 209.686 254.863C209.611 254.624 209.49 254.401 209.33 254.208C209.169 254.016 208.972 253.857 208.75 253.74C208.528 253.624 208.285 253.552 208.035 253.529C207.53 253.483 207.028 253.64 206.639 253.964C206.25 254.288 206.005 254.754 205.96 255.259C205.848 256.42 205.813 257.587 205.856 258.752V260.378C205.802 281.939 213.625 302.779 227.856 318.976C214.405 328.992 203.376 341.901 195.582 356.751C187.176 372.8 182.922 390.303 182.922 408.705C182.922 430.257 188.94 450.909 200.252 468.654C174.793 493.317 161.371 525.868 161.371 562.915C161.371 563.418 161.572 563.904 161.928 564.259C162.285 564.617 162.769 564.818 163.274 564.818C163.778 564.818 164.262 564.617 164.619 564.259C164.976 563.904 165.176 563.418 165.176 562.915C165.176 527.147 178.044 495.738 202.397 471.904C206.348 477.641 210.805 483.013 215.714 487.956C236.736 508.954 265.233 520.75 294.946 520.75C324.659 520.75 353.155 508.954 374.177 487.956C379.102 483.028 383.563 477.655 387.494 471.904C411.502 496.049 424.716 528.289 424.716 562.915C424.716 563.418 424.917 563.904 425.272 564.259C425.63 564.617 426.113 564.818 426.619 564.818C427.122 564.818 427.608 564.617 427.963 564.259C428.321 563.904 428.519 563.418 428.519 562.915C428.519 527.007 414.72 493.592 389.64 468.687ZM294.963 516.943C235.259 516.943 186.727 468.411 186.727 408.705C186.727 373.907 202.639 342.324 230.416 321.811L231.938 323.368C248.653 340.072 271.316 349.455 294.946 349.455C318.576 349.455 341.238 340.072 357.953 323.368L359.477 321.811C387.287 342.256 403.2 373.839 403.2 408.705C403.2 468.411 354.635 516.943 294.963 516.943Z" fill="#E3D5C8"/>
<path d="M282.095 246.75C279.674 245.366 276.284 247.649 276.595 250.416C276.907 253.184 280.781 255.397 283.064 253.149C285.347 250.901 284.171 247.58 282.095 246.75Z" fill="#E3D5C8"/>
<path d="M337.2 247.337C334.811 245.953 331.387 248.237 331.701 251.004C332.011 253.771 335.919 255.985 338.204 253.736C340.486 251.488 339.311 248.167 337.2 247.337Z" fill="#E3D5C8"/>
<path d="M349.721 265.671C350.689 268.681 342.561 272.313 346.228 272.209C347.241 272.173 348.244 271.986 349.203 271.655C353.942 270.133 356.813 265.809 355.567 261.97C354.321 258.13 349.514 256.297 344.775 257.819C342.478 258.504 340.504 259.989 339.204 262.004C338.168 263.699 349.132 263.838 349.721 265.671Z" fill="#103E3F"/>
<path d="M280.56 267.898C281.639 264.034 278.62 259.815 273.818 258.474C269.015 257.133 264.248 259.178 263.169 263.042C262.09 266.907 265.108 271.126 269.911 272.467C274.714 273.808 279.481 271.762 280.56 267.898Z" fill="#103E3F"/>
<path d="M318.659 279.541C297.178 280.613 303.785 260.204 313.573 261.519C325.508 263.145 337.372 265.739 347.231 268.022C349.86 268.61 349.86 272.381 347.231 273.003L318.659 279.541Z" fill="#CE9C5C"/>
<path d="M347.646 262.384C337.025 259.928 325.576 257.438 313.849 255.846C310.288 255.362 306.828 257.057 304.578 260.412C302.331 263.768 301.813 268.403 303.714 271.758C305.238 274.526 308.834 277.708 317.066 277.708H318.727L319.073 277.639L347.646 271.101C348.623 270.869 349.493 270.314 350.115 269.526C350.736 268.739 351.077 267.764 351.077 266.76C351.077 265.756 350.736 264.781 350.115 263.994C349.493 263.206 348.623 262.651 347.646 262.419V262.384ZM346.814 267.365L328.619 271.516C328.862 270.236 329.104 268.956 329.312 267.677C329.936 265.497 326.544 264.564 325.991 266.743C326.062 268.195 324.919 270.582 324.884 272.381L318.38 273.869C312.638 274.111 308.592 272.727 307.035 269.891C305.824 267.78 306.102 264.909 307.727 262.557C309.352 260.205 310.806 259.582 312.674 259.582H313.331L316.548 260.032C313.712 267.815 319.627 267.711 319.212 264.217V263.699C319.419 262.661 319.834 261.658 320.008 260.586C326.301 261.623 332.529 262.869 338.514 264.183C338.541 264.366 338.553 264.551 338.547 264.736C338.523 264.892 338.476 265.043 338.411 265.186C338.343 265.332 338.26 265.471 338.168 265.601C335.676 268.749 340.728 270.375 341.8 266.016C341.921 265.682 342.004 265.333 342.043 264.979L346.814 266.051C346.959 266.076 347.089 266.154 347.178 266.269C347.267 266.384 347.311 266.528 347.3 266.673C347.32 266.829 347.282 266.986 347.193 267.114C347.104 267.242 346.968 267.332 346.814 267.365Z" fill="#E3D5C8"/>
<path d="M514.516 320.672C511.195 324.65 508.081 328.971 504.621 332.535C504.147 333.05 503.567 333.459 502.924 333.731C502.279 334.006 501.587 334.14 500.885 334.128C496.528 333.989 496.25 328.107 494.557 324.304C491.407 317.279 480.683 316.832 474.769 321.743C468.855 326.654 466.709 334.714 465.498 342.324C464.628 347.59 464.086 352.906 463.873 358.237C463.666 363.772 466.087 366.261 469.441 370.69C469.752 371.14 469.166 374.668 469.337 375.153C470.305 377.954 470.48 380.999 471.622 383.731C473.697 388.781 478.747 392.138 484.04 393.348C489.332 394.559 494.935 393.831 500.228 392.552C519.033 388.044 535.644 377.042 547.135 361.49C554.156 351.906 559.173 339.974 557.063 328.314C556.577 325.653 553.117 316.001 546.51 314.547" fill="#103E3F"/>
<path d="M379.09 404.727C378.347 403.706 377.719 402.602 377.222 401.441C377.29 401.616 377.326 401.649 377.29 401.616C376.749 400.296 376.376 398.911 376.183 397.499C375.941 395.631 376.115 392.31 377.255 389.785C377.219 389.847 377.196 389.918 377.187 389.992C377.518 389.148 377.947 388.346 378.465 387.606C379.643 385.667 376.633 383.939 375.491 385.842C370.752 392.863 372.033 403.276 378.329 408.948C379.886 410.505 382.376 408.048 380.751 406.491C380.161 405.938 379.608 405.348 379.09 404.727Z" fill="#E3D5C8"/>
<path d="M491.925 319.011H491.893C491.925 319.287 491.996 319.219 491.925 319.011Z" fill="#E3D5C8"/>
<path d="M545.821 306.695C542.636 306.455 543.157 310.223 546.028 310.362H545.993C549.521 311.987 551.285 314.965 553.085 318.908C554.538 321.812 555.056 327.625 554.399 332.018C553.292 340.181 549.035 348.62 543.639 355.609L543.503 355.78L543.364 355.955C539.223 361.215 534.46 365.954 529.183 370.068C516.384 379.893 490.265 392.31 476.361 382.314C475.565 381.793 473.94 380.029 473.73 379.753C473.108 378.913 472.576 378.007 472.141 377.054C471.241 374.84 470.93 372.419 470.341 370.136C469.823 367.265 467.02 364.361 466.259 362.18C463.284 355.298 464.669 347.86 465.463 340.32C465.481 340.217 465.492 340.113 465.498 340.007C466.777 331.186 468.301 322.125 475.047 316.623C475.829 316.06 476.66 315.575 477.537 315.172H477.64C478.786 314.702 479.982 314.364 481.204 314.169H481.272C481.479 314.133 481.34 314.169 481.237 314.169C482.397 314.03 483.572 314.03 484.732 314.169C485.724 314.32 486.698 314.574 487.636 314.93C487.914 315.033 487.533 314.894 487.533 314.858C488.814 315.397 489.951 316.226 490.854 317.28C491.271 317.813 491.62 318.393 491.893 319.011C493.414 322.679 493.76 327.761 497.978 329.389C503.445 331.186 506.731 325.204 509.741 321.779C510.777 319.704 516.591 315.308 514.584 313.304C513.962 312.715 512.752 312.541 512.163 313.304C508.702 317.351 505.695 321.812 501.853 325.514C501.643 325.692 501.409 325.843 501.163 325.964L500.885 326.068L500.332 326.207H499.535L498.81 325.997C499.432 326.172 498.742 325.964 498.532 325.825L498.464 325.757L497.978 325.236C497.662 324.766 497.383 324.268 497.15 323.75C495.075 314.755 490.265 309.394 480.443 310.777C465.637 313.304 462.938 330.979 461.624 343.431C460.17 352.495 460.898 362.044 466.295 369.204C460.206 373.147 453.599 376.19 446.957 379.061C432.047 385.321 412.434 391.342 396.385 393.313C391.714 393.831 387.046 394.142 382.34 393.831C380.126 393.799 380.093 397.291 382.34 397.291C407.317 397.845 431.737 389.371 454.395 379.511C455.985 378.543 463.113 375.636 467.159 372.869C473.594 401.027 511.47 387.225 528.351 374.979C543.503 363.876 557.685 347.27 558.134 327.625C558.203 319.426 554.295 309.255 545.821 306.695ZM477.64 315.137L477.744 315.069L477.64 315.137Z" fill="#E3D5C8"/>
<path d="M546.028 310.362C546.2 310.433 546.304 310.569 546.028 310.362V310.362Z" fill="#E3D5C8"/>
<path d="M100.387 353.74C98.6224 356.09 97.5154 358.929 95.613 361.211C92.0844 365.361 86.2733 367.057 80.8423 366.572C75.4116 366.089 70.3612 363.736 65.6912 360.936C49.1454 350.893 36.656 335.356 30.408 317.039C26.6376 305.797 25.4961 292.928 31.0652 282.447C36.6344 271.965 50.5056 265.462 61.0215 270.997C72.0561 276.774 74.3045 291.406 79.7353 302.405C80.023 303.038 80.4439 303.601 80.9693 304.054C81.4947 304.506 82.1124 304.844 82.7793 305.036C86.9997 306.247 89.0406 300.744 91.8079 297.633C96.9619 291.89 107.27 294.692 111.421 301.194C115.572 307.697 115.192 316 114.05 323.61C113.273 328.888 112.164 334.109 110.729 339.245C109.276 344.573 107.789 343.777 103.257 346.994C102.808 347.305 100.698 353.29 100.387 353.74Z" fill="#103E3F"/>
<path d="M122.525 357.408C118.12 354.608 114.006 351.376 110.245 347.756C109.518 347.306 108.827 346.373 108.066 345.577C113.427 340.803 116.056 333.678 117.301 326.689C119.446 315.69 122.594 302.752 115.78 292.79C108.17 283.209 95.7512 283.866 90.4587 294.347C89.8264 295.209 89.0408 295.948 88.141 296.527L87.6567 296.663H87.0343C86.5328 296.58 86.0586 296.379 85.6504 296.077H85.6158C85.3104 295.815 85.0428 295.512 84.8202 295.177C81.88 289.435 80.0812 282.932 77.141 276.671C71.5372 262.419 56.8011 255.708 43.2067 264.114C22.8671 276.359 27.4331 304.691 37.1532 322.572C46.0779 341.045 80.8422 376.261 100.732 354.916C102.427 352.737 103.5 350.213 105.091 347.963L105.298 347.791C108.861 352.219 118.962 359.137 120.795 360.383C122.629 361.626 124.462 358.548 122.525 357.408ZM97.9649 352.909C97.3466 353.661 96.6637 354.354 95.924 354.987C94.9617 355.689 93.9302 356.292 92.8453 356.784C91.4213 357.394 89.9194 357.799 88.3831 357.994C79.6316 359.172 70.0844 353.291 62.5778 347.652C51.5521 339.127 42.8944 327.921 37.43 315.101C33.867 306.591 31.3419 296.492 32.6564 286.841C32.8293 284.973 33.9363 280.718 34.8012 278.85C35.6267 276.84 36.708 274.945 38.0181 273.212C38.4331 272.485 41.6847 269.303 42.3421 268.922C46.9082 265.256 53.3767 263.318 58.2542 264.045C61.4711 264.529 63.6503 265.498 66.2793 267.469C69.8769 270.029 73.4742 276.394 75.0655 280.476C77.9021 286.391 79.0088 293.551 83.2635 298.637C89.4555 303.48 93.572 295.765 96.3393 292.099C99.902 288.155 105.921 288.916 110.556 292.306C111.405 293.011 112.182 293.799 112.874 294.658C113.599 295.717 114.224 296.841 114.742 298.013C116.817 302.648 116.679 309.948 115.918 315.101C114.915 321.572 113.566 329.25 111.456 334.853C109.987 338.384 107.656 341.486 104.676 343.881C103.834 344.296 103.108 344.914 102.566 345.681L102.254 346.06C100.663 348.241 99.5909 350.731 97.9649 352.909Z" fill="#E3D5C8"/>
<path d="M185.896 386.293C175.173 381.829 163.688 377.125 153.311 372.765C148.088 370.551 142.865 368.269 137.78 365.744C135.843 364.602 134.078 367.612 136.015 368.719C148.399 374.772 161.302 379.718 173.997 385.082L184.997 389.611C187.107 390.271 188.076 386.914 185.896 386.293Z" fill="#E3D5C8"/>
<path d="M286.73 408.291C293.78 408.291 299.496 402.575 299.496 395.527C299.496 388.477 293.78 382.764 286.73 382.764C279.681 382.764 273.966 388.477 273.966 395.527C273.966 402.575 279.681 408.291 286.73 408.291Z" fill="#CE9C5C"/>
<path d="M286.73 474.257C293.78 474.257 299.496 468.541 299.496 461.493C299.496 454.442 293.78 448.727 286.73 448.727C279.681 448.727 273.966 454.442 273.966 461.493C273.966 468.541 279.681 474.257 286.73 474.257Z" fill="#CE9C5C"/>
<path d="M282.026 408.843C262.724 408.497 262.724 379.821 282.026 379.474C301.293 379.821 301.293 408.497 282.026 408.843ZM282.026 383.281C267.705 383.524 267.705 404.797 282.026 405.04C296.346 405.28 296.311 383.524 282.026 383.281Z" fill="#E3D5C8"/>
<path d="M282.026 474.811C262.724 474.465 262.724 445.788 282.026 445.442C301.293 445.788 301.293 474.465 282.026 474.811ZM282.026 449.249C267.705 449.488 267.705 470.765 282.026 471.005C296.346 471.247 296.311 449.488 282.026 449.249Z" fill="#E3D5C8"/>
<path d="M506.696 357.233L507.46 356.576C508.673 355.647 509.996 354.868 511.402 354.258C513.131 353.462 516.349 352.598 518.805 352.287C521.259 351.976 524.891 351.837 527.73 351.769C529.976 351.802 529.976 348.309 527.73 348.309C521.191 348.483 514.41 348.723 508.46 351.837C506.939 352.639 505.521 353.628 504.242 354.776C502.65 356.333 505.106 358.79 506.696 357.233Z" fill="#E3D5C8"/>
<path d="M503.653 340.942C503.156 341.25 502.729 341.664 502.407 342.152C501.196 343.848 502.235 346.234 504.31 346.613C506.385 346.995 506.592 347.27 506.213 349.313C506.121 349.792 506.154 350.286 506.305 350.748C506.456 351.213 506.722 351.63 507.078 351.965C507.43 352.299 507.865 352.539 508.336 352.66C508.809 352.785 509.303 352.788 509.777 352.669C511.079 352.281 512.323 351.725 513.477 351.009C513.915 350.739 514.415 350.585 514.93 350.559C518.216 350.488 526.691 351.941 524.234 342.049C524.16 341.803 524.136 341.543 524.166 341.288C524.198 340.918 524.157 340.545 524.044 340.193C523.932 339.841 523.748 339.515 523.506 339.234C523.263 338.953 522.967 338.725 522.635 338.559C522.304 338.396 521.943 338.298 521.573 338.278C520.942 338.213 520.35 337.952 519.874 337.538C519.397 337.123 519.06 336.573 518.909 335.96V335.892C518.805 335.478 518.613 335.096 518.343 334.767C518.074 334.436 517.737 334.172 517.352 333.989C516.967 333.808 516.55 333.713 516.123 333.713C515.7 333.713 515.28 333.808 514.895 333.989C510.641 335.821 504.274 334.714 504.517 339.453C504.532 339.758 504.458 340.06 504.304 340.323C504.15 340.589 503.925 340.803 503.653 340.942Z" fill="#EFDCC4"/>
<path d="M508.563 350.906L508.703 350.974C508.703 350.938 508.635 350.938 508.563 350.906Z" fill="#E3D5C8"/>
<path d="M520.673 335.821C520.673 335.803 520.67 335.785 520.664 335.768C520.658 335.75 520.649 335.732 520.637 335.717C520.649 335.732 520.658 335.75 520.664 335.768C520.67 335.785 520.673 335.803 520.673 335.821Z" fill="#E3D5C8"/>
<path d="M526.38 344.33C525.998 340.941 525.723 336.688 521.398 336.477C521.33 336.477 520.777 336.028 521.019 336.238C521.259 336.445 520.706 335.924 520.673 335.82C520.673 335.752 520.534 335.51 520.637 335.684C520.152 332.431 515.863 331.289 514.202 332.363C510.121 333.988 502.581 333.227 502.753 339.42C502.753 339.384 502.753 339.384 502.789 339.384C502.824 339.281 502.824 339.384 502.789 339.384H502.753C498.603 341.634 499.882 347.998 504.588 348.412C504.597 348.471 504.585 348.534 504.553 348.587C504.588 348.551 504.588 348.516 504.621 348.412C503.481 355.054 510.399 355.54 514.549 352.322C520.498 352.458 527.001 352.044 526.38 344.33ZM522.402 340.906H522.437C522.402 340.802 522.402 340.63 522.402 340.906ZM521.848 340.109C521.916 340.145 522.02 340.145 521.848 340.109V340.109ZM521.295 336.445C521.259 336.445 521.259 336.445 521.259 336.409C521.259 336.374 521.259 336.445 521.295 336.445ZM517.145 336.028C517.109 335.959 517.109 335.995 517.145 336.028V336.028ZM517.213 336.202C517.177 336.238 517.177 336.167 517.145 336.134L517.213 336.202ZM502.824 339.42C502.892 339.349 502.96 339.212 502.824 339.42V339.42ZM510.674 350.523C510.745 350.487 510.813 350.487 510.674 350.523V350.523ZM522.955 345.612C522.92 346.684 522.437 347.791 521.434 348.24C521.259 348.344 520.706 348.516 521.33 348.309C518.562 349.555 515.345 348.066 512.645 349.484C511.506 350.108 510.328 350.869 509.014 351.008C509.014 351.017 509.019 351.026 509.025 351.032C509.031 351.038 509.04 351.041 509.049 351.041H508.703C508.774 351.076 508.392 350.937 508.564 350.973L508.427 350.904C508.46 350.973 508.356 350.869 508.324 350.833C508.188 350.715 508.072 350.573 507.978 350.419C507.978 350.351 507.942 350.315 507.978 350.351C507.933 350.265 507.909 350.17 507.907 350.073C508.564 346.823 507.285 345.402 504.171 344.816L503.964 344.677H504.035L503.931 344.538C503.999 344.712 503.86 344.434 503.792 344.434H503.825C503.647 344.159 503.585 343.821 503.653 343.502C503.689 343.43 503.825 343.223 503.689 343.43C503.887 343.049 504.171 342.717 504.517 342.463C506.835 341.252 505.556 339.212 506.835 337.931L506.767 338.002C509.395 336.617 513.166 336.824 515.588 335.581L515.899 335.51H515.863C516.085 335.465 516.313 335.489 516.52 335.581C516.348 335.441 516.624 335.649 516.659 335.613L516.727 335.684H516.763C516.695 335.613 516.902 335.82 516.937 335.788H516.902C517.627 337.584 518.562 339.488 520.706 339.902C521.191 340.041 521.744 339.973 522.126 340.352C522.505 340.734 522.298 340.527 522.298 340.595C522.298 340.663 522.334 340.63 522.366 340.698C522.458 341.782 522.621 342.856 522.852 343.916C522.852 343.984 522.887 344.227 522.852 344.088C522.934 344.591 522.97 345.1 522.955 345.612Z" fill="#E3D5C8"/>
<path d="M508.842 351.009C508.91 351.009 508.945 351.041 509.013 351.009H508.842Z" fill="#E3D5C8"/>
<path d="M516.659 335.578H516.52C516.556 335.578 516.591 335.614 516.659 335.578Z" fill="#E3D5C8"/>
<path d="M516.902 335.753L516.762 335.649C516.798 335.684 516.834 335.753 516.902 335.753Z" fill="#E3D5C8"/>
<path d="M522.366 340.664C522.366 340.631 522.334 340.595 522.298 340.56C522.263 340.527 522.334 340.631 522.366 340.664Z" fill="#E3D5C8"/>
<path d="M508.356 350.799H508.427L508.324 350.731C508.333 350.728 508.341 350.725 508.353 350.728C508.362 350.731 508.371 350.739 508.374 350.748C508.38 350.757 508.38 350.769 508.377 350.778C508.374 350.787 508.365 350.796 508.356 350.799Z" fill="#E3D5C8"/>
<path d="M507.906 349.968C507.906 349.903 507.94 349.968 507.906 349.968V349.968Z" fill="#E3D5C8"/>
<path d="M504.035 344.641L504.171 344.745C504.165 344.715 504.147 344.689 504.121 344.671C504.097 344.65 504.064 344.641 504.035 344.641Z" fill="#E3D5C8"/>
<path d="M507.978 350.28V350.351C508.013 350.316 507.978 350.316 507.978 350.28Z" fill="#E3D5C8"/>
<path d="M503.824 344.402L503.931 344.505C503.931 344.482 503.896 344.446 503.824 344.402Z" fill="#E3D5C8"/>
<path d="M508.22 266.465C509.188 268.182 509.987 269.989 510.606 271.862C510.686 272.109 510.713 272.37 510.686 272.628C510.659 272.887 510.582 273.137 510.455 273.364C510.328 273.591 510.156 273.789 509.952 273.947C509.745 274.105 509.508 274.22 509.256 274.283L500.021 275.943C499.885 275.966 499.743 275.953 499.613 275.907C499.482 275.861 499.364 275.783 499.272 275.679C499.177 275.576 499.112 275.451 499.08 275.316C499.047 275.181 499.05 275.04 499.086 274.906C499.601 273.073 500.359 271.316 501.335 269.682C502.51 267.641 504.517 265.912 506.835 265.704C507.128 265.686 507.418 265.759 507.667 265.912C507.892 266.051 508.081 266.24 508.22 266.465Z" fill="#CE9C5C"/>
<path d="M512.37 271.758C511.263 268.99 510.399 264.009 506.696 263.975C501.682 263.179 492.583 278.088 500.539 277.604C504.378 276.324 512.888 277.673 512.37 271.758ZM499.778 274.214C499.468 274.283 499.607 274.214 499.814 274.214H499.778ZM500.782 275.251C500.746 275.355 500.782 275.493 500.782 275.251V275.251ZM508.877 272.588H508.842L501.196 273.971C502.271 271.343 503.689 268.056 506.767 267.434C507.042 267.918 507.285 268.402 507.528 268.887C503.825 269.44 505.66 273.729 508.91 272.242C508.946 272.277 508.946 272.346 508.981 272.38C508.946 272.311 508.981 272.277 508.981 272.38C508.981 272.484 509.014 272.311 508.981 272.415C508.972 272.415 508.963 272.419 508.954 272.425C508.948 272.432 508.946 272.44 508.946 272.449H508.877V272.588ZM509.014 272.519C509.005 272.519 508.996 272.515 508.99 272.509C508.984 272.502 508.981 272.493 508.981 272.484H509.014V272.519Z" fill="#E3D5C8"/>
<path d="M508.945 272.52C508.972 272.479 508.984 272.43 508.981 272.381C508.957 272.423 508.945 272.471 508.945 272.52Z" fill="#E3D5C8"/>
<path d="M508.842 272.589C508.877 272.589 508.91 272.589 508.91 272.555L508.842 272.589Z" fill="#E3D5C8"/>
<path d="M522.02 320.704L522.159 320.568L522.02 320.704Z" fill="#E3D5C8"/>
<path d="M530.012 321.847L530.08 322.021C530.047 321.95 530.012 321.915 530.012 321.847Z" fill="#E3D5C8"/>
<path d="M528.076 319.39L528.212 319.529L528.108 319.425L528.076 319.39Z" fill="#E3D5C8"/>
<path d="M543.954 314.997L544.125 315.136C544.125 315.127 544.122 315.118 544.116 315.112C544.108 315.104 544.099 315.101 544.09 315.101L543.954 314.997Z" fill="#E3D5C8"/>
<path d="M517.073 259.687C515.173 257.749 511.435 258.96 510.848 261.589C509.741 266.64 517.109 268.542 518.491 263.492C518.909 261.589 518.148 260.309 517.073 259.687Z" fill="#E3D5C8"/>
<path d="M504.274 258.234C502.339 256.297 498.603 257.508 498.05 260.137C496.907 265.187 504.274 267.09 505.66 262.039C506.074 260.137 505.349 258.857 504.274 258.234Z" fill="#E3D5C8"/>
<path d="M539.422 282.69L539.49 282.586L539.422 282.69Z" fill="#E3D5C8"/>
<path d="M559.413 293.586H559.381L559.277 293.516C559.31 293.516 559.345 293.586 559.413 293.586Z" fill="#E3D5C8"/>
<path d="M563.981 296.353L563.913 296.249V296.181C563.913 296.163 563.91 296.143 563.904 296.125C563.898 296.107 563.889 296.092 563.877 296.078C563.877 296.069 563.88 296.06 563.886 296.054C563.892 296.045 563.901 296.042 563.913 296.042C563.913 295.766 563.877 295.869 563.877 295.973C564.431 290.197 557.235 287.879 552.253 289.539C552.324 288.225 552.635 286.357 552.46 284.835C556.267 283.278 558.999 279.888 558.067 275.046C560.763 274.077 561.074 269.891 559.242 267.747C557.41 265.602 555.989 264.876 553.81 264.391C551.114 263.734 546.685 263.492 545.268 262.523C536.965 248.721 518.873 238.517 503.239 246.196C494.036 251.108 489.297 259.549 488.018 268.923C487.734 268.998 487.474 269.141 487.258 269.338C483.555 272.97 480.444 277.536 479.094 282.586C477.951 285.803 480.683 289.47 483.658 289.262C484.395 290.61 485.561 291.672 486.973 292.28C488.382 292.888 489.957 293.007 491.443 292.618C493.968 298.638 497.703 304.067 502.339 308.148C507.803 313.441 514.134 316.487 520.395 317.419C518.355 319.219 517.041 321.847 518.148 324.201C519.288 325.376 521.087 324.372 521.123 322.886C521.155 321.397 521.398 321.708 522.055 320.705L521.987 320.776L522.055 320.705C522.126 320.637 522.23 320.533 522.194 320.601C522.458 320.27 522.76 319.968 523.094 319.704H523.577C524.095 320.72 524.42 321.821 524.548 322.954V322.783C524.616 324.201 524.408 326.344 526.344 326.379C529.526 325.79 527.73 321.019 526.898 318.701C527.321 318.896 527.727 319.127 528.108 319.391C528.076 319.391 528.076 319.391 528.076 319.358C528.076 319.322 528.108 319.391 528.144 319.426L528.248 319.53C529.038 320.133 529.657 320.933 530.047 321.847C530.012 321.812 530.012 321.812 530.012 321.779C530.012 321.744 530.047 321.812 530.047 321.847C530.047 321.912 530.074 321.972 530.115 322.022C530.255 322.401 530.361 322.795 530.426 323.197C530.426 324.165 531.051 325.237 532.158 325.168C533.265 325.1 533.955 324.408 533.886 323.44C533.783 321.226 532.572 318.804 530.808 317.144C532.282 316.803 533.727 316.354 535.133 315.794C534.845 317.81 534.999 319.861 535.58 321.812C536.793 324.372 540.008 322.919 538.557 319.358C538.424 318.429 538.412 317.487 538.522 316.555H538.557L538.936 317.176C539.108 320.083 542.811 320.465 542.568 317.351C542.299 316.111 541.742 314.948 540.943 313.962C541.704 313.926 541.979 314.03 542.982 314.376L543.986 314.965L544.125 315.069H544.161C545.164 315.794 545.647 317.834 547.618 316.901C550.075 314.619 546.407 311.851 542.95 310.812L543.953 309.845L544.125 309.673L544.229 309.534L544.747 309.013C547.411 306.663 554.538 306.973 559.103 305.484C562.909 304.62 566.991 300.088 563.981 296.353ZM560.417 294.693C560.417 294.659 560.384 294.659 560.384 294.624C560.402 294.642 560.414 294.667 560.417 294.693ZM554.606 278.228C554.627 278.149 554.639 278.067 554.642 277.986C554.675 278.02 554.642 278.09 554.606 278.228ZM556.96 271.344C556.957 271.285 556.968 271.225 556.992 271.171C556.968 271.226 556.957 271.285 556.96 271.344ZM482.344 283.762C482.311 284.039 482.344 283.866 482.344 283.762V283.762ZM482.415 285.042C482.43 285.075 482.442 285.11 482.448 285.146C482.436 285.132 482.427 285.116 482.421 285.098C482.415 285.08 482.412 285.061 482.415 285.042ZM487.015 288.121C487.018 288.148 487.03 288.173 487.05 288.19C487.03 288.173 487.018 288.148 487.015 288.121ZM490.025 289.401H489.193C488.865 289.334 488.539 289.241 488.225 289.124C488.675 289.297 487.636 288.847 487.568 288.744C487.5 288.64 487.326 288.501 487.083 288.225C486.843 287.948 486.808 287.81 486.772 287.706C486.737 287.602 486.704 287.602 486.668 287.533C486.254 285.112 484.662 284.904 483.59 285.734H483.347L483.105 285.665L482.794 285.492L482.587 285.285L482.483 285.112C482.471 285.097 482.462 285.081 482.456 285.063C482.45 285.045 482.448 285.026 482.448 285.008C482.302 284.586 482.267 284.133 482.344 283.693C482.533 282.78 482.812 281.888 483.176 281.03C484.292 278.449 485.783 276.048 487.604 273.904C487.595 279.142 488.459 284.344 490.161 289.297L490.025 289.401ZM507.249 307.838C501.474 303.409 496.943 296.977 494.382 290.854C492.89 287.3 491.866 283.567 491.339 279.75C491.029 277.536 490.854 272.728 491.339 269.684C491.339 269.753 491.304 269.857 491.304 269.926C491.925 264.668 494.211 259.168 496.875 255.813C497.807 254.533 500.367 252.008 500.956 251.662C502.167 250.693 505.174 248.964 505.867 248.756C507.72 247.996 509.662 247.473 511.645 247.199C514.963 246.508 521.848 247.614 525.066 249.171C531.187 251.835 535.754 255.64 539.94 260.898C543.779 268.162 547.861 266.294 554.26 268.093C554.737 268.311 555.187 268.578 555.61 268.888C555.903 269.147 556.181 269.425 556.439 269.718H556.406C556.439 269.753 556.439 269.787 556.474 269.787C556.51 269.787 556.821 270.272 556.821 270.445L556.749 270.272C556.844 270.456 556.903 270.655 556.924 270.86C556.933 270.86 556.942 270.863 556.948 270.87C556.954 270.876 556.96 270.885 556.96 270.894C556.942 271.044 556.942 271.195 556.96 271.344C556.93 271.45 556.895 271.554 556.856 271.655L556.749 271.828H556.717C554.985 271.552 553.914 273.593 554.571 275.633C554.68 276.436 554.704 277.248 554.642 278.055C554.642 278.124 554.606 278.159 554.606 278.193L554.467 278.643C554.272 279.043 554.038 279.425 553.775 279.785L553.671 279.888C553.381 280.254 553.044 280.579 552.668 280.857C552.247 281.188 551.783 281.455 551.285 281.652H551.353C550.901 281.804 550.439 281.931 549.971 282.033H549.453C546.928 282.206 543.85 281.687 542.879 280.995C542.811 280.995 542.533 280.649 542.465 280.58C541.254 278.954 538.693 280.442 539.49 282.31V282.379V282.448H539.525C539.49 282.448 539.49 282.448 539.49 282.483C539.454 282.552 539.454 282.586 539.422 282.552C539.386 282.517 539.386 282.621 539.386 282.655C539.345 282.719 539.285 282.768 539.214 282.794L539.04 282.932H539.004C538.762 283.033 538.507 283.103 538.244 283.14C536.826 283.348 533.851 282.31 532.676 281.307C532.048 280.795 531.471 280.228 530.947 279.611C530.536 279.045 530.178 278.443 529.873 277.813C529.458 276.706 529.319 276.222 529.423 275.149C530.669 273.247 527.73 270.687 526.312 273.558C523.266 283.52 539.525 290.335 542.361 284.454C544.4 285.442 546.682 285.826 548.932 285.561C549.071 290.508 548.103 295.766 546.511 299.606C545.593 301.707 544.445 303.703 543.086 305.555C542.914 305.763 542.743 306.005 542.533 306.213C542.13 306.55 541.781 306.947 541.497 307.388C540.694 308.285 539.8 309.096 538.833 309.809C536.758 311.677 531.051 313.994 528.49 314.134C523.819 314.859 518.459 313.719 514.895 312.198C512.406 311.33 508.67 308.98 507.249 307.838ZM560.384 301.059C557.338 303.202 552.842 303.099 548.864 303.895L548.346 303.963C550.11 300.748 551.291 297.247 551.839 293.621C551.874 293.621 551.874 293.621 551.874 293.586C553.742 292.168 556.717 292.307 558.306 292.929L558.514 293.033L559.277 293.483C559.242 293.448 559.277 293.448 559.345 293.517H559.413L560.142 294.209C560.242 294.342 560.334 294.481 560.417 294.624L560.488 294.866V295.039V295.143C560.142 296.249 561.041 298.153 561.352 298.428C561.411 298.514 561.459 298.608 561.488 298.706C561.488 298.774 561.559 298.878 561.559 298.913C561.559 298.949 561.595 299.052 561.595 299.12C561.595 299.191 561.524 299.535 561.488 299.57V299.674L561.178 300.192C560.947 300.512 560.68 300.802 560.384 301.059ZM561.456 299.813C561.491 299.745 561.491 299.674 561.524 299.674L561.456 299.813Z" fill="#E3D5C8"/>
<path d="M527.475 308.564C532.083 303.879 530.568 294.922 524.097 288.562C517.624 282.202 508.643 280.845 504.037 285.533C499.432 290.22 500.944 299.175 507.415 305.536C513.888 311.897 522.869 313.253 527.475 308.564Z" fill="#103E3F"/>
<path d="M171.403 322.886C170.672 324.718 170.128 326.619 169.777 328.557C169.733 328.818 169.742 329.084 169.805 329.339C169.867 329.596 169.981 329.836 170.14 330.046C170.299 330.257 170.499 330.434 170.728 330.564C170.957 330.695 171.21 330.777 171.472 330.807L180.812 331.153C180.948 331.162 181.085 331.139 181.21 331.082C181.335 331.023 181.442 330.934 181.522 330.825C181.602 330.712 181.652 330.582 181.667 330.446C181.682 330.31 181.661 330.171 181.607 330.046C180.853 328.282 179.864 326.631 178.667 325.133C177.214 323.301 175 321.883 172.683 321.986C172.536 321.983 172.39 322.007 172.253 322.06C172.117 322.114 171.992 322.196 171.887 322.297C171.672 322.442 171.504 322.646 171.403 322.886Z" fill="#CE9C5C"/>
<path d="M171.472 328.867V328.938C171.507 328.938 171.472 328.903 171.472 328.867Z" fill="#E3D5C8"/>
<path d="M182.922 328.732C181.434 325.721 179.428 322.607 176.315 321.05C174.205 320.047 170.642 319.565 169.742 322.436C167.044 328.939 166.975 333.367 175.415 332.674C178.425 332.813 185.239 333.989 182.922 328.732ZM171.472 328.868V328.8C171.476 328.8 171.481 328.8 171.485 328.803C171.489 328.803 171.493 328.806 171.496 328.809C171.5 328.815 171.502 328.817 171.504 328.82C171.505 328.826 171.506 328.829 171.506 328.835L171.472 328.868ZM171.472 328.868C171.472 328.877 171.468 328.886 171.462 328.894C171.455 328.9 171.447 328.903 171.437 328.903C171.403 328.835 171.437 328.835 171.472 328.868ZM171.679 329.078H171.645C171.645 329.078 171.507 329.042 171.472 328.939V328.835C171.495 328.791 171.507 328.743 171.506 328.696C172.51 328.868 173.617 328.696 174.239 328.211C174.862 327.728 174.516 325.203 173.028 325.236H172.406C172.579 324.718 172.752 324.2 172.959 323.646H173.409C176.28 324.096 178.044 326.967 179.393 329.318L171.679 329.078ZM180.777 329.421C180.812 329.457 180.846 329.421 180.777 329.421V329.421Z" fill="#E3D5C8"/>
<path d="M162.478 316.693L162.063 317.072C161.63 317.324 161.281 317.697 161.06 318.147C159.192 321.051 162.651 324.89 165.764 323.679C171.022 321.675 167.39 313.751 162.478 316.693Z" fill="#E3D5C8"/>
<path d="M175 313.512L174.585 313.891C174.145 314.133 173.793 314.509 173.582 314.962C171.714 317.869 175.173 321.708 178.286 320.497C183.544 318.49 179.912 310.569 175 313.512Z" fill="#E3D5C8"/>
<path d="M200.183 330.703C199.076 329.214 194.856 323.472 191.984 322.711C184.547 296.388 149.887 290.818 134.459 323.785C134.302 323.963 134.128 324.123 133.94 324.268C130.239 326.446 123.113 326.378 120.865 331.464C119.515 333.817 120.657 337.62 123.217 338.242C122.975 343.224 126.226 346.198 130.239 347.166C130.446 348.759 130.654 350.28 130.965 351.734C125.707 350.73 118.754 354.605 120.311 359.69C120.346 359.726 120.346 359.758 120.311 359.829C120.322 359.889 120.309 359.951 120.276 360.001C118.132 363.011 121.003 367.3 124.773 368.165C129.72 369.722 137.053 368.2 140.512 369.757L141.792 370.864H141.827L142.865 371.657C140.443 372.661 138.368 374.668 138.299 377.193C138.61 378.578 140.824 378.921 141.481 377.607C142.138 376.293 142.104 376.364 143.038 375.5C143.417 375.248 143.81 375.017 144.214 374.807C144.205 374.807 144.196 374.81 144.189 374.816C144.183 374.822 144.179 374.831 144.179 374.839C144.179 374.831 144.183 374.822 144.189 374.816C144.196 374.81 144.205 374.807 144.214 374.807H144.248C144.456 374.736 144.352 374.807 144.248 374.839C144.697 374.671 145.16 374.543 145.632 374.461C144.49 375.982 143.833 377.989 144.871 379.51C145.909 381.032 148.053 379.442 147.846 377.782C147.915 377.575 147.95 377.367 148.019 377.157C148.113 377.015 148.194 376.864 148.261 376.71C148.365 377.125 148.469 377.575 148.538 378.024C148.647 378.978 148.636 379.943 148.503 380.896C147.915 382.417 150.821 384.32 151.858 381.724C152.18 379.67 152.062 377.572 151.513 375.568C153.001 375.914 154.518 376.121 156.044 376.189C154.481 377.974 153.663 380.289 153.761 382.66C153.83 383.557 154.522 384.424 155.491 384.388C157.116 384.353 157.324 382.763 157.255 381.482C157.333 380.999 157.46 380.523 157.635 380.064C157.861 379.581 158.127 379.12 158.431 378.682H158.465C158.776 378.3 159.123 377.953 159.503 377.643L160.022 377.296C159.482 379.315 159.388 381.428 159.745 383.489C160.402 385.806 163.862 384.56 163.066 382.346C162.991 381.867 162.968 381.381 162.997 380.896C162.985 380.443 163.009 379.993 163.066 379.546V379.475C163.164 378.927 163.291 378.386 163.446 377.85L164.035 377.711C164.994 378.258 165.756 379.093 166.214 380.099C166.421 381.275 167.252 382.521 168.601 382.106C169.035 381.976 169.403 381.686 169.628 381.292C169.853 380.899 169.919 380.434 169.811 379.996C169.27 377.909 167.96 376.106 166.145 374.946C177.214 371.625 187.522 361.904 191.535 346.891L191.638 346.58C194.717 347.03 197.796 345.059 198.868 342.152C199.864 342.049 200.799 341.625 201.532 340.942C204.576 337.967 202.189 333.539 200.183 330.703ZM124.151 334.956L124.081 334.888L124.151 334.956ZM123.736 334.196C123.77 334.231 123.77 334.264 123.77 334.335C123.775 334.284 123.763 334.237 123.736 334.196ZM124.289 338.278L124.808 338.209C124.731 338.254 124.645 338.286 124.556 338.298C124.467 338.31 124.376 338.301 124.289 338.278ZM123.148 363.115C123.093 362.982 123.058 362.843 123.044 362.701C123.044 362.597 123.009 362.526 123.009 362.422V362.354C123.042 362.289 123.066 362.218 123.078 362.147C123.701 361.072 124.047 359.758 123.563 358.583C123.528 358.548 123.528 358.444 123.528 358.408V358.169L123.632 357.89C123.701 357.787 123.909 357.373 123.978 357.304C124.047 357.233 123.978 357.269 124.012 357.233C124.23 356.946 124.486 356.692 124.773 356.473C124.739 356.473 124.739 356.437 124.842 356.405H124.912C125.135 356.254 125.365 356.115 125.603 355.987L126.053 355.747C127.744 355.013 129.654 354.963 131.38 355.608C131.58 355.801 131.815 355.955 132.072 356.058C133.092 359.477 134.67 362.701 136.742 365.604C131.173 365.086 125.016 366.297 123.148 363.115ZM142.968 375.568L143.038 375.5C143.003 375.532 143.003 375.568 142.968 375.568ZM174.377 366.99C173.513 367.818 168.67 370.654 167.667 370.932C163.55 372.765 158.535 373.318 155.075 372.836C153.484 372.696 150.129 371.657 149.472 371.347C147.95 370.793 145.044 368.961 144.456 368.44L144.179 368.233C143.892 367.943 143.579 367.676 143.245 367.439C142.111 366.403 141.059 365.282 140.097 364.083C136.465 359.308 134.701 354.433 133.802 348.413C133.748 348.105 133.725 347.791 133.733 347.48C135.984 347.421 138.176 346.737 140.063 345.506C141.827 347.409 145.701 347.513 148.053 346.027C149.572 345.322 150.935 344.325 152.064 343.09C153.192 341.856 154.063 340.406 154.626 338.831C157.324 330.875 150.267 329.457 151.374 334.057C151.472 334.163 151.532 334.296 151.547 334.438C151.62 334.616 151.678 334.802 151.72 334.992C151.893 337.792 150.613 339.938 148.261 341.909C147.656 342.356 147.007 342.738 146.324 343.052C145.723 343.304 145.097 343.49 144.456 343.606H143.453L143.038 343.466L142.865 343.363L142.726 343.259L142.623 343.12V343.016C142.623 342.981 142.657 342.981 142.657 342.948C143.245 340.838 140.063 339.903 139.302 341.909H139.233L138.99 342.152C138.99 342.188 138.921 342.22 138.887 342.256C137.884 343.016 135.635 343.606 133.698 343.952H133.421C132.81 343.984 132.199 343.984 131.588 343.952L130.377 343.674L129.997 343.534C128.924 343.156 127.887 342.084 127.61 341.738C127.333 341.391 127.299 341.252 127.126 341.01C127.013 340.634 126.921 340.255 126.849 339.87C126.849 337.449 126.883 334.231 124.047 334.785C124.029 334.785 124.011 334.776 123.998 334.764C123.985 334.752 123.978 334.734 123.978 334.714L123.909 334.578C123.899 334.578 123.891 334.572 123.884 334.566C123.878 334.56 123.874 334.551 123.874 334.542C123.838 334.388 123.792 334.24 123.736 334.092C123.73 333.953 123.742 333.814 123.77 333.678C123.811 333.444 123.869 333.21 123.943 332.985C123.874 333.053 123.909 333.053 123.943 332.985C123.978 332.917 123.978 332.917 123.978 332.881C123.978 332.846 124.289 332.363 124.358 332.292L124.427 332.189C124.729 331.801 125.077 331.452 125.465 331.153C125.396 331.185 125.361 331.185 125.361 331.221C125.64 331.034 125.929 330.86 126.226 330.703L126.641 330.528C139.786 326.76 135.22 326.896 142.484 316.865C144.398 314.414 146.605 312.206 149.056 310.294C150.336 309.255 153.726 307.076 156.009 306.212C160.887 303.894 169.12 303.616 173.962 305.901C175.717 306.697 177.386 307.671 178.944 308.805C180.581 310.11 182.066 311.596 183.371 313.233C186.899 317.661 188.94 323.818 189.563 328.628C190.566 336.549 189.459 343.638 186.415 351.008C184.029 356.68 179.808 362.837 174.377 366.99ZM142.588 342.981C142.553 342.948 142.588 342.948 142.588 342.981V342.981ZM142.588 343.156V343.191V343.156ZM142.553 343.052V342.981C142.555 343.008 142.568 343.034 142.588 343.052H142.553ZM151.547 334.37V334.299C151.555 334.323 151.555 334.347 151.547 334.37ZM199.456 338.002C199.387 338.174 199.422 338.035 199.456 337.931C199.406 338.041 199.348 338.144 199.283 338.242C199.214 338.313 199.145 338.417 199.076 338.449L198.73 338.624H198.522C196.897 337.481 195.547 339.42 195.755 340.213C195.727 340.548 195.646 340.876 195.513 341.184C195.267 341.673 194.926 342.108 194.51 342.463L193.887 342.845C193.597 342.957 193.295 343.04 192.988 343.085H192.434C193.494 338.014 193.693 332.799 193.022 327.657C196.032 330.425 198.73 334.024 199.525 336.963V337.585C199.491 337.656 199.491 337.828 199.456 337.899V338.002Z" fill="#E3D5C8"/>
<path d="M198.522 338.66H198.557C198.557 338.669 198.561 338.678 198.567 338.684C198.574 338.69 198.582 338.693 198.591 338.693C198.601 338.693 198.609 338.69 198.616 338.684C198.623 338.678 198.626 338.669 198.626 338.66H198.522Z" fill="#E3D5C8"/>
<path d="M124.912 356.301H124.877L124.773 356.404L124.912 356.301Z" fill="#E3D5C8"/>
<path d="M177.489 361.907C183.039 354.729 183.322 345.651 178.122 341.631C172.922 337.612 164.208 340.175 158.659 347.356C153.109 354.534 152.826 363.612 158.026 367.632C163.226 371.652 171.94 369.088 177.489 361.907Z" fill="#103E3F"/>
<path d="M284.862 97.7992C284.557 99.7433 284.441 101.713 284.516 103.68C284.533 103.941 284.603 104.195 284.722 104.429C284.84 104.662 285.004 104.869 285.204 105.037C285.405 105.205 285.637 105.331 285.888 105.407C286.138 105.482 286.401 105.507 286.661 105.478L295.862 103.749C295.996 103.721 296.121 103.661 296.225 103.574C296.331 103.486 296.411 103.374 296.465 103.248C296.515 103.121 296.536 102.984 296.521 102.848C296.506 102.712 296.459 102.582 296.382 102.469C295.256 100.916 293.917 99.5299 292.403 98.3524C290.604 96.865 288.114 96.0004 285.865 96.6229C285.584 96.696 285.339 96.868 285.174 97.1071C284.996 97.2972 284.887 97.5405 284.862 97.7992Z" fill="#CE9C5C"/>
<path d="M277.875 88.0441L277.598 88.2516C276.699 88.563 275.972 89.324 275.696 90.6383C275.142 93.2327 277.667 95.8964 280.296 95.3429C285.935 94.063 283.167 85.519 277.875 88.0441Z" fill="#E3D5C8"/>
<path d="M290.778 87.6625L290.501 87.87C289.636 88.1814 288.875 88.9424 288.598 90.257C288.045 92.8511 290.57 95.5148 293.199 94.9613C298.839 93.6814 296.071 85.1374 290.778 87.6625Z" fill="#E3D5C8"/>
<path d="M331.458 105.755C334.225 100.601 326.372 97.2109 322.083 99.6322C319.973 100.497 318.002 101.708 315.927 102.642C315.716 101.535 315.441 100.393 315.13 99.2864C305.617 65.1446 266.598 67.2202 256.843 100.047C256.567 100.947 256.324 101.881 256.117 102.815C253.453 101.638 249.095 98.4908 245.428 98.8712C241.761 99.2518 238.268 102.711 240.239 105.79C233.667 111.912 239.651 121.356 247.261 122.774C247.192 125.264 249.579 127.928 252.139 128.55C253.765 129.198 255.51 129.492 257.258 129.415C260.579 138.893 266.909 145.916 274.727 149.167C272.651 150.724 271.129 153.145 271.683 155.566C272.34 156.846 274.554 156.604 274.831 155.151C274.9 154.771 275.038 154.425 275.142 154.044C275.972 152.453 276.387 152.038 278.082 151.208H278.151C277.622 152.513 277.501 153.949 277.806 155.324C278.532 157.677 281.922 156.293 281.092 154.079V153.353C281.127 153.18 281.195 153.007 281.23 152.834C281.401 153.111 281.551 153.4 281.68 153.699C281.873 154.231 282.035 154.773 282.164 155.324C282.236 155.598 282.294 155.875 282.337 156.155C282.06 158.749 285.589 159.545 285.865 156.812C285.72 154.87 285.191 152.978 284.309 151.242H284.862C286.078 151.237 287.292 151.144 288.494 150.966C287.539 152.973 287.342 155.259 287.941 157.4C288.218 158.265 289.186 158.922 290.086 158.61C290.985 158.299 291.504 156.777 291.089 155.636C291.037 155.176 291.037 154.712 291.089 154.252C291.089 154.183 291.123 154.079 291.123 154.044C291.469 152.557 291.78 151.761 292.715 150.862C292.68 152.315 292.991 154.183 293.821 156.466C294.652 158.749 297.8 157.677 297.142 155.566C296.417 154.01 296.207 151.831 296.278 150.481C296.474 150.43 296.66 150.349 296.832 150.239L297.489 150.481C298.075 150.724 299.46 151.658 299.943 152.868C301.017 154.805 304.06 153.041 302.92 151.104C302.032 149.361 300.546 147.997 298.732 147.264C299.667 146.711 300.567 146.088 301.467 145.431C306.62 141.522 310.738 135.988 313.47 129.346C315.329 129.597 317.223 129.42 319.005 128.827C321.773 128.274 324.608 125.472 324.537 122.843C332.079 121.356 338.168 111.808 331.458 105.755ZM330.697 110.529C330.697 110.459 330.662 110.425 330.662 110.39C330.662 110.356 330.697 110.459 330.697 110.529ZM328.551 103.679L328.483 103.576C328.501 103.586 328.516 103.601 328.53 103.619C328.542 103.637 328.548 103.658 328.551 103.679ZM243.491 103.195L243.422 103.299L243.491 103.195ZM241.173 106.758H241.243C241.45 106.931 241.346 106.896 241.173 106.758ZM241.07 105.098L240.966 105.167L241.07 105.098ZM277.702 151.346L277.979 151.242L277.702 151.346ZM321.044 122.808L321.116 122.878L321.044 122.808ZM320.905 122.636C320.926 122.653 320.938 122.678 320.941 122.705C320.938 122.678 320.926 122.653 320.905 122.636ZM330.869 112.742C330.768 113.27 330.629 113.79 330.454 114.299V114.368C329.519 116.72 326.544 118.312 324.505 119.28C324.111 119.432 323.706 119.548 323.294 119.626H322.67C320.698 118.692 319.038 121.528 320.941 122.67H321.009V122.739H321.044C321.044 122.788 321.056 122.835 321.08 122.878V123.085C321.08 123.12 321.044 123.154 321.044 123.189C321.021 123.231 321.009 123.279 321.009 123.327C320.698 124.088 319.177 124.919 318.623 125.161C317.108 125.763 315.471 125.989 313.849 125.818C313.053 125.712 312.274 125.503 311.531 125.195C310.921 124.941 310.338 124.616 309.802 124.227H309.838C309.533 123.979 309.246 123.713 308.974 123.431C308.837 123.248 308.722 123.05 308.627 122.843C308.592 122.843 308.556 122.774 308.556 122.739H308.524C308.281 120.283 304.474 120.802 305.063 123.258C305.652 125.714 307.588 127.271 309.767 128.239C304.545 140.485 294.029 148.095 283.271 147.299C273.274 146.573 265.076 139.62 261.063 128.62C261.633 128.402 262.187 128.147 262.724 127.859C270.161 123.639 265.041 118.208 263.243 122.705C263.095 122.996 262.921 123.274 262.724 123.535C262.004 124.272 261.146 124.86 260.199 125.265C259.689 125.487 259.155 125.65 258.607 125.749H258.227C255.875 126.06 253.073 125.507 251.585 124.296C251.373 124.118 251.176 123.921 250.997 123.708C250.904 123.577 250.823 123.438 250.755 123.293C250.721 123.224 250.721 123.154 250.686 123.085V122.878C250.706 122.86 250.718 122.835 250.721 122.808L250.824 122.601C252.623 121.805 251.343 118.554 249.198 119.557H248.541C248.115 119.472 247.697 119.344 247.296 119.176C245.809 118.484 243.352 117.204 242.107 115.579C241.801 115.174 241.545 114.732 241.346 114.264C241.326 114.247 241.314 114.222 241.312 114.195C241.16 113.803 241.044 113.398 240.966 112.984C240.931 112.915 240.931 112.708 240.897 112.673C240.827 111.636 240.793 111.117 241.104 110.286C241.415 109.456 243.422 107.969 244.148 106.377C244.529 105.478 243.768 104.198 243.18 103.852V103.921L243.284 103.645C243.337 103.556 243.383 103.464 243.422 103.368C243.802 102.988 243.768 102.918 244.321 102.676H244.356C245.428 102.33 245.636 102.33 246.812 102.399C247.397 102.516 247.966 102.701 248.507 102.953C264.661 111.878 255.148 102.918 266.494 88.7358C268.743 85.5535 274.208 81.0567 277.84 79.7075C279.785 78.8817 281.833 78.3231 283.928 78.0473C285.836 77.8365 287.762 77.8365 289.671 78.0473H289.705L291.677 78.4276C292.891 78.7192 294.082 79.1007 295.24 79.5693C297.202 80.4218 299.049 81.514 300.739 82.8208C302.639 84.3476 304.359 86.0887 305.86 88.0094C308.213 91.0189 310.667 95.8964 311.774 100.116C312.674 103.437 312.638 108.557 317.62 105.72C320.077 104.613 322.394 103.091 324.573 102.503C325.162 102.368 325.772 102.333 326.372 102.399C326.725 102.459 327.074 102.552 327.408 102.676L327.962 102.988L328.033 103.057L328.308 103.368H328.344C328.376 103.455 328.424 103.537 328.483 103.61C328.483 103.645 328.516 103.679 328.516 103.714C328.524 103.787 328.548 103.858 328.587 103.921V103.991C326.062 105.755 328.829 108.245 329.901 109.318C330.197 109.68 330.454 110.074 330.662 110.494C330.697 110.563 330.697 110.598 330.73 110.598C330.762 110.808 330.81 111.016 330.869 111.22C330.901 111.727 330.901 112.236 330.869 112.742Z" fill="#E3D5C8"/>
<path d="M309.802 124.33C309.595 124.123 309.734 124.296 309.802 124.33V124.33Z" fill="#E3D5C8"/>
<path d="M298.181 102.295C296.035 97.7984 286.834 90.811 283.271 97.072C281.957 104.301 282.372 109.11 291.089 106.412C293.579 105.616 298.839 106.204 298.181 102.295ZM286.35 103.783C286.384 103.783 286.384 103.783 286.384 103.817L286.35 103.783ZM286.488 103.748C286.453 103.758 286.416 103.761 286.38 103.754C286.344 103.749 286.31 103.735 286.28 103.714C286.28 103.575 286.246 103.575 286.246 103.644V103.437C289.567 103.402 290.259 99.701 286.869 99.77L286.384 99.9085H286.35C286.384 99.355 286.454 98.8015 286.523 98.248C286.626 98.2136 287.284 98.1097 286.799 98.2136C287.041 98.0751 287.906 98.2136 288.148 98.2136C290.604 98.6979 292.438 100.6 294.098 102.364L286.488 103.748ZM294.894 103.368C294.928 103.402 294.928 103.437 294.963 103.437L294.894 103.368Z" fill="#E3D5C8"/>
<path d="M299.949 127.628C300.615 118.578 295.221 110.806 287.905 110.269C280.588 109.731 274.119 116.632 273.454 125.683C272.789 134.733 278.182 142.505 285.498 143.042C292.814 143.58 299.283 136.678 299.949 127.628Z" fill="#103E3F"/>
<path d="M483.658 195.312C478.712 195.346 478.019 190.123 477.433 186.352L474.597 189.95C470.412 195.173 462.213 189.431 465.637 183.723C457.924 184.934 455.017 172.896 467.227 172.308C463.388 170.371 459.031 167.673 461.624 162.761C464.738 157.884 469.305 160.651 473.005 163.003C471.966 158.818 470.93 153.491 476.498 152.211C482.068 150.931 483.14 156.742 483.729 161.032L486.6 157.469C491.096 151.9 499.535 158.714 495.11 164.283L492.582 167.466C502.303 164.007 505.66 174.868 498.049 177.532C503.481 181.544 497.91 190.019 492.064 186.629L488.19 184.381C489.4 189.085 490.093 194.793 483.658 195.312ZM478.229 181.786C478.552 181.79 478.863 181.905 479.108 182.114C479.354 182.322 479.52 182.61 479.576 182.928L480.997 190.33C481.618 193.79 487.015 192.787 486.322 189.327L484.904 181.959C484.857 181.701 484.883 181.434 484.984 181.191C485.082 180.947 485.25 180.737 485.463 180.585C485.677 180.432 485.931 180.344 486.192 180.33C486.455 180.316 486.716 180.377 486.946 180.507C488.364 181.025 493.897 185.315 495.525 184.519C497.807 184 498.221 180.68 496.182 179.573L493.553 178.051C492.446 177.462 492.757 175.698 493.968 175.525L497.218 174.903C500.678 174.28 499.674 168.849 496.214 169.576L489.436 170.855C488.225 171.132 487.29 169.61 488.086 168.642C488.882 167.673 494.071 162.311 493.553 160.582C493.379 158.264 490.128 157.33 488.743 159.198L484.004 165.079C483.838 165.28 483.622 165.43 483.374 165.512C483.128 165.595 482.862 165.606 482.61 165.545C482.355 165.483 482.128 165.352 481.944 165.165C481.763 164.979 481.639 164.745 481.583 164.491C480.719 162.208 481.204 154.009 477.019 154.909C472.833 155.808 476.222 163.038 476.255 165.459C475.772 171.236 466.641 158.922 464.012 164.145C460.795 169.057 476.915 171.236 471.38 174.315C469.995 174.834 462.905 175.214 462.213 176.875C460.827 178.777 462.663 181.544 464.945 181.06L468.716 180.334C469.926 180.057 470.859 181.614 470.03 182.547L468.198 184.83C465.984 187.529 470.273 191.022 472.451 188.221C473.144 187.667 477.19 181.475 478.229 181.786Z" fill="#103E3F"/>
<path d="M388.843 62.7921C388.476 62.7921 388.124 62.6462 387.866 62.3869C387.606 62.1273 387.461 61.7754 387.461 61.4083V28.6158C387.461 28.2489 387.606 27.8969 387.866 27.6374C388.124 27.378 388.476 27.2322 388.843 27.2322C389.21 27.2322 389.563 27.378 389.823 27.6374C390.081 27.8969 390.229 28.2489 390.229 28.6158V61.4083C390.229 61.7754 390.081 62.1273 389.823 62.3869C389.563 62.6462 389.21 62.7921 388.843 62.7921Z" fill="#EFDCC4"/>
<path d="M377.119 60.4739C376.793 60.4715 376.477 60.362 376.219 60.1625C375.947 59.9225 375.778 59.5847 375.751 59.2224C375.728 58.8598 375.843 58.5019 376.08 58.2255L399.499 30.2757C399.736 29.996 400.077 29.8222 400.444 29.7929C400.811 29.7639 401.172 29.8814 401.453 30.12C401.731 30.3586 401.906 30.6984 401.935 31.0648C401.965 31.4316 401.847 31.7945 401.61 32.0745L378.19 59.9896C378.054 60.1391 377.888 60.259 377.705 60.3425C377.518 60.4256 377.32 60.4703 377.119 60.4739Z" fill="#EFDCC4"/>
<path d="M401.713 59.402C401.53 59.4014 401.352 59.3644 401.187 59.2931C401.018 59.2217 400.87 59.1175 400.743 58.987L374.973 33.2164C374.718 32.9577 374.576 32.6099 374.576 32.2479C374.576 31.8856 374.718 31.5378 374.973 31.2793C375.1 31.1494 375.248 31.0464 375.417 30.9759C375.583 30.9055 375.76 30.8694 375.941 30.8694C376.121 30.8694 376.302 30.9055 376.468 30.9759C376.633 31.0464 376.784 31.1494 376.909 31.2793L402.714 57.0497C402.969 57.3084 403.111 57.6562 403.111 58.0185C403.111 58.3805 402.969 58.7283 402.714 58.987C402.584 59.1202 402.43 59.2256 402.255 59.2969C402.083 59.3683 401.9 59.4041 401.713 59.402Z" fill="#EFDCC4"/>
<path d="M405.207 46.3962H372.448C372.081 46.3962 371.729 46.2503 371.468 45.991C371.211 45.7314 371.066 45.3794 371.066 45.0124C371.066 44.6457 371.211 44.2937 371.468 44.0341C371.729 43.7745 372.081 43.6289 372.448 43.6289H405.207C405.574 43.6289 405.926 43.7745 406.183 44.0341C406.444 44.2937 406.589 44.6457 406.589 45.0124C406.589 45.3794 406.444 45.7314 406.183 45.991C405.926 46.2503 405.574 46.3962 405.207 46.3962Z" fill="#EFDCC4"/>
<path d="M128.751 166.013C128.385 166.013 128.033 165.867 127.773 165.607C127.514 165.348 127.368 164.996 127.368 164.629V131.871C127.368 131.504 127.514 131.152 127.773 130.893C128.033 130.633 128.385 130.487 128.751 130.487C128.932 130.487 129.11 130.523 129.276 130.593C129.442 130.663 129.592 130.766 129.718 130.895C129.844 131.024 129.942 131.176 130.008 131.344C130.074 131.512 130.105 131.691 130.101 131.871V164.629C130.105 164.809 130.074 164.988 130.008 165.156C129.942 165.324 129.844 165.477 129.718 165.606C129.592 165.734 129.442 165.837 129.276 165.907C129.11 165.977 128.932 166.013 128.751 166.013Z" fill="#EFDCC4"/>
<path d="M117.025 163.73C116.693 163.729 116.373 163.606 116.125 163.384C115.848 163.149 115.674 162.813 115.641 162.451C115.609 162.088 115.721 161.727 115.953 161.447L139.406 133.531C139.652 133.296 139.976 133.159 140.316 133.148C140.656 133.136 140.989 133.251 141.25 133.469C141.511 133.687 141.683 133.995 141.732 134.331C141.781 134.669 141.704 135.012 141.516 135.296L118.063 163.211C117.941 163.371 117.784 163.501 117.604 163.591C117.424 163.681 117.226 163.728 117.025 163.73Z" fill="#EFDCC4"/>
<path d="M141.62 162.657C141.439 162.657 141.26 162.619 141.093 162.548C140.927 162.477 140.776 162.373 140.651 162.242L114.88 136.472C114.75 136.343 114.646 136.189 114.575 136.02C114.504 135.851 114.468 135.669 114.468 135.486C114.468 135.302 114.504 135.12 114.575 134.951C114.646 134.782 114.75 134.628 114.88 134.5C115.139 134.246 115.487 134.104 115.849 134.104C116.211 134.104 116.559 134.246 116.817 134.5L142.588 160.305C142.718 160.431 142.821 160.581 142.891 160.748C142.962 160.914 142.998 161.093 142.998 161.273C142.998 161.454 142.962 161.633 142.891 161.799C142.821 161.966 142.718 162.116 142.588 162.242C142.464 162.374 142.314 162.479 142.147 162.551C141.981 162.622 141.801 162.658 141.62 162.657Z" fill="#EFDCC4"/>
<path d="M145.113 149.617H112.355C112.175 149.621 111.996 149.59 111.828 149.524C111.661 149.458 111.508 149.36 111.379 149.234C111.25 149.108 111.148 148.958 111.077 148.792C111.007 148.626 110.971 148.448 110.972 148.268C110.972 147.9 111.117 147.549 111.377 147.289C111.636 147.03 111.988 146.884 112.355 146.884H145.113C145.48 146.884 145.832 147.03 146.092 147.289C146.351 147.549 146.497 147.9 146.497 148.268C146.497 148.448 146.461 148.626 146.391 148.792C146.321 148.958 146.218 149.108 146.09 149.234C145.961 149.36 145.808 149.458 145.64 149.524C145.473 149.59 145.293 149.621 145.113 149.617Z" fill="#EFDCC4"/>
</svg>
