<svg width="45" height="45" viewBox="0 0 45 45" fill="none" xmlns="http://www.w3.org/2000/svg">
<g id="eva:email-fill">
<path id="Vector" d="M35.625 7.5H9.375C7.88316 7.5 6.45242 8.09263 5.39752 9.14752C4.34263 10.2024 3.75 11.6332 3.75 13.125V31.875C3.75 33.3668 4.34263 34.7976 5.39752 35.8525C6.45242 36.9074 7.88316 37.5 9.375 37.5H35.625C37.1168 37.5 38.5476 36.9074 39.6025 35.8525C40.6574 34.7976 41.25 33.3668 41.25 31.875V13.125C41.25 11.6332 40.6574 10.2024 39.6025 9.14752C38.5476 8.09263 37.1168 7.5 35.625 7.5ZM35.625 11.25L23.4375 19.6313C23.1525 19.7958 22.8291 19.8825 22.5 19.8825C22.1709 19.8825 21.8475 19.7958 21.5625 19.6313L9.375 11.25H35.625Z" fill="#E3D3C4"/>
</g>
</svg>
