<svg width="96" height="96" viewBox="0 0 96 96" fill="none" xmlns="http://www.w3.org/2000/svg">
<path d="M13.6909 29.4599V35.7939H82.3092V29.4599C82.3092 24.7956 78.5281 21.0145 73.8638 21.0145H22.1362C17.472 21.0145 13.6909 24.7956 13.6909 29.4599Z" fill="#F04343"/>
<path fill-rule="evenodd" clip-rule="evenodd" d="M11.5795 37.9052V29.4599C11.5795 23.6296 16.3059 18.9032 22.1362 18.9032H73.8638C79.6941 18.9032 84.4205 23.6296 84.4205 29.4599V37.9052H11.5795ZM82.3092 29.4599C82.3092 24.7956 78.5281 21.0145 73.8638 21.0145H22.1362C17.472 21.0145 13.6909 24.7956 13.6909 29.4599V35.7939H82.3092V29.4599Z" fill="#B90E0E"/>
<path fill-rule="evenodd" clip-rule="evenodd" d="M13.6909 33.6826H80.1978V27.3486C80.1978 25.5557 79.6392 23.8933 78.6864 22.526C80.8762 24.0519 82.3092 26.5885 82.3092 29.4599V35.7939H13.6909V33.6826Z" fill="#DE3030"/>
<path fill-rule="evenodd" clip-rule="evenodd" d="M22.5105 23.1625C22.6543 24.0251 22.0715 24.841 21.2089 24.9848C19.8391 25.213 18.4646 26.4866 17.9377 28.7329C17.7379 29.5843 16.8858 30.1126 16.0344 29.9129C15.1829 29.7132 14.6546 28.861 14.8543 28.0096C15.581 24.9116 17.7034 22.3583 20.6882 21.8608C21.5509 21.7171 22.3667 22.2998 22.5105 23.1625Z" fill="#FF857D"/>
<path d="M13.6909 40.0165V72.7422C13.6909 77.4064 17.4719 81.1875 22.1362 81.1875H73.8638C78.5281 81.1875 82.3092 77.4064 82.3092 72.7422V40.0165L13.6909 40.0165Z" fill="#FFDD9B"/>
<path fill-rule="evenodd" clip-rule="evenodd" d="M11.5795 37.9052L84.4205 37.9052V72.7422C84.4205 78.5725 79.6941 83.2989 73.8638 83.2989H22.1362C16.3059 83.2989 11.5795 78.5725 11.5795 72.7422V37.9052ZM13.6909 40.0165L82.3092 40.0165V72.7422C82.3092 77.4064 78.5281 81.1875 73.8638 81.1875H22.1362C17.4719 81.1875 13.6909 77.4064 13.6909 72.7422V40.0165Z" fill="#D8A05E"/>
<path fill-rule="evenodd" clip-rule="evenodd" d="M16.3323 78.8773C17.8455 80.3093 19.8883 81.1876 22.1362 81.1876H73.8638C78.5281 81.1876 82.3092 77.4065 82.3092 72.7423V40.0166H80.1978V72.7423C80.1978 76.2404 77.3619 79.0762 73.8638 79.0762H17.9134C17.3675 79.0762 16.8377 79.0072 16.3323 78.8773Z" fill="#EAC276"/>
<path d="M15.8022 44.1153V65.5964C17.2445 59.2745 22.903 45.7052 33.9986 42.004H17.9135C16.7475 42.004 15.8022 42.9492 15.8022 44.1153Z" fill="#FFE8BC"/>
<path d="M76.1115 59.707C76.1115 60.3313 75.6054 60.8375 74.981 60.8375C74.3566 60.8375 73.8505 60.3313 73.8505 59.707C73.8505 59.0826 74.3566 58.5764 74.981 58.5764C75.6054 58.5764 76.1115 59.0826 76.1115 59.707Z" fill="#ECB768"/>
<path d="M80.6902 62.3637C80.6902 63.2066 80.0069 63.8899 79.164 63.8899C78.3211 63.8899 77.6378 63.2066 77.6378 62.3637C77.6378 61.5208 78.3211 60.8375 79.164 60.8375C80.0069 60.8375 80.6902 61.5208 80.6902 62.3637Z" fill="#ECB768"/>
<path d="M79.9271 57.4036C79.9271 58.0357 79.4146 58.5482 78.7824 58.5482C78.1502 58.5482 77.6378 58.0357 77.6378 57.4036C77.6378 56.7714 78.1502 56.2589 78.7824 56.2589C79.4146 56.2589 79.9271 56.7714 79.9271 57.4036Z" fill="#ECB768"/>
<path d="M80.8576 68.9207C80.8576 70.2319 79.7947 71.2948 78.4835 71.2948C77.1723 71.2948 76.1094 70.2319 76.1094 68.9207C76.1094 67.6095 77.1723 66.5466 78.4835 66.5466C79.7947 66.5466 80.8576 67.6095 80.8576 68.9207Z" fill="#ECB768"/>
<path d="M76.1116 64.653C76.1116 65.4959 75.4283 66.1792 74.5854 66.1792C73.7425 66.1792 73.0592 65.4959 73.0592 64.653C73.0592 63.8101 73.7425 63.1268 74.5854 63.1268C75.4283 63.1268 76.1116 63.8101 76.1116 64.653Z" fill="#ECB768"/>
<path d="M76.8326 73.8668C76.8326 74.3781 76.4181 74.7926 75.9068 74.7926C75.3955 74.7926 74.981 74.3781 74.981 73.8668C74.981 73.3555 75.3955 72.941 75.9068 72.941C76.4181 72.941 76.8326 73.3555 76.8326 73.8668Z" fill="#ECB768"/>
<path d="M73.6223 76.7778C73.6223 77.6207 72.939 78.304 72.0961 78.304C71.2532 78.304 70.5699 77.6207 70.5699 76.7778C70.5699 75.935 71.2532 75.2516 72.0961 75.2516C72.939 75.2516 73.6223 75.935 73.6223 76.7778Z" fill="#ECB768"/>
<path d="M73.8505 71.5775C73.8505 72.4204 73.1672 73.1037 72.3243 73.1037C71.4814 73.1037 70.7981 72.4204 70.7981 71.5775C70.7981 70.7346 71.4814 70.0513 72.3243 70.0513C73.1672 70.0513 73.8505 70.7346 73.8505 71.5775Z" fill="#ECB768"/>
<path d="M68.2544 78.8552C68.2544 79.4873 67.7419 79.9998 67.1098 79.9998C66.4776 79.9998 65.9651 79.4873 65.9651 78.8552C65.9651 78.223 66.4776 77.7105 67.1098 77.7105C67.7419 77.7105 68.2544 78.223 68.2544 78.8552Z" fill="#ECB768"/>
<path d="M34.3477 26.3519C34.3477 28.7895 32.3716 30.7656 29.934 30.7656C27.4964 30.7656 25.5203 28.7895 25.5203 26.3519C25.5203 23.9143 27.4964 21.9382 29.934 21.9382C32.3716 21.9382 34.3477 23.9143 34.3477 26.3519Z" fill="#8C1111"/>
<path d="M52.4137 26.3519C52.4137 28.7895 50.4376 30.7656 48 30.7656C45.5624 30.7656 43.5864 28.7895 43.5864 26.3519C43.5864 23.9143 45.5624 21.9382 48 21.9382C50.4376 21.9382 52.4137 23.9143 52.4137 26.3519Z" fill="#8C1111"/>
<path d="M69.3232 26.3519C69.3232 28.7895 67.3471 30.7656 64.9095 30.7656C62.4719 30.7656 60.4958 28.7895 60.4958 26.3519C60.4958 23.9143 62.4719 21.9382 64.9095 21.9382C67.3471 21.9382 69.3232 23.9143 69.3232 26.3519Z" fill="#8C1111"/>
<path d="M27.2826 17.4639C27.2826 15.9996 28.4696 14.8125 29.934 14.8125C31.3983 14.8125 32.5854 15.9996 32.5854 17.4639V25.2249C32.5854 26.6893 31.3983 27.8764 29.934 27.8764C28.4696 27.8764 27.2826 26.6893 27.2826 25.2249V17.4639Z" fill="#4A7F8A"/>
<path d="M45.3486 17.4639C45.3486 15.9996 46.5357 14.8125 48.0001 14.8125C49.4644 14.8125 50.6515 15.9996 50.6515 17.4639V25.2249C50.6515 26.6893 49.4644 27.8764 48.0001 27.8764C46.5357 27.8764 45.3486 26.6893 45.3486 25.2249V17.4639Z" fill="#4A7F8A"/>
<path d="M62.2581 17.4639C62.2581 15.9996 63.4452 14.8125 64.9095 14.8125C66.3739 14.8125 67.561 15.9996 67.561 17.4639V25.2249C67.561 26.6893 66.3739 27.8764 64.9095 27.8764C63.4452 27.8764 62.2581 26.6893 62.2581 25.2249V17.4639Z" fill="#4A7F8A"/>
<path fill-rule="evenodd" clip-rule="evenodd" d="M29.5918 16.0661C30.1749 16.0661 30.6475 16.5387 30.6475 17.1218V21.5424C30.6475 22.1254 30.1749 22.598 29.5918 22.598C29.0088 22.598 28.5362 22.1254 28.5362 21.5424V17.1218C28.5362 16.5387 29.0088 16.0661 29.5918 16.0661Z" fill="#66A3B0"/>
<path fill-rule="evenodd" clip-rule="evenodd" d="M47.2743 16.0661C47.8573 16.0661 48.3299 16.5387 48.3299 17.1218V21.5424C48.3299 22.1254 47.8573 22.598 47.2743 22.598C46.6912 22.598 46.2186 22.1254 46.2186 21.5424V17.1218C46.2186 16.5387 46.6912 16.0661 47.2743 16.0661Z" fill="#66A3B0"/>
<path fill-rule="evenodd" clip-rule="evenodd" d="M64.4288 16.0661C65.0119 16.0661 65.4845 16.5387 65.4845 17.1218V21.5424C65.4845 22.1254 65.0119 22.598 64.4288 22.598C63.8458 22.598 63.3732 22.1254 63.3732 21.5424V17.1218C63.3732 16.5387 63.8458 16.0661 64.4288 16.0661Z" fill="#66A3B0"/>
<path fill-rule="evenodd" clip-rule="evenodd" d="M34.2101 49.8927C32.7179 50.1545 31.3323 51.1494 30.6582 52.4204C29.8388 53.9657 27.9218 54.554 26.3765 53.7346C24.8313 52.9151 24.243 50.9981 25.0624 49.4529C26.6922 46.3797 29.7848 44.2383 33.1155 43.654C36.5768 43.0467 40.388 44.1208 43.0153 47.5565C45.4077 50.6849 45.3248 54.2848 44.0943 57.203C42.9037 60.0267 40.5925 62.4189 37.9932 63.8089C37.8895 63.8643 37.7869 63.9191 37.6852 63.9735C35.285 65.2557 33.4399 66.2413 32.1801 67.6085H43.5394C45.2885 67.6085 46.7064 69.0264 46.7064 70.7755C46.7064 72.5246 45.2885 73.9425 43.5394 73.9425H27.2764C26.3366 73.9425 25.4454 73.5251 24.8436 72.8032C24.2419 72.0813 23.9919 71.1295 24.1612 70.2051C25.4317 63.2659 30.5489 60.5719 34.2688 58.6136C34.5217 58.4804 34.7682 58.3507 35.0065 58.2232C36.4244 57.4651 37.673 56.1293 38.2579 54.7421C38.803 53.4493 38.7113 52.3553 37.9839 51.4041C36.9282 50.0236 35.5718 49.6538 34.2101 49.8927Z" fill="#248FCC"/>
<path fill-rule="evenodd" clip-rule="evenodd" d="M36.3546 45.6741C36.3638 46.257 35.8986 46.7371 35.3157 46.7463C30.7641 46.8181 28.3656 49.6256 27.7729 50.864C27.5213 51.3899 26.8909 51.6122 26.365 51.3605C25.8391 51.1088 25.6168 50.4784 25.8685 49.9525C26.7494 48.1118 29.8051 44.7217 35.2824 44.6352C35.8653 44.626 36.3454 45.0911 36.3546 45.6741Z" fill="#36A8EA"/>
<path fill-rule="evenodd" clip-rule="evenodd" d="M52.1026 47.0169C52.3091 45.4403 53.6527 44.2614 55.2427 44.2614H66.794C68.5431 44.2614 69.961 45.6793 69.961 47.4284C69.961 49.1774 68.5431 50.5953 66.794 50.5953H58.0218L57.6077 53.7558C58.2914 53.6692 58.99 53.6341 59.6922 53.6582C62.6858 53.7605 65.9291 54.9554 68.2751 57.9944C70.737 61.1838 70.7779 64.8899 69.6598 67.8384C68.5913 70.6563 66.3115 73.1942 63.4638 74.1435C58.6698 75.7414 53.0892 74.0459 50.0542 70.3307C48.9477 68.9762 49.1487 66.981 50.5033 65.8745C51.8579 64.7679 53.853 64.969 54.9595 66.3236C56.3323 68.004 59.1644 68.9 61.4608 68.1345C62.1583 67.902 63.2033 67.0011 63.7373 65.5927C64.2219 64.3149 64.143 63.0072 63.2611 61.8648C62.2633 60.5721 60.9279 60.0381 59.4758 59.9885C57.9278 59.9355 56.4512 60.4546 55.6197 61.0389C54.5917 61.7613 53.2338 61.8077 52.1589 61.1571C51.0841 60.5065 50.4954 59.282 50.6586 58.0362L52.1026 47.0169Z" fill="#248FCC"/>
<path fill-rule="evenodd" clip-rule="evenodd" d="M53.4513 47.3991C53.6075 46.3668 54.4948 45.6036 55.5389 45.6036H65.2865C65.8696 45.6036 66.3422 46.0763 66.3422 46.6593C66.3422 47.2423 65.8696 47.715 65.2865 47.715H55.5389L54.3221 55.7574C54.2349 56.3339 53.6969 56.7305 53.1204 56.6433C52.5439 56.556 52.1473 56.018 52.2345 55.4416L53.4513 47.3991Z" fill="#36A8EA"/>
<path fill-rule="evenodd" clip-rule="evenodd" d="M65.4165 62.2537C65.9983 62.2162 66.5004 62.6574 66.5379 63.2392C66.763 66.728 65.1506 68.9193 63.4607 70.195C62.6317 70.8209 61.7899 71.2251 61.1466 71.4734C60.8236 71.5981 60.5447 71.6858 60.3341 71.7437C60.2292 71.7725 60.1378 71.7948 60.0636 71.8109C60.027 71.8188 59.9896 71.8263 59.9537 71.8324C59.9534 71.8324 59.953 71.8325 59.9525 71.8326C59.9401 71.8348 59.8475 71.8515 59.7443 71.8515C59.1613 71.8515 58.6886 71.3788 58.6886 70.7958C58.6886 70.2573 59.0918 69.813 59.6127 69.7483C59.614 69.748 59.6155 69.7477 59.617 69.7473C59.6481 69.7406 59.7016 69.7279 59.7749 69.7077C59.921 69.6676 60.1325 69.6017 60.3862 69.5038C60.8966 69.3067 61.5538 68.9892 62.1886 68.51C63.4266 67.5754 64.6018 66.0224 64.431 63.3751C64.3935 62.7933 64.8347 62.2912 65.4165 62.2537Z" fill="#36A8EA"/>
<path fill-rule="evenodd" clip-rule="evenodd" d="M34.4385 60.9762C34.6692 61.5117 34.422 62.1327 33.8865 62.3633C29.6741 64.1774 27.6964 68.5716 27.257 70.5319C27.1295 71.1008 26.5649 71.4586 25.996 71.331C25.4271 71.2035 25.0693 70.6389 25.1968 70.07C25.7148 67.759 27.9744 62.6106 33.0514 60.4242C33.5869 60.1936 34.2079 60.4407 34.4385 60.9762Z" fill="#36A8EA"/>
</svg>
