<svg width="96" height="96" viewBox="0 0 96 96" fill="none" xmlns="http://www.w3.org/2000/svg">
<path d="M41.6862 33.0346C41.6862 31.93 42.5816 31.0346 43.6862 31.0346H55.4362C56.5407 31.0346 57.4362 31.93 57.4362 33.0346V83.9096H41.6862V33.0346Z" fill="#E94A3F"/>
<path fill-rule="evenodd" clip-rule="evenodd" d="M59.4362 83.9096C59.4362 85.0142 58.5407 85.9096 57.4362 85.9096H41.6862C40.5816 85.9096 39.6862 85.0142 39.6862 83.9096V33.0346C39.6862 30.8255 41.477 29.0346 43.6862 29.0346H55.4362C57.6453 29.0346 59.4362 30.8255 59.4362 33.0346V83.9096ZM43.6862 31.0346C42.5816 31.0346 41.6862 31.93 41.6862 33.0346V83.9096H57.4362V33.0346C57.4362 31.93 56.5407 31.0346 55.4362 31.0346H43.6862Z" fill="#9E2016"/>
<path fill-rule="evenodd" clip-rule="evenodd" d="M54.4362 83.9096H57.4362V33.0346C57.4362 31.93 56.5407 31.0346 55.4362 31.0346H52.4362C53.5407 31.0346 54.4362 31.93 54.4362 33.0346V83.9096Z" fill="#C9352B"/>
<path d="M63.5612 51.5995C63.5612 50.495 64.4566 49.5995 65.5612 49.5995H75.8112C76.9157 49.5995 77.8112 50.495 77.8112 51.5995V83.9095H63.5612V51.5995Z" fill="#E94A3F"/>
<path fill-rule="evenodd" clip-rule="evenodd" d="M79.8112 83.9095C79.8112 85.0141 78.9157 85.9095 77.8112 85.9095H63.5612C62.4566 85.9095 61.5612 85.0141 61.5612 83.9095V51.5995C61.5612 49.3904 63.352 47.5995 65.5612 47.5995H75.8112C78.0203 47.5995 79.8112 49.3904 79.8112 51.5995V83.9095ZM65.5612 49.5995C64.4566 49.5995 63.5612 50.495 63.5612 51.5995V83.9095H77.8112V51.5995C77.8112 50.495 76.9157 49.5995 75.8112 49.5995H65.5612Z" fill="#9E2016"/>
<path fill-rule="evenodd" clip-rule="evenodd" d="M74.8112 83.9095H77.8112V51.5995C77.8112 50.495 76.9157 49.5995 75.8112 49.5995H72.8112C73.9157 49.5995 74.8112 50.495 74.8112 51.5995V83.9095Z" fill="#D33E33"/>
<path d="M19.1862 56.5346C19.1862 55.43 20.0816 54.5346 21.1862 54.5346H31.4362C32.5407 54.5346 33.4362 55.43 33.4362 56.5346V83.9096H19.1862V56.5346Z" fill="#E94A3F"/>
<path fill-rule="evenodd" clip-rule="evenodd" d="M35.4362 83.9096C35.4362 85.0142 34.5407 85.9096 33.4362 85.9096H19.1862C18.0816 85.9096 17.1862 85.0142 17.1862 83.9096V56.5346C17.1862 54.3255 18.977 52.5346 21.1862 52.5346H31.4362C33.6453 52.5346 35.4362 54.3255 35.4362 56.5346V83.9096ZM21.1862 54.5346C20.0816 54.5346 19.1862 55.43 19.1862 56.5346V83.9096H33.4362V56.5346C33.4362 55.43 32.5407 54.5346 31.4362 54.5346H21.1862Z" fill="#9E2016"/>
<path fill-rule="evenodd" clip-rule="evenodd" d="M30.4362 83.9096H33.4362V56.5346C33.4362 55.43 32.5407 54.5346 31.4362 54.5346H28.4362C29.5407 54.5346 30.4362 55.43 30.4362 56.5346V83.9096Z" fill="#D33E33"/>
<path fill-rule="evenodd" clip-rule="evenodd" d="M21.3112 55.7846C21.8634 55.7846 22.3112 56.2323 22.3112 56.7846V69.1596C22.3112 69.7119 21.8634 70.1596 21.3112 70.1596C20.7589 70.1596 20.3112 69.7119 20.3112 69.1596V56.7846C20.3112 56.2323 20.7589 55.7846 21.3112 55.7846Z" fill="#FF7D74"/>
<path fill-rule="evenodd" clip-rule="evenodd" d="M44.5143 33.1422C45.0666 33.1422 45.5143 33.5899 45.5143 34.1422V68.5172C45.5143 69.0694 45.0666 69.5172 44.5143 69.5172C43.962 69.5172 43.5143 69.0694 43.5143 68.5172V34.1422C43.5143 33.5899 43.962 33.1422 44.5143 33.1422Z" fill="#FF7D74"/>
<path fill-rule="evenodd" clip-rule="evenodd" d="M44.5143 35.1422C45.0666 35.1422 45.5143 35.5899 45.5143 36.1422V46.5172C45.5143 47.0694 45.0666 47.5172 44.5143 47.5172C43.962 47.5172 43.5143 47.0694 43.5143 46.5172V36.1422C43.5143 35.5899 43.962 35.1422 44.5143 35.1422Z" fill="#FF9F98"/>
<path fill-rule="evenodd" clip-rule="evenodd" d="M65.869 51.1284C66.4213 51.1284 66.869 51.5761 66.869 52.1284V68.5034C66.869 69.0556 66.4213 69.5034 65.869 69.5034C65.3167 69.5034 64.869 69.0556 64.869 68.5034V52.1284C64.869 51.5761 65.3167 51.1284 65.869 51.1284Z" fill="#FF7D74"/>
<path d="M44.2486 18.1284C42.8656 24.666 45.8859 28.33 49.1862 29.3784C56.0198 27.5146 55.1549 21.4721 52.9511 17.5047C51.9698 15.7383 50.7174 10.3784 51.4367 7.40961C49.2174 9.25336 45.53 12.0713 44.2486 18.1284Z" fill="#FFBE18"/>
<path fill-rule="evenodd" clip-rule="evenodd" d="M51.9659 6.56111C52.3317 6.78924 52.5101 7.22611 52.4086 7.64509C52.099 8.92313 52.2016 10.8384 52.5406 12.7318C52.8791 14.623 53.4137 16.2782 53.8253 17.0191C54.9849 19.1067 55.8571 21.8433 55.4448 24.3902C55.2353 25.6846 54.6923 26.9302 53.6925 27.9833C52.6963 29.0326 51.2957 29.8396 49.4493 30.3431C49.2635 30.3938 49.067 30.3897 48.8834 30.3314C46.9969 29.7322 45.2024 28.3883 44.0789 26.2826C42.9532 24.1729 42.5398 21.3745 43.2703 17.9214C44.5688 11.7831 48.2296 8.76099 50.4896 6.89535C50.5955 6.8079 50.6983 6.723 50.7977 6.64043C51.1293 6.36494 51.6001 6.33297 51.9659 6.56111ZM50.2258 9.75541C48.273 11.5374 46.1275 14.0787 45.227 18.3353C44.5745 21.4198 44.9797 23.7223 45.8434 25.3411C46.6529 26.8581 47.8992 27.8416 49.2131 28.3303C50.6245 27.9036 51.591 27.292 52.242 26.6063C52.9332 25.8782 53.3175 25.0158 53.4705 24.0706C53.7833 22.1385 53.1211 19.8702 52.0769 17.9903C51.5072 16.9649 50.925 15.0568 50.5719 13.0843C50.3799 12.0122 50.2439 10.8576 50.2258 9.75541Z" fill="#FF7A41"/>
<path fill-rule="evenodd" clip-rule="evenodd" d="M48.7076 13.5469C49.1789 13.8349 49.3274 14.4504 49.0394 14.9217C48.5701 15.6897 47.598 17.7583 47.4973 19.7111C47.4689 20.2626 46.9987 20.6867 46.4472 20.6583C45.8956 20.6298 45.4716 20.1597 45.5 19.6081C45.6243 17.1959 46.771 14.7983 47.3329 13.8788C47.6209 13.4075 48.2364 13.259 48.7076 13.5469Z" fill="#FFDB7E"/>
<path d="M22.7682 44.7695C21.7944 49.3728 23.9211 51.9528 26.2449 52.6909C31.0566 51.3786 30.4477 47.1239 28.8959 44.3304C28.2049 43.0866 27.3231 39.3125 27.8296 37.2221C26.2669 38.5203 23.6705 40.5045 22.7682 44.7695Z" fill="#FFBE18"/>
<path fill-rule="evenodd" clip-rule="evenodd" d="M28.3588 36.3736C28.7246 36.6017 28.903 37.0386 28.8015 37.4576C28.5982 38.2964 28.6614 39.5957 28.898 40.9175C29.1343 42.2371 29.5036 43.3651 29.77 43.8448C30.6036 45.3454 31.2489 47.3416 30.9438 49.2259C30.788 50.189 30.3821 51.1227 29.6325 51.9123C28.8865 52.6981 27.8489 53.29 26.508 53.6557C26.3222 53.7064 26.1257 53.7023 25.9421 53.644C24.5439 53.1998 23.2169 52.2045 22.3877 50.6504C21.5563 49.0922 21.264 47.0485 21.7899 44.5625C22.7259 40.138 25.373 37.9533 26.971 36.6345C27.0466 36.5721 27.1199 36.5116 27.1906 36.4529C27.5221 36.1774 27.993 36.1455 28.3588 36.3736ZM26.7099 39.5365C25.5016 40.7385 24.2925 42.3957 23.7466 44.9765C23.2986 47.0938 23.5828 48.6417 24.1522 49.7089C24.6674 50.6743 25.4478 51.3088 26.2745 51.6399C27.1754 51.3535 27.7796 50.9592 28.182 50.5353C28.623 50.0708 28.8702 49.5202 28.9695 48.9063C29.175 47.6368 28.7399 46.1089 28.0217 44.816C27.5972 44.0518 27.1801 42.6709 26.9293 41.2699C26.8302 40.7161 26.7508 40.1255 26.7099 39.5365Z" fill="#FF7A41"/>
<path fill-rule="evenodd" clip-rule="evenodd" d="M26.0622 41.2911C26.5335 41.5791 26.6821 42.1946 26.3941 42.6658C26.0773 43.1842 25.4186 44.5921 25.3513 45.8991C25.3228 46.4507 24.8527 46.8747 24.3011 46.8463C23.7495 46.8179 23.3255 46.3477 23.3539 45.7962C23.445 44.0297 24.2782 42.2928 24.6875 41.6229C24.9755 41.1517 25.591 41.0031 26.0622 41.2911Z" fill="#FFDB7E"/>
<path d="M66.1399 38.4781C65.0504 43.628 67.4296 46.5143 70.0293 47.3401C75.4124 45.872 74.7311 41.1121 72.9951 37.9869C72.2221 36.5954 71.2356 32.3732 71.8022 30.0346C70.054 31.487 67.1492 33.7068 66.1399 38.4781Z" fill="#FFBE18"/>
<path fill-rule="evenodd" clip-rule="evenodd" d="M72.3314 29.1861C72.6972 29.4142 72.8756 29.8511 72.7741 30.2701C72.5407 31.233 72.6151 32.7063 72.8806 34.1897C73.1458 35.6708 73.5618 36.9478 73.8693 37.5013C74.795 39.1677 75.5043 41.3731 75.169 43.4447C74.998 44.5014 74.5534 45.5232 73.7331 46.3873C72.9163 47.2476 71.7762 47.9002 70.2924 48.3049C70.1066 48.3555 69.9101 48.3515 69.7266 48.2932C68.1904 47.8052 66.7313 46.7113 65.8189 45.0014C64.9043 43.2874 64.5778 41.0304 65.1615 38.2711C66.2 33.3624 69.1336 30.941 70.9186 29.4677C71.0028 29.3983 71.0844 29.3309 71.1632 29.2654C71.4948 28.9899 71.9656 28.958 72.3314 29.1861ZM70.6523 32.357C69.2306 33.7254 67.7634 35.6352 67.1182 38.6851C66.6125 41.0757 66.9308 42.8368 67.5834 44.0599C68.1817 45.1812 69.0937 45.9143 70.058 46.2902C71.1035 45.9639 71.81 45.5081 72.2826 45.0103C72.7943 44.4713 73.0802 43.8326 73.1947 43.1251C73.4305 41.6684 72.9312 39.9312 72.1209 38.4725C71.6554 37.6345 71.1916 36.1046 70.9119 34.5421C70.7868 33.843 70.6905 33.0943 70.6523 32.357Z" fill="#FF7A41"/>
<path fill-rule="evenodd" clip-rule="evenodd" d="M69.763 34.688C70.2343 34.976 70.3829 35.5915 70.0949 36.0627C69.735 36.6517 68.9877 38.2462 68.911 39.7357C68.8825 40.2873 68.4124 40.7114 67.8608 40.6829C67.3093 40.6545 66.8852 40.1843 66.9136 39.6328C67.0141 37.6838 67.9358 35.7602 68.3883 35.0198C68.6763 34.5486 69.2918 34.4 69.763 34.688Z" fill="#FFDB7E"/>
<path fill-rule="evenodd" clip-rule="evenodd" d="M25.6135 54.8393C25.2673 54.8479 24.6626 54.9838 23.6741 55.5229C23.0154 55.8821 22.39 56.0423 21.7847 56.0256C21.185 56.0091 20.6879 55.8208 20.2883 55.6173C20.0912 55.5169 19.9093 55.4082 19.7529 55.3127C19.7128 55.2882 19.6751 55.265 19.639 55.2429C19.5256 55.1732 19.4291 55.1139 19.3292 55.0571C19.0689 54.909 18.9208 54.8596 18.8103 54.8501C18.6031 54.8323 18.4107 54.9028 18.2194 55.0549C18.0157 55.2167 17.875 55.4261 17.8231 55.5333C17.5821 56.0303 16.984 56.2379 16.487 55.9969C15.99 55.756 15.7825 55.1578 16.0234 54.6609C16.1906 54.3159 16.5102 53.8585 16.9751 53.4891C17.4523 53.1099 18.1366 52.7848 18.9815 52.8574C19.5286 52.9044 19.9812 53.127 20.3183 53.3188C20.4503 53.3939 20.5854 53.4769 20.704 53.5499C20.7357 53.5693 20.7662 53.5881 20.7952 53.6058C20.9427 53.6959 21.0706 53.7713 21.196 53.8351C21.4413 53.96 21.6397 54.0208 21.8398 54.0264C22.0344 54.0317 22.3131 53.987 22.7166 53.767C23.8526 53.1475 24.778 52.8595 25.5635 52.8399C26.3952 52.8191 26.9865 53.1011 27.4104 53.4395C27.4038 53.4342 27.4065 53.4355 27.4197 53.442C27.4578 53.4606 27.5834 53.5222 27.8293 53.5945C28.1223 53.6808 28.5031 53.758 28.9249 53.7942C29.7915 53.8688 30.6906 53.7602 31.3579 53.3622C31.3913 53.3423 31.4258 53.3244 31.4613 53.3085C32.7003 52.7533 34.6072 52.8853 36.3371 54.6464C36.7241 55.0404 36.7184 55.6735 36.3244 56.0605C35.9304 56.4475 35.2973 56.4419 34.9103 56.0479C33.7458 54.8624 32.747 54.947 32.3204 55.1162C31.1654 55.7803 29.8178 55.8784 28.7535 55.7869C28.2002 55.7393 27.6875 55.6377 27.2645 55.5131C26.88 55.3999 26.454 55.235 26.1629 55.0027C26.0557 54.9171 25.9136 54.8318 25.6135 54.8393Z" fill="#9E2016"/>
<path fill-rule="evenodd" clip-rule="evenodd" d="M48.2787 31.7253C47.8733 31.7347 47.2005 31.8809 46.1296 32.4231C45.4331 32.7757 44.7832 32.9275 44.1626 32.9116C43.5463 32.8958 43.0312 32.7163 42.6081 32.5162C42.3995 32.4176 42.2063 32.3104 42.0382 32.2152C41.9956 32.191 41.9553 32.168 41.9167 32.146C41.7941 32.0761 41.6884 32.0158 41.5793 31.9582C41.297 31.8091 41.1178 31.7486 40.9675 31.7366C40.6949 31.7148 40.4563 31.8044 40.2419 31.9627C40.0141 32.1307 39.8623 32.3432 39.8087 32.446C39.553 32.9355 38.9489 33.1252 38.4594 32.8695C37.9698 32.6139 37.7802 32.0098 38.0358 31.5202C38.2182 31.1708 38.5623 30.7164 39.0545 30.3533C39.5601 29.9802 40.2659 29.6742 41.1265 29.7429C41.6844 29.7874 42.1522 29.9989 42.5135 30.1898C42.654 30.264 42.7976 30.3459 42.9253 30.4188C42.9597 30.4384 42.9929 30.4573 43.0246 30.4753C43.1838 30.5656 43.3243 30.6425 43.4631 30.7082C43.7346 30.8366 43.9685 30.906 44.2138 30.9123C44.4547 30.9185 44.7786 30.8654 45.2262 30.6388C46.4435 30.0224 47.4188 29.7447 48.2324 29.7258C49.0865 29.706 49.6956 29.9733 50.1414 30.3036C50.962 30.9116 52.8484 31.1672 54.537 30.2322C54.5696 30.2142 54.603 30.198 54.6374 30.1837C55.9082 29.6551 57.9032 29.7597 59.7512 31.5063C60.1526 31.8857 60.1704 32.5186 59.7911 32.92C59.4117 33.3214 58.7788 33.3392 58.3774 32.9598C57.1016 31.754 55.9648 31.8197 55.4479 32.0136C53.1933 33.2334 50.4816 33.0449 48.9507 31.9105C48.8245 31.817 48.6436 31.7168 48.2787 31.7253Z" fill="#9E2016"/>
<path fill-rule="evenodd" clip-rule="evenodd" d="M70.4587 49.9805C70.1496 49.9886 69.5867 50.117 68.6478 50.6542C68.0123 51.0178 67.4012 51.1841 66.8038 51.1668C66.2131 51.1497 65.7266 50.9552 65.3414 50.7494C65.1513 50.6478 64.9763 50.5381 64.8271 50.4426C64.7885 50.4178 64.7523 50.3945 64.7178 50.3723C64.6099 50.3028 64.519 50.2442 64.4247 50.1879C64.1772 50.0402 64.0483 49.9987 63.9629 49.991C63.7975 49.976 63.6334 50.0326 63.4551 50.1813C63.2653 50.3395 63.131 50.5474 63.08 50.6578C62.8483 51.1592 62.2541 51.3778 61.7527 51.1461C61.2514 50.9144 61.0328 50.3202 61.2645 49.8188C61.4224 49.4771 61.7269 49.0182 62.1744 48.6451C62.6333 48.2626 63.305 47.9235 64.1425 47.999C64.684 48.0479 65.1277 48.2783 65.4497 48.4706C65.5765 48.5462 65.7064 48.6299 65.8196 48.7029C65.8496 48.7223 65.8785 48.7409 65.9058 48.7584C66.0463 48.8484 66.1667 48.9228 66.2839 48.9854C66.5136 49.1081 66.69 49.1627 66.8617 49.1676C67.0268 49.1724 67.2776 49.1339 67.6547 48.9182C68.7409 48.2967 69.6366 48.0013 70.4063 47.9812C71.2262 47.9597 71.8068 48.2525 72.2166 48.5955C72.2071 48.5876 72.209 48.5885 72.2246 48.5964C72.2615 48.6149 72.375 48.6718 72.5944 48.7396C72.8683 48.8242 73.2253 48.9001 73.6211 48.9358C74.4349 49.0093 75.2713 48.9017 75.8902 48.5145C75.924 48.4934 75.9591 48.4742 75.9952 48.4573C77.2173 47.8829 79.0721 48.0357 80.7286 49.8048C81.1061 50.208 81.0853 50.8408 80.6821 51.2183C80.279 51.5958 79.6462 51.575 79.2687 51.1718C78.1715 50 77.2579 50.0976 76.8869 50.2493C75.7698 50.9216 74.4668 51.0203 73.4414 50.9277C72.9077 50.8796 72.4131 50.7768 72.0043 50.6505C71.6337 50.5361 71.2179 50.3678 70.9327 50.129C70.8362 50.0483 70.7178 49.9737 70.4587 49.9805Z" fill="#9E2016"/>
<path d="M78.2703 74.0323H16.6252C13.8919 74.0322 10.0535 73.5089 8.83225 76.7075C7.61099 79.906 9.47201 82.0578 12.089 83.4535C14.1245 88.2223 19.8819 88.5712 22.9642 86.7684C24.3134 88.7689 29.5939 88.9783 31.1641 87.4081C34.6535 90.374 40.2946 89.3272 42.0974 85.9542C43.435 88.9783 49.5995 89.9669 52.2165 87.4081C58.6718 91.7697 66.9881 89.0946 70.0703 85.9542C73.7923 89.3272 79.8987 87.9896 80.8292 85.1982C83.1554 85.1982 86.7272 82.8986 86.1795 78.6266C85.5977 74.0883 80.8312 74.0519 78.3608 74.033L78.2703 74.0323Z" fill="#72CC52"/>
<path fill-rule="evenodd" clip-rule="evenodd" d="M78.2703 74.0323L78.3608 74.033C80.8312 74.0519 85.5977 74.0883 86.1795 78.6266C86.7272 82.8986 83.1554 85.1982 80.8292 85.1982C79.8987 87.9896 73.7923 89.3272 70.0703 85.9542C66.9881 89.0946 58.6718 91.7697 52.2165 87.4081C50.1385 89.4399 45.8237 89.235 43.4649 87.5504C42.8531 87.1135 42.3729 86.577 42.0974 85.9542C41.7608 86.584 41.2903 87.1328 40.725 87.5894C38.2629 89.5782 34.0019 89.8202 31.1641 87.4081C29.5939 88.9783 24.3134 88.7689 22.9642 86.7684C19.8819 88.5712 14.1245 88.2223 12.089 83.4535C9.47201 82.0578 7.61099 79.906 8.83225 76.7075C9.90714 73.8923 13.0094 73.9602 15.6011 74.017C15.9541 74.0247 16.2976 74.0323 16.6252 74.0323H78.2703ZM16.6252 72.0323H78.2703L78.2858 72.0323L78.4655 72.0337C79.6643 72.0424 81.7653 72.0577 83.6689 72.758C84.6793 73.1297 85.7175 73.7209 86.5584 74.6725C87.4135 75.6401 87.9714 76.8758 88.1632 78.3723C88.5219 81.1696 87.5149 83.4186 85.9922 84.9327C84.8821 86.0364 83.4732 86.7744 82.0957 87.0625C81.6164 87.7349 80.9845 88.27 80.3217 88.6749C79.282 89.3101 78.0348 89.7123 76.7429 89.8726C74.6641 90.1307 72.2563 89.7835 70.1569 88.5045C68.2332 89.9115 65.5799 91.0187 62.72 91.47C59.4618 91.984 55.7408 91.677 52.3219 89.8113C50.5117 90.8499 48.2668 91.0355 46.3805 90.7526C44.947 90.5376 43.3654 89.994 42.1117 89.0393C40.8246 90.1231 39.1994 90.7887 37.5616 91.0359C35.4454 91.3551 33.1042 91.0135 31.0864 89.805C30.6748 89.9826 30.2549 90.1096 29.8596 90.2008C28.9073 90.4203 27.8614 90.4867 26.8555 90.4233C25.8514 90.3601 24.8063 90.1625 23.8676 89.7966C23.448 89.6331 23.0092 89.4199 22.5942 89.1427C20.8088 89.8021 18.6973 89.9676 16.7038 89.5285C14.2865 88.996 11.9274 87.5412 10.5526 84.8823C9.28498 84.1249 8.06844 83.1113 7.2876 81.7537C6.32803 80.0854 6.15368 78.1159 6.96381 75.9941C7.90903 73.5185 9.93377 72.5486 11.7979 72.2038C13.1304 71.9572 14.6547 71.9924 15.7939 72.0187C16.1032 72.0258 16.3842 72.0323 16.6252 72.0323C16.6252 72.0323 16.6252 72.0323 16.6252 72.0323Z" fill="#3B8327"/>
<path fill-rule="evenodd" clip-rule="evenodd" d="M9.07275 80.8439C9.46315 81.4901 10.0164 82.059 10.6735 82.5578C10.4552 82.2197 10.2591 81.852 10.089 81.4535C9.73447 81.2644 9.39378 81.0615 9.07275 80.8439ZM12.6788 84.5659C15.2713 86.2419 18.7858 86.0425 20.9642 84.7684C22.3134 86.7689 27.5939 86.9783 29.1641 85.4081C32.6535 88.374 38.2946 87.3272 40.0974 83.9542C41.435 86.9783 47.5995 87.9669 50.2165 85.4081C56.6718 89.7698 64.9881 87.0946 68.0703 83.9542C71.7923 87.3272 77.8987 85.9897 78.8292 83.1982C81.1554 83.1982 84.7272 80.8987 84.1795 76.6266C84.0967 75.9809 83.9292 75.4264 83.6957 74.95C84.944 75.5989 85.934 76.7122 86.1795 78.6266C86.7272 82.8987 83.1554 85.1982 80.8292 85.1982C79.8987 87.9897 73.7923 89.3272 70.0703 85.9542C66.9881 89.0946 58.6718 91.7698 52.2165 87.4081C49.5995 89.9669 43.435 88.9783 42.0974 85.9542C40.2946 89.3272 34.6535 90.374 31.1641 87.4081C29.5939 88.9783 24.3134 88.7689 22.9642 86.7684C20.1415 88.4193 15.0755 88.2658 12.6788 84.5659Z" fill="#60B143"/>
<path d="M17.1001 80.486C17.1001 81.2822 16.4546 81.9277 15.6584 81.9277C14.8622 81.9277 14.2167 81.2822 14.2167 80.486C14.2167 79.6897 14.8622 79.0443 15.6584 79.0443C16.4546 79.0443 17.1001 79.6897 17.1001 80.486Z" fill="#55B633"/>
<path d="M24.0984 77.6326C24.0984 78.4288 23.4529 79.0743 22.6567 79.0743C21.8604 79.0743 21.215 78.4288 21.215 77.6326C21.215 76.8363 21.8604 76.1909 22.6567 76.1909C23.4529 76.1909 24.0984 76.8363 24.0984 77.6326Z" fill="#55B633"/>
<path d="M28.3335 82.3837C28.3335 83.1799 27.688 83.8254 26.8918 83.8254C26.0956 83.8254 25.4501 83.1799 25.4501 82.3837C25.4501 81.5874 26.0956 80.942 26.8918 80.942C27.688 80.942 28.3335 81.5874 28.3335 82.3837Z" fill="#55B633"/>
<path d="M36.8336 78.4135C36.8336 79.2097 36.1882 79.8552 35.3919 79.8552C34.5957 79.8552 33.9502 79.2097 33.9502 78.4135C33.9502 77.6172 34.5957 76.9717 35.3919 76.9717C36.1882 76.9717 36.8336 77.6172 36.8336 78.4135Z" fill="#55B633"/>
<path d="M45.4539 82.5585C45.4539 83.3547 44.8084 84.0002 44.0122 84.0002C43.2159 84.0002 42.5704 83.3547 42.5704 82.5585C42.5704 81.7622 43.2159 81.1168 44.0122 81.1168C44.8084 81.1168 45.4539 81.7622 45.4539 82.5585Z" fill="#55B633"/>
<path d="M45.6041 78.6688C45.6041 79.4651 44.9587 80.1106 44.1624 80.1106C43.3662 80.1106 42.7207 79.4651 42.7207 78.6688C42.7207 77.8726 43.3662 77.2271 44.1624 77.2271C44.9587 77.2271 45.6041 77.8726 45.6041 78.6688Z" fill="#55B633"/>
<path d="M54.705 83.0841C54.705 83.8804 54.0595 84.5258 53.2633 84.5258C52.467 84.5258 51.8215 83.8804 51.8215 83.0841C51.8215 82.2879 52.467 81.6424 53.2633 81.6424C54.0595 81.6424 54.705 82.2879 54.705 83.0841Z" fill="#55B633"/>
<path d="M52.0017 78.6688C52.0017 79.4651 51.3562 80.1106 50.56 80.1106C49.7638 80.1106 49.1183 79.4651 49.1183 78.6688C49.1183 77.8726 49.7638 77.2271 50.56 77.2271C51.3562 77.2271 52.0017 77.8726 52.0017 78.6688Z" fill="#55B633"/>
<path d="M59.2704 78.6688C59.2704 79.4651 58.6249 80.1106 57.8287 80.1106C57.0324 80.1106 56.387 79.4651 56.387 78.6688C56.387 77.8726 57.0324 77.2271 57.8287 77.2271C58.6249 77.2271 59.2704 77.8726 59.2704 78.6688Z" fill="#55B633"/>
<path d="M63.7608 83.5947C63.7608 84.391 63.1153 85.0365 62.319 85.0365C61.5228 85.0365 60.8773 84.391 60.8773 83.5947C60.8773 82.7985 61.5228 82.153 62.319 82.153C63.1153 82.153 63.7608 82.7985 63.7608 83.5947Z" fill="#55B633"/>
<path d="M66.8545 77.6326C66.8545 78.4288 66.209 79.0743 65.4128 79.0743C64.6165 79.0743 63.9711 78.4288 63.9711 77.6326C63.9711 76.8363 64.6165 76.1909 65.4128 76.1909C66.209 76.1909 66.8545 76.8363 66.8545 77.6326Z" fill="#55B633"/>
<path d="M70.4588 81.5222C70.4588 82.3185 69.8133 82.9639 69.017 82.9639C68.2208 82.9639 67.5753 82.3185 67.5753 81.5222C67.5753 80.726 68.2208 80.0805 69.017 80.0805C69.8133 80.0805 70.4588 80.726 70.4588 81.5222Z" fill="#55B633"/>
<path d="M75.6251 78.053C75.6251 78.8492 74.9797 79.4947 74.1834 79.4947C73.3872 79.4947 72.7417 78.8492 72.7417 78.053C72.7417 77.2567 73.3872 76.6113 74.1834 76.6113C74.9797 76.6113 75.6251 77.2567 75.6251 78.053Z" fill="#55B633"/>
<path d="M81.0917 79.2844C81.0917 80.0807 80.4462 80.7262 79.65 80.7262C78.8537 80.7262 78.2083 80.0807 78.2083 79.2844C78.2083 78.4882 78.8537 77.8427 79.65 77.8427C80.4462 77.8427 81.0917 78.4882 81.0917 79.2844Z" fill="#55B633"/>
<path d="M33.9502 82.8738C33.9502 83.67 33.3047 84.3155 32.5085 84.3155C31.7123 84.3155 31.0668 83.67 31.0668 82.8738C31.0668 82.0775 31.7123 81.4321 32.5085 81.4321C33.3047 81.4321 33.9502 82.0775 33.9502 82.8738Z" fill="#55B633"/>
<path fill-rule="evenodd" clip-rule="evenodd" d="M15.5529 74.6887C15.7049 74.6898 15.8538 74.6909 15.9986 74.6909H73.4986C74.0509 74.6909 74.4986 75.1386 74.4986 75.6909C74.4986 76.2431 74.0509 76.6909 73.4986 76.6909H15.9987C15.9987 76.6909 15.9987 76.6909 15.9987 76.6909C15.8286 76.6909 15.6641 76.6901 15.5047 76.6894C14.536 76.6848 13.7543 76.6812 13.0537 76.8563C12.3334 77.0364 11.7335 77.403 11.2534 78.2913C10.9907 78.7772 10.384 78.9581 9.89812 78.6955C9.41228 78.4329 9.23132 77.8261 9.49395 77.3403C10.2638 75.9162 11.3514 75.2203 12.5686 74.916C13.5351 74.6744 14.6055 74.682 15.5529 74.6887Z" fill="#8BE96A"/>
<path fill-rule="evenodd" clip-rule="evenodd" d="M16.9987 75.6909C16.9987 75.1386 17.4464 74.6909 17.9987 74.6909H25.4987C26.0509 74.6909 26.4987 75.1386 26.4987 75.6909C26.4987 76.2431 26.0509 76.6909 25.4987 76.6909H17.9987C17.4464 76.6909 16.9987 76.2431 16.9987 75.6909Z" fill="#B5FE9C"/>
</svg>
