<svg width="96" height="96" viewBox="0 0 96 96" fill="none" xmlns="http://www.w3.org/2000/svg">
<path d="M69.8793 25.4114C74.4527 25.4114 75.5961 31.705 75.5961 34.8518C75.5961 37.9986 73.7943 42.4277 77.9501 42.6065C82.2697 42.7924 82.9423 35.0616 82.9423 32.6776C82.9423 30.1662 82.9423 20.5401 72.8538 17.5055C64.2881 14.929 59.1298 19.9004 56.7642 26.0857L45.3306 57.1043C44.7701 58.3405 44.389 61.1502 47.3483 62.4988C50.3076 63.8474 52.0042 62.0106 52.7289 60.1387L60.7996 36.5376C61.9206 32.8289 65.3058 25.4114 69.8793 25.4114Z" fill="#24E287"/>
<path fill-rule="evenodd" clip-rule="evenodd" d="M62.7037 37.1507L54.6084 60.8236L54.594 60.8607C54.1416 62.0294 53.3088 63.4094 51.8967 64.2468C50.3646 65.1553 48.499 65.2211 46.5189 64.3188C44.445 63.3736 43.3865 61.7967 43.0582 60.1507C42.7625 58.6681 43.0791 57.2645 43.4762 56.3524L54.8919 25.3826L54.8962 25.3713C56.1765 22.0235 58.2787 18.8198 61.4085 16.8237C64.6088 14.7826 68.6531 14.1535 73.4299 15.5903C79.1331 17.3059 82.0781 20.956 83.5338 24.5341C84.9425 27.997 84.9423 31.3491 84.9423 32.6495V32.6776C84.9423 33.9807 84.7658 36.7373 83.9704 39.2167C83.5741 40.4523 82.9742 41.7805 82.0308 42.8158C81.0352 43.9085 79.638 44.681 77.8641 44.6047C76.4621 44.5444 75.1891 44.0987 74.3042 43.0561C73.4703 42.0735 73.2595 40.8775 73.2167 39.9327C73.1735 38.9792 73.2929 37.9624 73.3939 37.126C73.3997 37.0784 73.4054 37.0313 73.4111 36.9846C73.5132 36.1411 73.5961 35.4565 73.5961 34.8518C73.5961 33.4525 73.3328 31.387 72.6194 29.7509C71.9047 28.1116 71.0091 27.4114 69.8793 27.4114C68.6816 27.4114 67.2151 28.4524 65.7046 30.6995C64.2865 32.8091 63.2341 35.3958 62.7141 37.1163L62.7037 37.1507ZM45.3306 57.1043L56.7642 26.0857C59.1298 19.9004 64.2881 14.929 72.8538 17.5056C82.9423 20.5402 82.9423 30.1662 82.9423 32.6776C82.9423 35.0617 82.2697 42.7924 77.9501 42.6065C74.7595 42.4692 75.0805 39.8267 75.4017 37.1826C75.4989 36.3827 75.5961 35.5827 75.5961 34.8518C75.5961 31.705 74.4527 25.4114 69.8793 25.4114C65.3058 25.4114 61.9206 32.8289 60.7996 36.5376L52.7288 60.1387C52.0042 62.0107 50.3076 63.8475 47.3483 62.4988C44.389 61.1502 44.7701 58.3405 45.3306 57.1043Z" fill="#16824E"/>
<path fill-rule="evenodd" clip-rule="evenodd" d="M72.9754 19.0362C73.2111 18.5368 73.8071 18.3229 74.3065 18.5586C79.1277 20.8338 81.2649 24.9565 81.9836 29.069C82.6967 33.1498 82.036 37.2974 81.2074 39.8922C81.0394 40.4183 80.4767 40.7086 79.9506 40.5406C79.4244 40.3726 79.1341 39.8099 79.3021 39.2838C80.0569 36.9203 80.6586 33.1054 80.0134 29.4133C79.3738 25.7528 77.5318 22.2922 73.453 20.3674C72.9535 20.1317 72.7397 19.5357 72.9754 19.0362Z" fill="#19CB75"/>
<path fill-rule="evenodd" clip-rule="evenodd" d="M64.1835 19.3308C64.2565 19.8783 63.8719 20.3812 63.3244 20.4542C63.245 20.4648 63.02 20.5503 62.651 20.8727C62.3056 21.1744 61.9297 21.5988 61.5503 22.097C60.8097 23.0695 60.1348 24.2175 59.7337 24.9927L47.2546 58.5615C47.0621 59.0791 46.4865 59.3428 45.9688 59.1503C45.4511 58.9579 45.1875 58.3822 45.3799 57.8646L57.8799 24.2396C57.8936 24.2027 57.9095 24.1667 57.9274 24.1317C58.3633 23.2818 59.1123 21.9972 59.9592 20.8852C60.3819 20.3303 60.8497 19.7906 61.3351 19.3666C61.7968 18.9632 62.3895 18.5612 63.0601 18.4718C63.6075 18.3988 64.1105 18.7834 64.1835 19.3308Z" fill="#59F4AA"/>
<path fill-rule="evenodd" clip-rule="evenodd" d="M71.6991 22.671C72.8515 22.8638 73.9472 23.3437 74.6528 24.2036C75.0031 24.6306 74.941 25.2607 74.5141 25.611C74.0871 25.9613 73.457 25.8992 73.1067 25.4722C72.8123 25.1134 72.2361 24.7886 71.369 24.6436C70.5178 24.5012 69.4804 24.5511 68.4072 24.8422C66.2635 25.4236 64.1073 26.9268 63.0569 29.5252L63.0554 29.5287L63.0554 29.5287L60.1179 36.7164C59.909 37.2277 59.3252 37.4727 58.8139 37.2638C58.3027 37.0549 58.0576 36.4711 58.2666 35.9598L61.2026 28.7756C61.2029 28.775 61.2031 28.7744 61.2034 28.7738C62.5282 25.4985 65.2465 23.6272 67.8836 22.9119C69.201 22.5546 70.5308 22.4755 71.6991 22.671Z" fill="#19CB75"/>
<path fill-rule="evenodd" clip-rule="evenodd" d="M79.1164 38.733C78.0886 38.8354 77.0938 39.1927 76.5145 39.4824C76.0205 39.7293 75.4198 39.5291 75.1728 39.0351C74.9258 38.5412 75.1261 37.9405 75.62 37.6935C76.374 37.3165 77.6042 36.8738 78.9181 36.7429C80.2183 36.6133 81.7827 36.7748 82.9816 37.8405C83.3944 38.2074 83.4316 38.8395 83.0647 39.2523C82.6977 39.6651 82.0657 39.7023 81.6529 39.3353C81.0518 38.8011 80.1579 38.6292 79.1164 38.733Z" fill="#CAFD3A"/>
<path fill-rule="evenodd" clip-rule="evenodd" d="M79.1138 32.905C77.8263 33.125 76.7008 33.4965 76.0828 33.7586C75.5744 33.9743 74.9874 33.737 74.7717 33.2286C74.556 32.7202 74.7933 32.1332 75.3017 31.9175C76.0587 31.5963 77.3332 31.1803 78.777 30.9336C80.2115 30.6885 81.9007 30.5952 83.4432 30.9951C83.9778 31.1337 84.2989 31.6794 84.1603 32.214C84.0217 32.7486 83.4759 33.0696 82.9413 32.931C81.7838 32.6309 80.4105 32.6835 79.1138 32.905Z" fill="#CAFD3A"/>
<path fill-rule="evenodd" clip-rule="evenodd" d="M81.4228 22.642C81.5311 23.1835 81.1799 23.7104 80.6384 23.8187C79.5274 24.0409 78.3419 24.8092 77.2643 25.7913C76.2036 26.7579 75.3499 27.8371 74.9011 28.5151C74.5962 28.9756 73.9758 29.1018 73.5153 28.7969C73.0547 28.4921 72.9285 27.8716 73.2334 27.4111C73.7638 26.6099 74.7226 25.4016 75.9171 24.313C77.0947 23.2399 78.6071 22.1853 80.2461 21.8575C80.7877 21.7492 81.3145 22.1004 81.4228 22.642Z" fill="#CAFD3A"/>
<path fill-rule="evenodd" clip-rule="evenodd" d="M74.0419 17.1232C74.3331 17.5924 74.1889 18.2089 73.7196 18.5002C73.6329 18.554 73.4207 18.7827 73.169 19.3715C72.9357 19.9174 72.7294 20.6252 72.5546 21.4151C72.2058 22.9908 72.011 24.7587 71.9403 25.8999C71.9062 26.4511 71.4316 26.8703 70.8804 26.8361C70.3292 26.802 69.91 26.3274 69.9442 25.7762C70.0193 24.5632 70.2246 22.6873 70.6018 20.9829C70.79 20.1327 71.0283 19.2912 71.33 18.5854C71.6133 17.9226 72.0266 17.1971 72.6649 16.8009C73.1341 16.5096 73.7506 16.6539 74.0419 17.1232Z" fill="#CAFD3A"/>
<path fill-rule="evenodd" clip-rule="evenodd" d="M61.8769 18.0467C62.1413 17.5619 62.7488 17.3832 63.2336 17.6477C63.8548 17.9865 64.4028 18.6167 64.8609 19.2595C65.3393 19.9308 65.8047 20.7399 66.2315 21.5697C67.0861 23.2311 67.8307 25.0631 68.258 26.2491C68.4453 26.7686 68.1758 27.3416 67.6563 27.5289C67.1367 27.7161 66.5637 27.4467 66.3765 26.9271C65.9705 25.8005 65.2589 24.0513 64.453 22.4845C64.0496 21.7003 63.6337 20.9837 63.2322 20.4202C62.8103 19.8282 62.4797 19.5146 62.2759 19.4035C61.7911 19.139 61.6124 18.5316 61.8769 18.0467Z" fill="#CAFD3A"/>
<path fill-rule="evenodd" clip-rule="evenodd" d="M55.697 25.0401C55.896 24.525 56.475 24.2687 56.9902 24.4677C57.9454 24.8368 59.4474 25.5041 60.8863 26.3217C62.2841 27.116 63.7838 28.1401 64.5729 29.2631C64.8905 29.715 64.7816 30.3387 64.3297 30.6562C63.8778 30.9738 63.2541 30.8649 62.9366 30.413C62.4257 29.6859 61.2796 28.8455 59.8982 28.0606C58.558 27.2991 57.1474 26.6726 56.2694 26.3333C55.7542 26.1343 55.4979 25.5553 55.697 25.0401Z" fill="#CAFD3A"/>
<path fill-rule="evenodd" clip-rule="evenodd" d="M53.1631 33.0818C53.3046 32.548 53.8521 32.2299 54.386 32.3714C55.2843 32.6095 56.7038 33.0505 58.0742 33.6088C59.3955 34.1471 60.8504 34.8634 61.6626 35.7069C62.0457 36.1047 62.0337 36.7377 61.6359 37.1208C61.2381 37.5039 60.605 37.492 60.2219 37.0942C59.7341 36.5876 58.6473 36.0019 57.3197 35.461C56.0411 34.9401 54.7044 34.5249 53.8735 34.3046C53.3397 34.1631 53.0216 33.6157 53.1631 33.0818Z" fill="#CAFD3A"/>
<path fill-rule="evenodd" clip-rule="evenodd" d="M50.3218 41.1183C50.3741 40.5685 50.8623 40.1652 51.4121 40.2176C52.7946 40.3493 56.2095 40.957 58.9656 42.3881C59.4557 42.6426 59.6468 43.2462 59.3923 43.7364C59.1377 44.2265 58.5341 44.4176 58.0439 44.1631C55.6 42.8941 52.4649 42.3269 51.2224 42.2086C50.6726 42.1562 50.2694 41.6681 50.3218 41.1183Z" fill="#CAFD3A"/>
<path fill-rule="evenodd" clip-rule="evenodd" d="M47.8276 47.3196C47.9068 46.773 48.4141 46.3941 48.9607 46.4734C50.4345 46.687 54.043 47.4218 56.6321 48.69C57.1281 48.9329 57.3332 49.5319 57.0903 50.0279C56.8474 50.5239 56.2484 50.729 55.7524 50.4861C53.4415 49.3542 50.075 48.6558 48.6738 48.4527C48.1272 48.3735 47.7484 47.8662 47.8276 47.3196Z" fill="#CAFD3A"/>
<path fill-rule="evenodd" clip-rule="evenodd" d="M45.5746 53.7798C45.6412 53.2315 46.1397 52.8411 46.688 52.9078C47.51 53.0078 48.8615 53.2524 50.3076 53.6655C51.7437 54.0758 53.3425 54.6714 54.6135 55.5004C55.0761 55.8021 55.2066 56.4217 54.9049 56.8843C54.6032 57.3469 53.9836 57.4773 53.521 57.1756C52.492 56.5045 51.1117 55.9752 49.7582 55.5886C48.4147 55.2048 47.1662 54.9807 46.4465 54.8932C45.8983 54.8265 45.5079 54.328 45.5746 53.7798Z" fill="#CAFD3A"/>
<path d="M30.0749 34.3862C24.795 34.1199 23.1086 41.319 22.9254 44.9518C22.7421 48.5847 24.5643 53.8027 19.7563 53.7671C14.7587 53.7302 14.4324 44.7663 14.5712 42.0141C14.7175 39.1148 15.278 28.002 27.1013 25.0861C37.14 22.6104 42.6297 29.0881 45.1762 35.9283L56.5696 72.4035C57.1447 73.8633 57.4211 77.1291 53.9262 78.5137C50.4313 79.8984 48.5796 77.6791 47.852 75.4758L39.909 47.7596C38.8309 43.4127 35.3547 34.6525 30.0749 34.3862Z" fill="#F33624"/>
<path fill-rule="evenodd" clip-rule="evenodd" d="M37.9765 48.2759L45.9404 76.0651L45.9529 76.1029C46.3949 77.4414 47.2442 79.0108 48.7458 80.0069C50.3639 81.0801 52.4041 81.268 54.6628 80.3731C57.0174 79.4403 58.2625 77.7618 58.7133 75.9763C59.1234 74.352 58.8489 72.7748 58.4593 71.7451L47.0693 35.2808L47.0506 35.2305C45.699 31.6001 43.5035 27.8796 40.1328 25.4022C36.6812 22.8653 32.1831 21.7729 26.6224 23.1443C20.0426 24.767 16.4999 28.7372 14.6451 32.7102C12.843 36.5704 12.6505 40.3907 12.5752 41.8848L12.5738 41.9133C12.4988 43.4004 12.5425 46.5574 13.3048 49.423C13.6849 50.8516 14.2853 52.3716 15.2739 53.573C16.3118 54.8342 17.7975 55.7527 19.7415 55.7671C21.3068 55.7786 22.707 55.3546 23.7118 54.2849C24.6627 53.2726 24.9643 51.9859 25.066 50.9262C25.1685 49.8577 25.0924 48.7025 25.0242 47.7272C25.0201 47.669 25.016 47.6113 25.012 47.5542C24.9438 46.5831 24.8866 45.7702 24.9228 45.0526C25.0057 43.41 25.4358 40.9951 26.3796 39.0975C27.325 37.1967 28.4896 36.3088 29.9741 36.3836C31.5264 36.4619 33.2338 37.8799 34.8536 40.5734C36.388 43.125 37.4624 46.2034 37.9678 48.241L37.9765 48.2759ZM56.5696 72.4035L45.1762 35.9283C42.6297 29.0881 37.14 22.6104 27.1013 25.0861C15.278 28.002 14.7175 39.1147 14.5712 42.014C14.4324 44.7663 14.7587 53.7302 19.7563 53.7671C23.4476 53.7944 23.2309 50.725 23.014 47.6538C22.9484 46.7248 22.8828 45.7955 22.9254 44.9518C23.1086 41.319 24.795 34.1199 30.0749 34.3862C35.3547 34.6525 38.8309 43.4127 39.909 47.7595L47.852 75.4758C48.5796 77.679 50.4313 79.8983 53.9262 78.5137C57.4211 77.1291 57.1447 73.8633 56.5696 72.4035Z" fill="#8B150A"/>
<path fill-rule="evenodd" clip-rule="evenodd" d="M34.634 27.7136C36.7509 29.0276 38.1965 30.9445 39.1319 32.2582C39.4522 32.7081 39.3472 33.3325 38.8973 33.6528C38.4474 33.9732 37.823 33.8681 37.5026 33.4182C36.5839 32.1278 35.332 30.5008 33.5792 29.4128C31.8736 28.354 29.648 27.7769 26.6671 28.6711C22.1549 30.0247 20.151 34.3197 19.7331 36.2953C19.6188 36.8356 19.0881 37.1809 18.5478 37.0666C18.0075 36.9523 17.6621 36.4217 17.7764 35.8813C18.2752 33.5236 20.6046 28.4018 26.0924 26.7555C29.6539 25.687 32.47 26.3703 34.634 27.7136Z" fill="#FF867B"/>
<path fill-rule="evenodd" clip-rule="evenodd" d="M29.2674 27.6709C28.0163 27.6525 26.8756 27.847 26.2372 28.0215C25.7045 28.1672 25.1545 27.8534 25.0089 27.3206C24.8632 26.7879 25.177 26.238 25.7098 26.0923C26.5193 25.871 27.8474 25.6499 29.2967 25.6711C30.7365 25.6922 32.4017 25.9539 33.8005 26.7932C34.2741 27.0773 34.4276 27.6916 34.1435 28.1652C33.8593 28.6388 33.2451 28.7923 32.7715 28.5082C31.7953 27.9225 30.5282 27.6894 29.2674 27.6709Z" fill="#FFF5F4"/>
<path fill-rule="evenodd" clip-rule="evenodd" d="M34.6601 33.8517C36.4574 35.4931 37.6241 37.7399 38.1847 39.1579C38.3877 39.6715 38.136 40.2525 37.6224 40.4555C37.1088 40.6586 36.5278 40.4068 36.3248 39.8932C35.8229 38.6238 34.7975 36.6857 33.3114 35.3285C31.8666 34.0091 30.0658 33.2883 27.7966 34.1482C25.2454 35.115 23.8457 37.3248 23.1696 40.0046C22.4915 42.6928 22.589 45.7056 22.9307 47.9367C23.0143 48.4827 22.6395 48.993 22.0936 49.0766C21.5477 49.1602 21.0374 48.7854 20.9538 48.2395C20.5871 45.8456 20.4659 42.546 21.2304 39.5154C21.9971 36.4764 23.7015 33.5613 27.0879 32.278C30.2471 31.0808 32.8213 32.1725 34.6601 33.8517Z" fill="#BF2112"/>
<path fill-rule="evenodd" clip-rule="evenodd" d="M37.7723 27.6362C38.0564 27.1626 38.6707 27.009 39.1442 27.2932C39.7195 27.6383 40.2987 28.2014 40.841 28.8397C41.3948 29.4914 41.9578 30.2788 42.4922 31.1298C43.5581 32.8272 44.5501 34.8416 45.1426 36.6521L45.1451 36.6597L45.1451 36.6597L50.5191 53.5316L50.5201 53.5347L57.0816 73.9066C57.2509 74.4323 56.962 74.9957 56.4363 75.165C55.9106 75.3343 55.3472 75.0454 55.1779 74.5197L48.6154 54.1447L48.6144 54.1417L43.2406 37.2704C42.708 35.6443 41.7943 33.7792 40.7985 32.1934C40.3017 31.4022 39.7944 30.6966 39.3169 30.1347C38.828 29.5593 38.415 29.188 38.1152 29.0082C37.6417 28.724 37.4881 28.1097 37.7723 27.6362Z" fill="#BF2112"/>
<path fill-rule="evenodd" clip-rule="evenodd" d="M24.0136 46.14C24.1921 46.6627 23.913 47.231 23.3904 47.4095C19.0437 48.8937 15.5616 48.067 14.2181 47.3436C13.7319 47.0818 13.5499 46.4753 13.8118 45.9891C14.0736 45.5028 14.6801 45.3209 15.1663 45.5827C15.9896 46.026 18.8907 46.8326 22.7441 45.5168C23.2668 45.3383 23.8351 45.6174 24.0136 46.14Z" fill="#FCE04E"/>
<path fill-rule="evenodd" clip-rule="evenodd" d="M14.7116 35.7179C15.0886 35.3144 15.7214 35.2929 16.125 35.67C17.3442 36.8092 20.5608 39.2144 23.6468 39.8593C24.1874 39.9722 24.5341 40.5021 24.4211 41.0427C24.3081 41.5833 23.7783 41.93 23.2377 41.817C19.6237 41.0618 16.0819 38.367 14.7595 37.1313C14.356 36.7542 14.3345 36.1214 14.7116 35.7179Z" fill="#FCE04E"/>
<path fill-rule="evenodd" clip-rule="evenodd" d="M20.5403 27.0225C21.0598 26.8351 21.6329 27.1043 21.8204 27.6238C22.1667 28.5837 22.8453 30.1534 23.7366 31.6874C24.6422 33.246 25.6991 34.6473 26.7657 35.3939C27.2181 35.7106 27.3282 36.3342 27.0115 36.7866C26.6947 37.2391 26.0712 37.3491 25.6188 37.0324C24.1854 36.029 22.9506 34.3157 22.0073 32.6921C21.0496 31.0438 20.3219 29.3634 19.9391 28.3026C19.7516 27.7831 20.0208 27.21 20.5403 27.0225Z" fill="#FCE04E"/>
<path fill-rule="evenodd" clip-rule="evenodd" d="M29.9671 23.9216C30.4733 24.1425 30.7046 24.7319 30.4837 25.2381C30.0675 26.192 29.2275 29.5236 29.8098 34.2791C29.8769 34.8273 29.4869 35.3261 28.9387 35.3932C28.3905 35.4604 27.8917 35.0704 27.8246 34.5222C27.2069 29.4777 28.0669 25.7759 28.6507 24.4382C28.8715 23.932 29.4609 23.7007 29.9671 23.9216Z" fill="#FCE04E"/>
<path fill-rule="evenodd" clip-rule="evenodd" d="M40.1171 27.117C40.2047 27.6623 39.8337 28.1754 39.2884 28.263C38.8435 28.3345 38.3171 28.6064 37.7278 29.1163C37.1465 29.6192 36.5678 30.2984 36.0203 31.0699C34.9249 32.6138 34.0344 34.414 33.556 35.59C33.3479 36.1015 32.7645 36.3476 32.253 36.1395C31.7414 35.9314 31.4954 35.3479 31.7035 34.8364C32.2251 33.5539 33.1846 31.6104 34.3892 29.9126C34.9917 29.0634 35.6755 28.2472 36.4192 27.6038C37.1549 26.9673 38.016 26.4418 38.9711 26.2883C39.5164 26.2007 40.0294 26.5717 40.1171 27.117Z" fill="#FCE04E"/>
<path fill-rule="evenodd" clip-rule="evenodd" d="M40.6994 38.2238C39.3132 39.0951 38.1704 40.143 37.56 40.8202C37.1902 41.2304 36.5579 41.2632 36.1477 40.8934C35.7375 40.5236 35.7047 39.8913 36.0745 39.4811C36.7974 38.6791 38.0796 37.5082 39.6351 36.5305C41.1771 35.5613 43.0966 34.7131 45.0672 34.7131C45.6195 34.7131 46.0672 35.1608 46.0672 35.7131C46.0672 36.2654 45.6195 36.7131 45.0672 36.7131C43.6379 36.7131 42.099 37.3441 40.6994 38.2238Z" fill="#FCE04E"/>
<path fill-rule="evenodd" clip-rule="evenodd" d="M43.3225 45.4499C41.7128 45.5567 40.1308 45.9255 39.1842 46.228C38.6581 46.3962 38.0953 46.106 37.9272 45.5799C37.7591 45.0538 38.0492 44.4911 38.5753 44.323C39.6495 43.9796 41.3925 43.5735 43.1901 43.4543C44.9416 43.3381 46.9692 43.477 48.4303 44.4407C48.8914 44.7448 49.0186 45.3651 48.7145 45.8261C48.4104 46.2871 47.7902 46.4144 47.3291 46.1103C46.4403 45.524 44.9783 45.34 43.3225 45.4499Z" fill="#FCE04E"/>
<path fill-rule="evenodd" clip-rule="evenodd" d="M45.7287 54.2323C44.0124 54.0743 42.3739 54.1203 41.4087 54.2089C40.8587 54.2594 40.3719 53.8545 40.3214 53.3045C40.2709 52.7546 40.6758 52.2678 41.2258 52.2173C42.3022 52.1184 44.0638 52.0706 45.912 52.2407C47.7371 52.4087 49.7689 52.7992 51.3029 53.6514C51.7857 53.9196 51.9596 54.5284 51.6914 55.0112C51.4232 55.494 50.8144 55.668 50.3316 55.3997C49.1656 54.752 47.4682 54.3924 45.7287 54.2323Z" fill="#FCE04E"/>
<path fill-rule="evenodd" clip-rule="evenodd" d="M48.639 63.4617C46.7983 63.256 45.0039 63.3287 43.9357 63.4561C43.3873 63.5215 42.8897 63.13 42.8243 62.5816C42.7589 62.0332 43.1504 61.5356 43.6988 61.4702C44.9014 61.3268 46.8507 61.2494 48.8611 61.474C50.8424 61.6954 53.0415 62.2262 54.6094 63.4167C55.0493 63.7507 55.1352 64.378 54.8012 64.8179C54.4672 65.2577 53.8399 65.3436 53.4 65.0096C52.268 64.1501 50.5087 63.6705 48.639 63.4617Z" fill="#FCE04E"/>
<path fill-rule="evenodd" clip-rule="evenodd" d="M52.143 73.2424C50.2798 72.6481 48.168 72.5182 46.805 72.5869C46.2534 72.6147 45.7838 72.19 45.756 71.6384C45.7282 71.0869 46.1529 70.6172 46.7044 70.5894C48.2373 70.5122 50.6005 70.6511 52.7508 71.337C54.8679 72.0123 57.0612 73.3175 57.7204 75.7657C57.8639 76.299 57.548 76.8477 57.0147 76.9913C56.4814 77.1348 55.9327 76.8189 55.7891 76.2856C55.3982 74.8338 54.0394 73.8473 52.143 73.2424Z" fill="#FCE04E"/>
</svg>
