<svg width="96" height="96" viewBox="0 0 96 96" fill="none" xmlns="http://www.w3.org/2000/svg">
<g clip-path="url(#clip0_1202_2615)">
<path d="M11.0212 69.8889C23.5186 41.6576 47.4998 33.4179 58.08 30.6426C58.1265 30.6304 58.1732 30.6221 58.221 30.6168C66.1134 29.7431 66.6215 31.6575 65.2559 34.0638C65.186 34.187 65.09 34.2894 64.9743 34.3711C51.5585 43.8497 38.7207 71.7256 32.9779 87.034C32.6349 87.9482 31.3853 87.8824 31.2131 86.9212C30.0278 80.3054 29.5709 70.0315 30.0193 64.2074C30.0706 63.5407 29.4882 62.9933 28.8424 63.1669C23.8876 64.4994 16.9099 68.6272 12.2979 71.0892C11.4948 71.5179 10.6526 70.7214 11.0212 69.8889Z" fill="#F6BF34"/>
<path fill-rule="evenodd" clip-rule="evenodd" d="M9.19235 69.0793C22.0581 40.0159 46.7752 31.5403 57.5726 28.708C57.7218 28.6689 57.8652 28.6439 58.0009 28.6289C60.0404 28.4031 61.6929 28.3462 63.0071 28.4552C64.2771 28.5605 65.4642 28.8371 66.3689 29.4801C67.4215 30.2283 67.8888 31.3267 67.8409 32.4707C67.8 33.4511 67.3898 34.3559 66.9954 35.0509L65.2559 34.0638C66.6215 31.6574 66.1134 29.743 58.221 30.6167C58.1732 30.622 58.1265 30.6304 58.0801 30.6426C47.4998 33.4179 23.5186 41.6575 11.0212 69.8889C10.6527 70.7214 11.4948 71.5178 12.2979 71.0891L13.2398 72.8535C10.7079 74.2051 8.07764 71.5974 9.19235 69.0793ZM31.1092 86.321C30.0014 79.6978 29.5842 69.8581 30.0193 64.2073C30.0706 63.5406 29.4882 62.9932 28.8425 63.1669C24.7769 64.2602 19.3496 67.2354 14.9846 69.6282C14.0297 70.1517 13.1257 70.6472 12.2979 71.0891L13.2398 72.8535C14.107 72.3905 15.0287 71.8852 15.9916 71.3572C17.6762 70.4335 19.487 69.4406 21.3535 68.4845C23.6894 67.2878 25.9618 66.2299 27.9336 65.5429C27.6414 71.6631 28.1245 81.0228 29.2445 87.2739C29.5011 88.7061 30.6572 89.6029 31.9131 89.6773C33.1394 89.75 34.3618 89.039 34.8505 87.7364C37.6959 80.1515 42.3013 69.4499 47.8462 59.4891C53.4335 49.4523 59.8154 40.4647 66.1284 36.0045C66.4642 35.7673 66.7685 35.4507 66.9954 35.0509L65.2559 34.0638C65.186 34.187 65.09 34.2894 64.9743 34.3711C51.7081 43.7439 39.0071 71.1062 33.1726 86.5172C33.1723 86.5181 33.1719 86.519 33.1716 86.5199C33.1648 86.5379 33.158 86.5559 33.1512 86.5739C33.0927 86.7285 33.0349 86.8818 32.9779 87.034C32.6349 87.9482 31.3853 87.8823 31.2131 86.9212C31.1786 86.7284 31.1447 86.5325 31.1114 86.3337C31.1107 86.3295 31.11 86.3253 31.1093 86.3211C31.1093 86.3211 31.1092 86.321 31.1092 86.321Z" fill="#D97D11"/>
<path fill-rule="evenodd" clip-rule="evenodd" d="M58.8062 33.0508C59.0542 33.8412 58.6146 34.6831 57.8242 34.9311C41.1736 40.1572 29.7935 53.6072 23.6744 61.3081C23.159 61.9567 22.2154 62.0647 21.5668 61.5494C20.9182 61.034 20.8102 60.0904 21.3256 59.4418C27.4565 51.726 39.3264 37.5927 56.9258 32.0688C57.7162 31.8207 58.5581 32.2604 58.8062 33.0508Z" fill="#ECAF11"/>
<path fill-rule="evenodd" clip-rule="evenodd" d="M60.7167 31.4713C61.2848 32.0742 61.2566 33.0236 60.6537 33.5917C47.8513 45.6555 38.9724 61.816 35.5408 71.6205C35.2671 72.4024 34.4114 72.8145 33.6295 72.5408C32.8476 72.2671 32.4356 71.4114 32.7092 70.6295C36.2776 60.434 45.3987 43.8445 58.5963 31.4083C59.1992 30.8402 60.1486 30.8684 60.7167 31.4713Z" fill="#ECAF11"/>
<path fill-rule="evenodd" clip-rule="evenodd" d="M40.1228 37.7577C44.8817 40.4887 48.8904 44.4384 51.7505 49.1968C55.921 42.9401 60.4142 37.5929 64.9743 34.3711C65.09 34.2894 65.186 34.187 65.2559 34.0638C66.6214 31.6575 66.1133 29.7431 58.2209 30.6168C58.1732 30.6221 58.1265 30.6304 58.08 30.6426C53.7623 31.7752 47.2128 33.8178 40.1228 37.7577Z" fill="#DA8D19"/>
<path d="M45.9977 27.537L54.1072 22.8725C54.5977 22.5904 54.9457 22.1138 55.065 21.5608L56.5748 14.5659L57.5595 10.004C57.8802 8.51813 59.6758 7.91906 60.8244 8.91474L69.7581 16.6588C70.1856 17.0294 70.7501 17.2015 71.3116 17.1327L80.5973 15.9936C82.1746 15.8001 83.3366 17.4347 82.6358 18.8608L77.87 28.5588C77.5779 29.1532 77.599 29.8536 77.9262 30.4293L82.3486 38.2094C83.1723 39.6585 81.9659 41.4202 80.317 41.1761L70.2282 39.6828C69.598 39.5895 68.9612 39.802 68.5132 40.2549L61.342 47.5067C60.1699 48.6919 58.1474 48.0075 57.9361 46.354L56.8012 37.4771C56.7173 36.8202 56.3136 36.2475 55.7232 35.9476L46.0891 31.0538C44.6723 30.3341 44.6202 28.3293 45.9977 27.537Z" fill="#FFE24B"/>
<path fill-rule="evenodd" clip-rule="evenodd" d="M45.0005 25.8033L53.11 21.1389L55.6045 9.5821C56.2459 6.61031 59.8372 5.41216 62.1344 7.40353L71.0681 15.1476L80.3538 14.0085C83.5083 13.6216 85.8325 16.8906 84.4308 19.743L79.6649 29.441L84.0873 37.2211C85.7348 40.1193 83.322 43.6428 80.0242 43.1546L69.9353 41.6613L62.7641 48.913C60.42 51.2835 56.3749 49.9145 55.9522 46.6077L54.8174 37.7308L45.1833 32.8369C42.3498 31.3976 42.2456 27.3879 45.0005 25.8033ZM54.1072 22.8725L45.9977 27.537C44.6202 28.3293 44.6723 30.3341 46.0891 31.0538L55.7232 35.9476C56.3136 36.2476 56.7173 36.8203 56.8012 37.4772L57.936 46.3541C58.1474 48.0075 60.1699 48.692 61.342 47.5067L68.5132 40.255C68.9611 39.802 69.598 39.5896 70.2282 39.6828L80.317 41.1762C81.9659 41.4203 83.1723 39.6585 82.3486 38.2094L77.9262 30.4293C77.599 29.8536 77.5779 29.1532 77.87 28.5589L82.6358 18.8609C83.3366 17.4347 82.1746 15.8002 80.5973 15.9937L71.3116 17.1327C70.7501 17.2016 70.1856 17.0294 69.7581 16.6588L60.8244 8.91478C59.6758 7.9191 57.8802 8.51817 57.5594 10.0041L55.065 21.5608C54.9457 22.1138 54.5976 22.5904 54.1072 22.8725Z" fill="#D97D11"/>
<path d="M55.5699 27.0843L60.0911 24.4838C60.3363 24.3427 60.5103 24.1044 60.57 23.8279L61.3904 20.0269L61.9482 17.4425C62.1086 16.6996 63.0064 16.4 63.5807 16.8979L68.5168 21.1767C68.7306 21.3619 69.0128 21.448 69.2936 21.4136L74.4705 20.7786C75.2591 20.6818 75.8401 21.4991 75.4897 22.2122L72.8419 27.6002C72.6959 27.8974 72.7064 28.2476 72.87 28.5354L75.3504 32.899C75.7622 33.6236 75.1591 34.5044 74.3346 34.3824L68.7054 33.5492C68.3903 33.5025 68.0719 33.6088 67.8479 33.8352L63.8466 37.8815C63.2606 38.4741 62.2493 38.1319 62.1436 37.3051L61.5071 32.3264C61.4652 31.998 61.2633 31.7116 60.9681 31.5616L55.6156 28.8427C54.9072 28.4829 54.8812 27.4804 55.5699 27.0843Z" fill="#FFED8D"/>
<path fill-rule="evenodd" clip-rule="evenodd" d="M58.7087 22.9716L54.5727 25.3506C52.5065 26.539 52.5847 29.5463 54.7098 30.6258L59.5904 33.105L60.1598 37.5587C60.4768 40.0389 63.5106 41.0656 65.2687 39.2878L68.9137 35.6018L74.0418 36.3608C76.5151 36.7269 78.3247 34.0844 77.0891 31.9107L74.8703 28.0072L77.2847 23.0942C78.336 20.955 76.5929 18.5032 74.227 18.7934L69.4911 19.3744L64.8907 15.3866C63.1678 13.8931 60.4743 14.7917 59.9932 17.0205L58.7087 22.9716ZM60.0911 24.4838L55.5699 27.0843C54.8812 27.4804 54.9072 28.4828 55.6156 28.8427L60.9681 31.5616C61.2633 31.7116 61.4652 31.9979 61.5072 32.3264L62.1436 37.3051C62.2493 38.1318 63.2606 38.4741 63.8466 37.8815L67.8479 33.8352C68.0719 33.6088 68.3903 33.5025 68.7054 33.5491L74.3346 34.3824C75.1591 34.5044 75.7623 33.6236 75.3504 32.899L72.87 28.5354C72.7064 28.2476 72.6959 27.8974 72.8419 27.6002L75.4897 22.2121C75.8402 21.4991 75.2591 20.6818 74.4705 20.7785L69.2936 21.4136C69.0128 21.448 68.7306 21.3619 68.5168 21.1766L63.5807 16.8978C63.0064 16.4 62.1086 16.6995 61.9482 17.4425L60.57 23.8279C60.5103 24.1044 60.3363 24.3427 60.0911 24.4838Z" fill="#F9BF2A"/>
<path fill-rule="evenodd" clip-rule="evenodd" d="M30.1384 47.354C30.4951 47.7756 30.4426 48.4066 30.021 48.7633C23.6626 54.1435 18.0255 63.0563 16.0076 66.8451C15.748 67.3325 15.1424 67.5172 14.6549 67.2576C14.1675 66.998 13.9828 66.3923 14.2424 65.9049C16.3078 62.0269 22.0875 52.8564 28.7291 47.2366C29.1507 46.8798 29.7817 46.9324 30.1384 47.354Z" fill="#FFE194"/>
<path fill-rule="evenodd" clip-rule="evenodd" d="M42.6619 60.0314C43.1278 60.3279 43.2652 60.9459 42.9687 61.4119C38.6727 68.1627 34.9969 78.8872 33.7815 83.0363C33.6262 83.5663 33.0707 83.8701 32.5407 83.7148C32.0107 83.5596 31.7069 83.004 31.8621 82.474C33.0886 78.2871 36.8273 67.3373 41.2813 60.3381C41.5779 59.8722 42.1959 59.7348 42.6619 60.0314Z" fill="#FFE194"/>
</g>
<defs>
<clipPath id="clip0_1202_2615">
<rect width="96" height="96" fill="white"/>
</clipPath>
</defs>
</svg>
