<svg width="96" height="96" viewBox="0 0 96 96" fill="none" xmlns="http://www.w3.org/2000/svg">
<path d="M64.2639 66.3961C62.3298 69.796 56.4973 73.8312 53.8228 75.4238C38.4485 72.2807 34.3935 60.4919 34.2879 54.9903C44.8749 54.4659 41.5681 41.9475 38.5913 35.7539C46.4817 35.363 43.9685 25.5586 41.7256 20.7053C47.7232 20.5083 46.6174 11.6606 45.3148 7.26129C47.0602 7.96746 50.8663 10.6908 52.1273 15.9348C53.3883 21.1789 56.896 21.2471 58.4922 20.6257C54.5086 39.2456 63.736 38.0542 68.8476 35.1311C60.5157 50.8626 67.3056 53.6884 71.7419 53.1349C67.7839 54.0819 66.6816 62.1463 64.2639 66.3961Z" fill="#536704"/>
<path fill-rule="evenodd" clip-rule="evenodd" d="M54.8461 77.1421C54.4181 77.397 53.9103 77.483 53.4222 77.3832C36.9311 74.0118 32.4076 61.2452 32.2882 55.0287C32.2675 53.9479 33.1093 53.0462 34.1889 52.9927C36.4171 52.8823 37.6204 52.1711 38.3157 51.3458C39.0536 50.4698 39.4727 49.1647 39.527 47.4352C39.637 43.93 38.2173 39.5924 36.7887 36.6202C36.4985 36.0163 36.5299 35.3071 36.8725 34.7313C37.215 34.1554 37.8232 33.7894 38.4924 33.7562C40.0157 33.6808 40.7522 33.1854 41.1627 32.6716C41.6261 32.0917 41.9261 31.1701 41.9591 29.853C42.0257 27.1878 40.975 23.8487 39.9101 21.5443C39.6288 20.9356 39.6713 20.2264 40.0232 19.6556C40.3752 19.0848 40.9897 18.7284 41.66 18.7064C42.5941 18.6757 43.0833 18.3472 43.4205 17.9131C43.824 17.3938 44.1357 16.5438 44.2701 15.3377C44.5392 12.922 44.0102 9.89965 43.3971 7.82905C43.1791 7.09271 43.4019 6.29656 43.9705 5.78039C44.5391 5.26423 45.353 5.1192 46.0649 5.40722C48.2968 6.3102 52.6337 9.48618 54.0719 15.4672C54.6003 17.6645 55.4909 18.4074 56.0525 18.6781C56.6933 18.987 57.3801 18.9123 57.7666 18.7619C58.452 18.495 59.2285 18.6259 59.7885 19.1026C60.3486 19.5793 60.6018 20.3249 60.4479 21.044C59.4779 25.5782 59.3549 28.7262 59.6868 30.8495C60.0144 32.9446 60.7496 33.8719 61.3837 34.303C62.0492 34.7555 62.99 34.9251 64.2117 34.739C65.4287 34.5536 66.7293 34.0384 67.8547 33.3948C68.6274 32.953 69.5992 33.0749 70.2387 33.6941C70.8782 34.3132 71.0316 35.2805 70.615 36.0671C66.4832 43.8685 66.5418 47.7223 67.3203 49.3966C67.9891 50.8353 69.6374 51.3819 71.4943 51.1502C72.5477 51.0188 73.5203 51.7333 73.7098 52.7778C73.8993 53.8223 73.2398 54.8329 72.2073 55.0799C71.855 55.1642 71.405 55.4402 70.859 56.1881C70.3101 56.94 69.7992 57.9848 69.2808 59.2734C68.9333 60.1371 68.6163 61.0197 68.2869 61.9368C68.1202 62.4007 67.9505 62.8734 67.772 63.3569C67.2632 64.7352 66.694 66.1693 66.0023 67.385C64.8358 69.4355 62.6352 71.4919 60.5729 73.1473C58.4575 74.8454 56.2528 76.3045 54.8461 77.1421ZM69.1974 55.0728C68.0536 56.6707 67.2147 59.0054 66.3875 61.3079C65.7229 63.1577 65.0657 64.9867 64.2639 66.3961C62.3298 69.7959 56.4973 73.8311 53.8228 75.4238C40.1161 72.6215 35.4064 62.9476 34.4711 56.9834C34.4038 56.5548 34.3561 56.1454 34.326 55.7591C34.305 55.4913 34.2926 55.2346 34.2879 54.9903C43.8626 54.516 42.0734 44.2317 39.4418 37.6879C39.1636 36.996 38.876 36.346 38.5913 35.7538C39.3664 35.7154 40.041 35.5862 40.6254 35.3798C45.2755 33.7372 44.2108 27.206 42.5275 22.6447C42.2686 21.9434 41.9952 21.2886 41.7256 20.7053C42.4981 20.6799 43.1527 20.511 43.7043 20.2266C46.6816 18.6914 46.6553 13.7902 45.9465 9.92522C45.7671 8.94707 45.544 8.03529 45.3148 7.26123C45.9387 7.51364 46.8259 8.02378 47.766 8.81463C49.456 10.2363 51.317 12.5652 52.1273 15.9348C52.9662 19.4233 54.7993 20.6213 56.4025 20.8495C57.2093 20.9644 57.9579 20.8336 58.4922 20.6256C58.33 21.3837 58.1897 22.1089 58.0702 22.8025C55.751 36.2572 61.2315 37.8147 65.9772 36.3804C66.996 36.0724 67.9809 35.6266 68.8476 35.131C68.3132 36.1399 67.8411 37.0958 67.4265 38.0011C62.8922 47.9023 65.247 51.7541 68.4593 52.8443C69.5328 53.2087 70.702 53.2646 71.7419 53.1348C70.7305 53.3768 69.9055 54.0837 69.1974 55.0728Z" fill="#676E0B"/>
<path fill-rule="evenodd" clip-rule="evenodd" d="M50.0504 22.0195C50.5916 21.9092 51.1196 22.2586 51.2299 22.7997C52.6035 29.5429 55.3987 45.3053 55.4999 54.1129C55.5063 54.6651 55.0637 55.1179 54.5115 55.1243C53.9592 55.1306 53.5064 54.6881 53.5001 54.1358C53.4013 45.5434 50.6465 29.9558 49.2701 23.1989C49.1599 22.6578 49.5092 22.1297 50.0504 22.0195Z" fill="#617807"/>
<path d="M73.4279 80.8125C64.1782 80.8125 53.1779 80.8125 48.9282 81.9375C45.9282 64.3125 50.9696 55.6458 53.1779 53.0625C55.4779 60.4625 60.1363 51.0625 62.1779 45.4375C65.5779 51.9375 73.5113 47.0625 77.0529 43.8125C78.0529 46.1875 80.4921 45.9424 83.0529 45.4375C85.272 45 89.8029 45.1875 91.9279 45.4375C86.2279 48.7375 87.1362 54.3125 88.3029 56.6875C78.8029 59.4875 79.5946 65.1875 81.1779 67.6875C69.6779 69.6875 71.2196 77.2708 73.4279 80.8125Z" fill="#62780A"/>
<path fill-rule="evenodd" clip-rule="evenodd" d="M47.8461 83.6195C47.3737 83.3155 47.0508 82.8269 46.9566 82.2731C43.8706 64.1429 49.014 54.8555 51.6577 51.763C52.1309 51.2093 52.8677 50.9568 53.5811 51.1036C54.2945 51.2504 54.8716 51.7734 55.0878 52.4689C55.2565 53.0118 55.4169 53.3705 55.5446 53.598C55.7242 53.4446 55.9499 53.2131 56.2148 52.8829C57.704 51.0265 59.2889 47.5351 60.2979 44.7552C60.5684 44.01 61.2534 43.495 62.0443 43.442C62.8352 43.389 63.5827 43.8081 63.9501 44.5105C64.5863 45.7268 65.3297 46.2495 66.0447 46.4769C66.8216 46.724 67.8162 46.6992 69.0142 46.3579C71.4474 45.6644 74.0469 43.8565 75.7007 42.3389C76.1801 41.899 76.8437 41.7198 77.4794 41.8585C78.1152 41.9973 78.6437 42.4367 78.8962 43.0364C79.0231 43.3378 79.153 43.4659 79.2424 43.5321C79.3407 43.6049 79.5016 43.684 79.7903 43.7312C80.4474 43.8386 81.3694 43.7309 82.6661 43.4753C83.9946 43.2134 85.8605 43.1562 87.5537 43.1799C89.2839 43.2041 91.018 43.3167 92.1616 43.4512C93.0171 43.5519 93.7121 44.189 93.8865 45.0327C94.0609 45.8763 93.6755 46.7368 92.93 47.1684C90.6112 48.5108 89.7609 50.2045 89.5148 51.7282C89.2526 53.3526 89.6636 54.9214 90.098 55.8057C90.358 56.3349 90.3712 56.9518 90.1341 57.4917C89.8971 58.0315 89.4339 58.4392 88.8683 58.6059C84.459 59.9055 82.9431 61.7201 82.4542 63.0092C81.9428 64.3578 82.3161 65.7466 82.8675 66.6174C83.2249 67.1816 83.277 67.887 83.0065 68.4976C82.736 69.1082 82.1786 69.5435 81.5206 69.6579C76.1968 70.5838 74.5567 72.6498 74.0781 74.2462C73.5319 76.068 74.1804 78.2392 75.125 79.7543C75.5095 80.3709 75.5293 81.1476 75.1767 81.783C74.8241 82.4184 74.1546 82.8125 73.4279 82.8125C68.7954 82.8125 63.7662 82.8127 59.3664 82.9521C54.8923 83.0939 51.3085 83.3763 49.44 83.8709C48.897 84.0147 48.3185 83.9234 47.8461 83.6195ZM55.2401 53.8092C55.2401 53.8091 55.2421 53.8082 55.2461 53.8069C55.2421 53.8086 55.2401 53.8093 55.2401 53.8092ZM73.4279 80.8125C73.0699 80.2384 72.7295 79.5581 72.4593 78.8125C71.1688 75.2522 71.48 70.2048 79.134 68.1357C79.7644 67.9653 80.4447 67.815 81.1779 67.6875C80.8533 67.175 80.562 66.528 80.3858 65.7991C79.7647 63.2297 80.574 59.6422 86.3987 57.3386C86.982 57.1079 87.6155 56.8901 88.3029 56.6875C88.0551 56.1831 87.819 55.5342 87.6553 54.7935C87.177 52.6284 87.3181 49.6783 89.598 47.2531C90.2105 46.6015 90.9773 45.9879 91.9279 45.4375C91.1433 45.3452 90.0306 45.2614 88.8273 45.2145C86.772 45.1343 84.4526 45.1616 83.0529 45.4375C81.2835 45.7864 79.5721 46.0112 78.3535 45.3334C77.8084 45.0302 77.362 44.5465 77.0529 43.8125C76.5932 44.2344 76.0595 44.6837 75.4712 45.1319C72.0787 47.7169 66.8739 50.2669 63.6022 47.3265C63.0712 46.8493 62.5911 46.2274 62.1779 45.4375C61.9167 46.1572 61.6127 46.9386 61.2762 47.7387C59.3107 52.4131 56.2391 57.7258 54.1384 55.0866C53.788 54.6464 53.4646 53.985 53.1779 53.0625C52.7849 53.5222 52.3022 54.1746 51.7911 55.0358C49.5399 58.8288 46.7372 66.673 48.6184 79.9525C48.7103 80.6011 48.8134 81.2628 48.9282 81.9375C49.4765 81.7924 50.1372 81.6659 50.892 81.5558C55.512 80.8818 63.6581 80.819 71.1431 80.8131C71.9132 80.8125 72.6764 80.8125 73.4279 80.8125Z" fill="#676E0B"/>
<path fill-rule="evenodd" clip-rule="evenodd" d="M84.0341 48.9583C84.2642 49.4604 84.0437 50.054 83.5417 50.2841C74.6495 54.3596 63.833 61.8651 57.8745 72.61C57.6067 73.093 56.998 73.2674 56.515 72.9995C56.032 72.7317 55.8576 72.123 56.1255 71.64C62.367 60.3849 73.6005 52.6404 82.7083 48.4659C83.2104 48.2358 83.804 48.4563 84.0341 48.9583Z" fill="#738B11"/>
<path d="M32.625 82.875C40.825 81.075 52.7083 80.5416 57.625 80.5C58.825 68.3999 53.7083 56.875 51 52.625C47.2 58.025 43.3333 49.0417 41.875 43.875C36.275 49.575 29.4583 45.5833 26.75 42.875C25.375 44.6875 23.6327 46.6226 19 45.2499C14.8951 44.0337 10.125 44.9166 8 45.2499C13.3 48.4499 15.2917 56.0833 14.625 59.4999C25.125 61.6999 23.3333 67.9166 21.125 70.75C31.625 70.35 33.1667 78.6666 32.625 82.875Z" fill="#848C13"/>
<path fill-rule="evenodd" clip-rule="evenodd" d="M59.6152 80.6973C59.5144 81.714 58.6636 82.4912 57.6419 82.4999C52.7593 82.5413 41.0447 83.0743 33.0538 84.8284C32.4182 84.968 31.7544 84.7895 31.2744 84.3501C30.7944 83.9106 30.5583 83.2651 30.6414 82.6196C30.8723 80.8258 30.635 78.2062 29.3295 76.16C28.1253 74.2725 25.8274 72.5723 21.2011 72.7485C20.4237 72.7781 19.6997 72.3542 19.345 71.6618C18.9903 70.9694 19.0693 70.1341 19.5475 69.5205C20.4687 68.3386 21.0644 66.7244 20.7096 65.408C20.407 64.2857 19.1419 62.4898 14.2149 61.4574C13.1443 61.2331 12.4525 60.1905 12.662 59.1169C12.8985 57.9048 12.6805 55.5443 11.6891 53.0265C10.7127 50.5467 9.12083 48.263 6.96626 46.9621C6.24669 46.5276 5.87556 45.6896 6.03744 44.8648C6.19932 44.04 6.85966 43.4044 7.69006 43.2741C7.8195 43.2538 7.96258 43.2306 8.11824 43.2054C10.3678 42.8412 15.2449 42.0514 19.5682 43.3324C21.5658 43.9242 22.6403 43.7216 23.2698 43.4358C23.9617 43.1216 24.4836 42.5534 25.1566 41.6662C25.5059 41.2059 26.0372 40.919 26.6137 40.8797C27.1902 40.8403 27.7556 41.0522 28.1642 41.4608C29.3289 42.6255 31.3901 44.0589 33.6718 44.578C35.8265 45.0681 38.1947 44.7672 40.4483 42.4734C40.948 41.9648 41.6806 41.7607 42.3712 41.9375C43.0619 42.1144 43.6061 42.6456 43.7998 43.3317C44.5098 45.8473 45.7634 49.1069 47.1727 51.0305C47.9189 52.0491 48.4053 52.2719 48.5263 52.2934C48.5292 52.2939 48.5313 52.2942 48.5327 52.2943L48.5351 52.2938C48.5376 52.2931 48.5418 52.2919 48.5477 52.2898C48.5594 52.2856 48.5798 52.2772 48.6091 52.261C48.7341 52.1919 49.0003 51.9914 49.3644 51.474C49.7483 50.9285 50.3789 50.6102 51.0458 50.6255C51.7127 50.6408 52.3281 50.9876 52.6866 51.5502C55.5452 56.036 60.8737 68.0082 59.6152 80.6973ZM52.0789 54.4855C54.859 59.6857 58.6791 69.8709 57.625 80.5C53.1051 80.5383 42.6977 80.9921 34.6768 82.4635C33.9726 82.5927 33.2868 82.7297 32.625 82.875C32.704 82.2613 32.7387 81.5603 32.7077 80.8117C32.5436 76.8394 30.532 71.527 23.4879 70.8159C22.7558 70.742 21.9694 70.7178 21.125 70.75C21.5595 70.1926 21.9778 69.5042 22.2896 68.7412C23.5626 65.626 23.0593 61.2671 14.625 59.5C15.1925 56.5916 13.8338 50.6281 10.1481 46.9442C9.5039 46.3003 8.78857 45.7261 8 45.25C8.12585 45.2302 8.26097 45.2085 8.40469 45.1855C9.05516 45.0812 9.8816 44.9487 10.8202 44.8389C13.176 44.5635 16.2385 44.4317 19 45.25C22.3106 46.2309 24.1451 45.5226 25.4244 44.377C25.9353 43.9195 26.3576 43.3923 26.75 42.875C27.1668 43.2918 27.6809 43.739 28.2728 44.1765C31.1518 46.3046 35.8731 48.2055 40.2041 45.2781C40.7694 44.8961 41.328 44.4318 41.875 43.875C42.0604 44.532 42.2848 45.2506 42.543 45.9936C44.0524 50.3366 46.7185 55.5095 49.5249 54.0392C50.0141 53.7829 50.5076 53.3247 51 52.625C51.3293 53.1417 51.6941 53.7659 52.0789 54.4855Z" fill="#676E0B"/>
<path fill-rule="evenodd" clip-rule="evenodd" d="M15.285 46.9253C15.4298 46.3923 15.9792 46.0777 16.5122 46.2225C24.9923 48.5265 32.8123 53.6438 39.1661 59.2004C45.5235 64.7601 50.4766 70.8155 53.2166 75.0849C53.5149 75.5497 53.3799 76.1683 52.9151 76.4666C52.4503 76.7649 51.8317 76.6299 51.5334 76.1651C48.8984 72.0595 44.0702 66.1461 37.8495 60.7059C31.6251 55.2625 24.0702 50.3485 15.9878 48.1525C15.4548 48.0077 15.1402 47.4583 15.285 46.9253Z" fill="#9BA517"/>
<path d="M70.9249 63.2323C70.9249 68.2625 66.8471 72.3402 61.8169 72.3402C56.7867 72.3402 52.709 68.2625 52.709 63.2323C52.709 58.2021 56.7867 54.1243 61.8169 54.1243C66.8471 54.1243 70.9249 58.2021 70.9249 63.2323Z" fill="#9F2308"/>
<path fill-rule="evenodd" clip-rule="evenodd" d="M72.9249 63.2323C72.9249 69.367 67.9517 74.3402 61.8169 74.3402C55.6822 74.3402 50.709 69.367 50.709 63.2323C50.709 57.0975 55.6822 52.1243 61.8169 52.1243C67.9517 52.1243 72.9249 57.0975 72.9249 63.2323ZM61.8169 72.3402C66.8471 72.3402 70.9249 68.2625 70.9249 63.2323C70.9249 58.2021 66.8471 54.1243 61.8169 54.1243C56.7867 54.1243 52.709 58.2021 52.709 63.2323C52.709 68.2625 56.7867 72.3402 61.8169 72.3402Z" fill="#741602"/>
<path d="M56.1245 72.3404C56.1245 77.3706 52.0467 81.4484 47.0165 81.4484C41.9863 81.4484 37.9085 77.3706 37.9085 72.3404C37.9085 67.3102 41.9863 63.2324 47.0165 63.2324C52.0467 63.2324 56.1245 67.3102 56.1245 72.3404Z" fill="#BF2200"/>
<path fill-rule="evenodd" clip-rule="evenodd" d="M58.1245 72.3404C58.1245 78.4752 53.1512 83.4484 47.0165 83.4484C40.8817 83.4484 35.9085 78.4752 35.9085 72.3404C35.9085 66.2056 40.8817 61.2324 47.0165 61.2324C53.1512 61.2324 58.1245 66.2056 58.1245 72.3404ZM47.0165 81.4484C52.0467 81.4484 56.1245 77.3706 56.1245 72.3404C56.1245 67.3102 52.0467 63.2324 47.0165 63.2324C41.9863 63.2324 37.9085 67.3102 37.9085 72.3404C37.9085 77.3706 41.9863 81.4484 47.0165 81.4484Z" fill="#8D1D05"/>
<path d="M74.125 75.0546C74.125 80.9551 69.076 85.7383 62.8477 85.7383C56.6194 85.7383 51.5704 80.9551 51.5704 75.0546C51.5704 69.1541 56.6194 64.3708 62.8477 64.3708C69.076 64.3708 74.125 69.1541 74.125 75.0546Z" fill="#DF2D06"/>
<path fill-rule="evenodd" clip-rule="evenodd" d="M76.125 75.0546C76.125 82.1601 70.0773 87.7383 62.8477 87.7383C55.6181 87.7383 49.5704 82.1601 49.5704 75.0546C49.5704 67.949 55.6181 62.3708 62.8477 62.3708C70.0773 62.3708 76.125 67.949 76.125 75.0546ZM62.8477 85.7383C69.076 85.7383 74.125 80.9551 74.125 75.0546C74.125 69.1541 69.076 64.3708 62.8477 64.3708C56.6194 64.3708 51.5704 69.1541 51.5704 75.0546C51.5704 80.9551 56.6194 85.7383 62.8477 85.7383Z" fill="#B32303"/>
<path d="M64.5304 70.7616C64.5304 73.3529 62.4297 75.4536 59.8384 75.4536C57.2471 75.4536 55.1464 73.3529 55.1464 70.7616C55.1464 68.1703 57.2471 66.0696 59.8384 66.0696C62.4297 66.0696 64.5304 68.1703 64.5304 70.7616Z" fill="#FC4C14"/>
<path d="M50.4272 69.6173C50.4272 72.3787 48.1886 74.6173 45.4272 74.6173C42.6658 74.6173 40.4272 72.3787 40.4272 69.6173C40.4272 66.8559 42.6658 64.6173 45.4272 64.6173C48.1886 64.6173 50.4272 66.8559 50.4272 69.6173Z" fill="#D6300C"/>
<path d="M60 69.5C60 70.3284 59.3284 71 58.5 71C57.6716 71 57 70.3284 57 69.5C57 68.6716 57.6716 68 58.5 68C59.3284 68 60 68.6716 60 69.5Z" fill="white"/>
<path d="M45.75 68C45.75 68.8284 45.0784 69.5 44.25 69.5C43.4216 69.5 42.75 68.8284 42.75 68C42.75 67.1716 43.4216 66.5 44.25 66.5C45.0784 66.5 45.75 67.1716 45.75 68Z" fill="#FF8166"/>
</svg>
