<svg width="96" height="96" viewBox="0 0 96 96" fill="none" xmlns="http://www.w3.org/2000/svg">
<path d="M20.8331 39.1882C20.8331 38.0837 21.7286 37.1882 22.8331 37.1882H70.6296C71.7342 37.1882 72.6296 38.0837 72.6296 39.1882V81.6087C72.6296 82.7133 71.7342 83.6087 70.6296 83.6087H22.8331C21.7286 83.6087 20.8331 82.7133 20.8331 81.6087V39.1882Z" fill="#A15B33"/>
<path fill-rule="evenodd" clip-rule="evenodd" d="M22.8331 35.1882H70.6296C72.8387 35.1882 74.6296 36.9791 74.6296 39.1882V81.6087C74.6296 83.8179 72.8387 85.6087 70.6296 85.6087H22.8331C20.624 85.6087 18.8331 83.8179 18.8331 81.6087V39.1882C18.8331 36.9791 20.624 35.1882 22.8331 35.1882ZM22.8331 37.1882C21.7286 37.1882 20.8331 38.0837 20.8331 39.1882V81.6087C20.8331 82.7133 21.7286 83.6087 22.8331 83.6087H70.6296C71.7342 83.6087 72.6296 82.7133 72.6296 81.6087V39.1882C72.6296 38.0837 71.7342 37.1882 70.6296 37.1882H22.8331Z" fill="#643012"/>
<path fill-rule="evenodd" clip-rule="evenodd" d="M66.6296 83.6087H70.6296C71.7342 83.6087 72.6296 82.7133 72.6296 81.6087V39.1882C72.6296 38.0837 71.7342 37.1882 70.6296 37.1882H66.6296C67.7342 37.1882 68.6296 38.0837 68.6296 39.1882V81.6087C68.6296 82.7133 67.7342 83.6087 66.6296 83.6087Z" fill="#985129"/>
<path d="M50.8808 56.6301C51.3213 56.6301 51.6784 56.9872 51.6784 57.4277C51.6784 57.8682 51.3213 58.2253 50.8808 58.2253C50.4402 58.2253 50.0831 57.8682 50.0831 57.4277C50.0831 56.9872 50.4402 56.6301 50.8808 56.6301Z" fill="#823F18"/>
<path d="M70.7855 57.8497C71.226 57.8497 71.5831 58.2068 71.5831 58.6473C71.5831 59.0878 71.226 59.4449 70.7855 59.4449C70.345 59.4449 69.9878 59.0878 69.9878 58.6473C69.9878 58.2068 70.345 57.8497 70.7855 57.8497Z" fill="#823F18"/>
<path d="M59.1402 56.0918C59.7349 56.0918 60.217 56.5739 60.217 57.1686C60.217 57.7633 59.7349 58.2454 59.1402 58.2454C58.5455 58.2454 58.0634 57.7633 58.0634 57.1686C58.0634 56.5739 58.5455 56.0918 59.1402 56.0918Z" fill="#823F18"/>
<path d="M55.6407 56.6302C56.0867 56.6302 56.4483 56.9918 56.4483 57.4378C56.4483 57.8838 56.0867 58.2454 55.6407 58.2454C55.1946 58.2454 54.8331 57.8838 54.8331 57.4378C54.8331 56.9918 55.1946 56.6302 55.6407 56.6302Z" fill="#823F18"/>
<path d="M63.7664 55.9736C64.6914 55.9736 65.4414 56.7235 65.4414 57.6486C65.4414 58.5737 64.6914 59.3236 63.7664 59.3236C62.8413 59.3236 62.0914 58.5737 62.0914 57.6486C62.0914 56.7235 62.8413 55.9736 63.7664 55.9736Z" fill="#823F18"/>
<path d="M60.5568 59.322C61.0419 59.322 61.4351 59.7152 61.4351 60.2003C61.4351 60.6853 61.0419 61.0785 60.5568 61.0785C60.0718 61.0785 59.6786 60.6853 59.6786 60.2003C59.6786 59.7152 60.0718 59.322 60.5568 59.322Z" fill="#823F18"/>
<path d="M68.1337 55.7012C68.7284 55.7012 69.2105 56.1833 69.2105 56.778C69.2105 57.3726 68.7284 57.8547 68.1337 57.8547C67.539 57.8547 67.0569 57.3726 67.0569 56.778C67.0569 56.1833 67.539 55.7012 68.1337 55.7012Z" fill="#823F18"/>
<path d="M67.256 58.8134C67.6168 58.8134 67.9092 59.1058 67.9092 59.4666C67.9092 59.8273 67.6168 60.1198 67.256 60.1198C66.8953 60.1198 66.6028 59.8273 66.6028 59.4666C66.6028 59.1058 66.8953 58.8134 67.256 58.8134Z" fill="#823F18"/>
<path d="M70.5063 61.0785C71.101 61.0785 71.5831 61.5606 71.5831 62.1553C71.5831 62.75 71.101 63.2321 70.5063 63.2321C69.9116 63.2321 69.4295 62.75 69.4295 62.1553C69.4295 61.5606 69.9116 61.0785 70.5063 61.0785Z" fill="#823F18"/>
<path d="M65.6408 60.9174C66.2355 60.9174 66.7176 61.3994 66.7176 61.9941C66.7176 62.5888 66.2355 63.0709 65.6408 63.0709C65.0461 63.0709 64.564 62.5888 64.564 61.9941C64.564 61.3994 65.0461 60.9174 65.6408 60.9174Z" fill="#823F18"/>
<path d="M70.7756 64.8655C71.2216 64.8655 71.5831 65.2271 71.5831 65.6731C71.5831 66.1191 71.2216 66.4807 70.7756 66.4807C70.3295 66.4807 69.968 66.1191 69.968 65.6731C69.968 65.2271 70.3295 64.8655 70.7756 64.8655Z" fill="#823F18"/>
<path d="M43.098 56.6301C42.6575 56.6301 42.3004 56.9872 42.3004 57.4277C42.3004 57.8682 42.6575 58.2253 43.098 58.2253C43.5385 58.2253 43.8956 57.8682 43.8956 57.4277C43.8956 56.9872 43.5385 56.6301 43.098 56.6301Z" fill="#823F18"/>
<path d="M23.1933 57.8497C22.7528 57.8497 22.3956 58.2068 22.3956 58.6473C22.3956 59.0878 22.7528 59.4449 23.1933 59.4449C23.6338 59.4449 23.9909 59.0878 23.9909 58.6473C23.9909 58.2068 23.6338 57.8497 23.1933 57.8497Z" fill="#823F18"/>
<path d="M34.8386 56.0918C34.2439 56.0918 33.7618 56.5739 33.7618 57.1686C33.7618 57.7633 34.2439 58.2454 34.8386 58.2454C35.4333 58.2454 35.9153 57.7633 35.9153 57.1686C35.9153 56.5739 35.4333 56.0918 34.8386 56.0918Z" fill="#823F18"/>
<path d="M38.3381 56.6302C37.8921 56.6302 37.5305 56.9918 37.5305 57.4378C37.5305 57.8838 37.8921 58.2454 38.3381 58.2454C38.7841 58.2454 39.1457 57.8838 39.1457 57.4378C39.1457 56.9918 38.7841 56.6302 38.3381 56.6302Z" fill="#823F18"/>
<path d="M30.2124 55.9736C29.2873 55.9736 28.5374 56.7235 28.5374 57.6486C28.5374 58.5737 29.2873 59.3236 30.2124 59.3236C31.1375 59.3236 31.8874 58.5737 31.8874 57.6486C31.8874 56.7235 31.1375 55.9736 30.2124 55.9736Z" fill="#823F18"/>
<path d="M33.4219 59.322C32.9369 59.322 32.5437 59.7152 32.5437 60.2003C32.5437 60.6853 32.9369 61.0785 33.4219 61.0785C33.907 61.0785 34.3002 60.6853 34.3002 60.2003C34.3002 59.7152 33.907 59.322 33.4219 59.322Z" fill="#823F18"/>
<path d="M25.8451 55.7012C25.2504 55.7012 24.7683 56.1833 24.7683 56.778C24.7683 57.3726 25.2504 57.8547 25.8451 57.8547C26.4398 57.8547 26.9219 57.3726 26.9219 56.778C26.9219 56.1833 26.4398 55.7012 25.8451 55.7012Z" fill="#823F18"/>
<path d="M26.7228 58.8134C26.362 58.8134 26.0696 59.1058 26.0696 59.4666C26.0696 59.8273 26.362 60.1198 26.7228 60.1198C27.0835 60.1198 27.376 59.8273 27.376 59.4666C27.376 59.1058 27.0835 58.8134 26.7228 58.8134Z" fill="#823F18"/>
<path d="M23.4725 61.0785C22.8778 61.0785 22.3957 61.5606 22.3957 62.1553C22.3957 62.75 22.8778 63.2321 23.4725 63.2321C24.0672 63.2321 24.5493 62.75 24.5493 62.1553C24.5493 61.5606 24.0672 61.0785 23.4725 61.0785Z" fill="#823F18"/>
<path d="M28.3379 60.9174C27.7432 60.9174 27.2612 61.3994 27.2612 61.9941C27.2612 62.5888 27.7432 63.0709 28.3379 63.0709C28.9326 63.0709 29.4147 62.5888 29.4147 61.9941C29.4147 61.3994 28.9326 60.9174 28.3379 60.9174Z" fill="#823F18"/>
<path d="M23.2032 64.8655C22.7572 64.8655 22.3956 65.2271 22.3956 65.6731C22.3956 66.1191 22.7572 66.4807 23.2032 66.4807C23.6492 66.4807 24.0108 66.1191 24.0108 65.6731C24.0108 65.2271 23.6492 64.8655 23.2032 64.8655Z" fill="#823F18"/>
<path d="M18.7891 25.5723C19.8143 22.2243 22.9052 19.9382 26.4066 19.9382H65.0776C68.579 19.9382 71.6699 22.2243 72.6951 25.5723L78.4382 44.3271C80.0063 49.4479 76.1762 54.6264 70.8207 54.6264H20.6635C15.3079 54.6264 11.4778 49.4479 13.0459 44.3271L18.7891 25.5723Z" fill="#76CBFB"/>
<path fill-rule="evenodd" clip-rule="evenodd" d="M26.4066 17.9382H65.0776C69.458 17.9382 73.3249 20.7983 74.6075 24.9867L80.3506 43.7415C82.3123 50.1479 77.5207 56.6264 70.8207 56.6264H20.6635C13.9634 56.6264 9.17184 50.1479 11.1336 43.7415L16.8767 24.9867C18.1593 20.7983 22.0262 17.9382 26.4066 17.9382ZM26.4066 19.9382C22.9052 19.9382 19.8143 22.2243 18.7891 25.5723L13.0459 44.3271C11.4778 49.4479 15.3079 54.6264 20.6635 54.6264H70.8207C76.1762 54.6264 80.0063 49.4479 78.4382 44.3271L72.6951 25.5723C71.6699 22.2243 68.579 19.9382 65.0776 19.9382H26.4066Z" fill="#2286BE"/>
<path fill-rule="evenodd" clip-rule="evenodd" d="M27.5509 23.2279C28.3574 23.4172 28.8577 24.2244 28.6685 25.0309L22.9185 49.5309C22.7292 50.3374 21.9219 50.8378 21.1154 50.6485C20.3089 50.4592 19.8085 49.652 19.9978 48.8455L25.7478 24.3455C25.9371 23.539 26.7443 23.0386 27.5509 23.2279Z" fill="#5DB8EB"/>
<path fill-rule="evenodd" clip-rule="evenodd" d="M36.1316 23.4483C36.9544 23.5441 37.5439 24.2888 37.4481 25.1117L34.6981 48.7367C34.6023 49.5596 33.8576 50.149 33.0347 50.0532C32.2118 49.9574 31.6224 49.2127 31.7182 48.3898L34.4682 24.7648C34.564 23.9419 35.3087 23.3525 36.1316 23.4483Z" fill="#5DB8EB"/>
<path fill-rule="evenodd" clip-rule="evenodd" d="M45.0831 23.4382C45.9116 23.4382 46.5831 24.1098 46.5831 24.9382V48.4382C46.5831 49.2667 45.9116 49.9382 45.0831 49.9382C44.2547 49.9382 43.5831 49.2667 43.5831 48.4382V24.9382C43.5831 24.1098 44.2547 23.4382 45.0831 23.4382Z" fill="#5DB8EB"/>
<path fill-rule="evenodd" clip-rule="evenodd" d="M53.8952 23.7001C54.7171 23.5963 55.4675 24.1784 55.5713 25.0003L58.5713 48.7503C58.6751 49.5722 58.093 50.3226 57.2711 50.4264C56.4492 50.5303 55.6988 49.9481 55.595 49.1263L52.595 25.3763C52.4911 24.5544 53.0733 23.8039 53.8952 23.7001Z" fill="#5DB8EB"/>
<path fill-rule="evenodd" clip-rule="evenodd" d="M63.2157 23.7339C64.0189 23.531 64.8345 24.0176 65.0374 24.8208L71.0374 48.5708C71.2404 49.374 70.7537 50.1896 69.9505 50.3925C69.1473 50.5954 68.3317 50.1088 68.1288 49.3056L62.1288 25.5556C61.9259 24.7524 62.4125 23.9368 63.2157 23.7339Z" fill="#5DB8EB"/>
<path d="M28.481 60.7756C27.7477 60.7756 27.1532 61.3701 27.1532 62.1034V65.9208C27.1532 66.6541 27.7477 67.2485 28.481 67.2485H31.4685C32.2018 67.2485 32.7963 66.6541 32.7963 65.9208V62.1034C32.7963 61.3701 32.2018 60.7756 31.4685 60.7756H28.481Z" fill="#FB9D47"/>
<path d="M28.481 69.9041C27.7477 69.9041 27.1532 70.4986 27.1532 71.2319V75.0492C27.1532 75.7826 27.7477 76.377 28.481 76.377H31.4685C32.2018 76.377 32.7963 75.7826 32.7963 75.0492V71.2319C32.7963 70.4986 32.2018 69.9041 31.4685 69.9041H28.481Z" fill="#FB9D47"/>
<path d="M37.6094 71.2319C37.6094 70.4986 38.2039 69.9041 38.9372 69.9041H41.9247C42.658 69.9041 43.2525 70.4986 43.2525 71.2319V75.0492C43.2525 75.7826 42.658 76.377 41.9247 76.377H38.9372C38.2039 76.377 37.6094 75.7826 37.6094 75.0492V71.2319Z" fill="#FB9D47"/>
<path d="M38.9372 60.7756C38.2039 60.7756 37.6094 61.3701 37.6094 62.1034V65.9208C37.6094 66.6541 38.2039 67.2485 38.9372 67.2485H41.9247C42.658 67.2485 43.2525 66.6541 43.2525 65.9208V62.1034C43.2525 61.3701 42.658 60.7756 41.9247 60.7756H38.9372Z" fill="#FB9D47"/>
<path d="M50.9702 72.063C50.9702 68.9693 53.4781 66.4614 56.5718 66.4614C59.6654 66.4614 62.1733 68.9693 62.1733 72.063V82.0286H50.9702V72.063Z" fill="#67361A"/>
<path fill-rule="evenodd" clip-rule="evenodd" d="M64.1733 84.0286H48.9702V72.063C48.9702 67.8648 52.3736 64.4614 56.5718 64.4614C60.77 64.4614 64.1733 67.8648 64.1733 72.063V84.0286ZM56.5718 66.4614C53.4781 66.4614 50.9702 68.9693 50.9702 72.063V82.0286H62.1733V72.063C62.1733 68.9693 59.6654 66.4614 56.5718 66.4614Z" fill="#643012"/>
<path fill-rule="evenodd" clip-rule="evenodd" d="M57.7073 67.8341C57.7303 68.3859 57.3016 68.8519 56.7498 68.8749C56.1746 68.8988 55.2674 69.1299 54.5258 69.7319C53.8255 70.3003 53.2081 71.2479 53.2081 72.8757V76.994L51.2081 76.994V72.8757C51.2081 70.6536 52.0908 69.1324 53.2654 68.179C54.3988 67.2591 55.7417 66.9151 56.6665 66.8766C57.2183 66.8536 57.6843 67.2823 57.7073 67.8341Z" fill="#965129"/>
<path fill-rule="evenodd" clip-rule="evenodd" d="M14.6615 42.8354C15.7538 42.6715 16.7722 43.4242 16.936 44.5166C17.1043 45.6388 18.2189 48.0917 21.3141 48.4516C25.0184 48.8824 28.099 47.3798 29.0254 46.7005C29.1031 46.6435 29.1848 46.5922 29.2698 46.547C31.1796 45.5325 35.6261 44.695 40.4504 47.4518C42.5782 48.6677 45.1698 48.8936 47.485 48.6522C48.6254 48.5332 49.6428 48.3061 50.4197 48.0674C51.1431 47.8452 51.5039 47.6604 51.5874 47.6176C51.6036 47.6093 51.6093 47.6064 51.6053 47.6096C52.4516 46.9513 54.1886 46.0901 56.3159 45.6646C58.4919 45.2294 61.2541 45.2145 64.0431 46.4959C66.2502 47.51 68.3426 48.1542 70.2416 48.1414C72.0464 48.1293 73.7673 47.5276 75.3767 45.8175C76.1338 45.0132 77.3995 44.9748 78.2039 45.7319C79.0082 46.4889 79.0466 47.7546 78.2895 48.559C75.899 51.0989 73.1199 52.1222 70.2684 52.1413C67.5112 52.1598 64.7911 51.2416 62.3731 50.1306C60.5372 49.2871 58.6744 49.2721 57.1004 49.5869C55.4777 49.9115 54.3397 50.5502 54.061 50.767C53.4733 51.224 52.5233 51.6057 51.5943 51.8911C50.5782 52.2032 49.3065 52.4839 47.9 52.6306C45.1215 52.9204 41.5881 52.7089 38.4659 50.9247C35.0257 48.959 32.1306 49.6211 31.242 50.0323C29.5715 51.193 25.6005 52.977 20.8521 52.4249C15.3474 51.7848 13.3119 47.321 12.9803 45.1099C12.8164 44.0176 13.5691 42.9992 14.6615 42.8354Z" fill="#EBFFFE"/>
<path fill-rule="evenodd" clip-rule="evenodd" d="M20.7415 24.3682C21.8194 24.1269 22.8887 24.8052 23.13 25.8831C23.1283 25.8758 23.13 25.8791 23.1361 25.8915C23.2018 26.025 23.7835 27.2062 26.3356 27.4051C29.4624 27.6488 32.0253 26.7971 32.7498 26.4409C32.8185 26.4072 32.889 26.3774 32.9611 26.3517C34.4753 25.8125 38.003 25.3539 41.9014 26.8471C43.6615 27.5213 45.8334 27.6506 47.7711 27.5151C48.7213 27.4487 49.5678 27.3219 50.214 27.1889C50.7714 27.0741 51.069 26.977 51.1584 26.9479C51.1853 26.9391 51.1934 26.9365 51.1841 26.9413C51.9009 26.5676 53.312 26.1045 55.0074 25.8772C56.7369 25.6453 58.9312 25.6349 61.17 26.3244C64.8617 27.4614 68.1047 27.731 70.5479 25.9909C71.4476 25.3501 72.6964 25.56 73.3372 26.4597C73.978 27.3595 73.7681 28.6083 72.8684 29.249C68.7784 32.1619 63.8549 31.3367 59.9927 30.1472C58.4546 29.6735 56.8718 29.663 55.5389 29.8417C54.1719 30.025 53.2351 30.383 53.0332 30.4882C52.5335 30.7488 51.7598 30.9545 51.0207 31.1067C50.2026 31.2751 49.1798 31.4264 48.0501 31.5054C45.828 31.6607 42.9979 31.5505 40.4706 30.5825C37.6178 29.4897 35.1534 29.8538 34.3834 30.0932C32.9892 30.7413 29.7978 31.6871 26.0248 31.393C21.7912 31.063 19.6542 28.6678 19.2265 26.7566C18.9853 25.6787 19.6636 24.6094 20.7415 24.3682Z" fill="#EBFFFE"/>
<path fill-rule="evenodd" clip-rule="evenodd" d="M16.5021 34.1069C17.5826 33.8774 18.6445 34.5672 18.8741 35.6476C18.9111 35.8219 19.6151 37.5947 22.9381 37.8676C26.6429 38.1717 29.6883 37.112 30.5803 36.6502C30.6507 36.6137 30.7233 36.5815 30.7975 36.5536C32.5164 35.9089 36.5888 35.3449 41.0931 37.1622C43.2044 38.014 45.7875 38.1716 48.0717 38.0034C49.1949 37.9207 50.1968 37.7628 50.964 37.5964C51.7351 37.4292 52.1088 37.2875 52.1643 37.2665C52.1698 37.2644 52.1722 37.2635 52.1714 37.2639C52.9727 36.8239 54.5931 36.2594 56.5598 35.9817C58.5619 35.699 61.0948 35.6878 63.6719 36.5238C68.0019 37.9284 71.9027 38.3025 74.883 36.0668C75.7665 35.404 77.0202 35.5829 77.683 36.4665C78.3458 37.3501 78.1669 38.6037 77.2833 39.2666C72.6139 42.7694 66.9526 41.7932 62.4377 40.3286C60.5923 39.73 58.7027 39.7188 57.1191 39.9424C55.4999 40.1711 54.3713 40.6193 54.0968 40.77C53.5509 41.0698 52.6783 41.3176 51.8118 41.5055C50.8646 41.711 49.6777 41.896 48.3655 41.9926C45.779 42.183 42.5053 42.0452 39.5965 40.8717C36.1814 39.4938 33.2277 39.9547 32.2886 40.2683C30.7087 41.0465 27.0033 42.2148 22.6109 41.8541C17.7105 41.4518 15.4025 38.555 14.9614 36.4789C14.7318 35.3984 15.4216 34.3365 16.5021 34.1069Z" fill="#EBFFFE"/>
<path fill-rule="evenodd" clip-rule="evenodd" d="M39.8786 87.4651C39.0898 87.7173 38.2696 87.9795 37.3892 88.2343C34.7597 88.9955 32.9856 89.0911 30.8114 88.7226C29.8167 88.554 28.7401 88.289 27.5151 87.9874L27.4606 87.974C26.1929 87.662 24.6985 87.2942 22.7977 86.8956C17.1828 85.7183 14.6904 87.8507 14.3391 88.3457C13.6999 89.2465 12.4514 89.4585 11.5506 88.8192C10.6499 88.18 10.4378 86.9315 11.0771 86.0307C12.5592 83.9424 16.8334 81.5581 23.6186 82.9808C25.59 83.3941 27.1409 83.7759 28.4114 84.0886L28.4166 84.0899C29.7081 84.4078 30.6456 84.6374 31.4798 84.7788C32.9932 85.0353 34.1566 85.0059 36.277 84.3921C36.929 84.2033 37.6295 83.9802 38.3594 83.7477C40.0336 83.2144 41.863 82.6316 43.6193 82.3009C46.2801 81.7998 49.164 81.7689 52.1539 83.1144C56.8438 85.2248 62.1093 86.3065 68.1744 83.7232C71.3085 82.3883 74.6946 82.2882 77.5537 82.6373C80.4178 82.9871 82.924 83.8081 84.4194 84.4964C85.4228 84.9583 85.8618 86.1461 85.3999 87.1495C84.938 88.1529 83.7502 88.5918 82.7468 88.13C81.6172 87.61 79.5109 86.906 77.0688 86.6079C74.6217 86.309 72.0078 86.4382 69.7419 87.4033C62.3069 90.57 55.8225 89.1516 50.5124 86.7621C48.5023 85.8575 46.5112 85.8266 44.3595 86.2318C42.8438 86.5172 41.4215 86.9719 39.8786 87.4651Z" fill="#9EDFDF"/>
<path d="M31.0831 14.3132C31.0831 13.7609 31.5308 13.3132 32.0831 13.3132H37.0831C37.6354 13.3132 38.0831 13.7609 38.0831 14.3132V22.5632C38.0831 23.1155 37.6354 23.5632 37.0831 23.5632H32.0831C31.5308 23.5632 31.0831 23.1155 31.0831 22.5632V14.3132Z" fill="#A05B33"/>
<path fill-rule="evenodd" clip-rule="evenodd" d="M32.0831 11.3132H37.0831C38.74 11.3132 40.0831 12.6564 40.0831 14.3132V22.5632C40.0831 24.2201 38.74 25.5632 37.0831 25.5632H32.0831C30.4263 25.5632 29.0831 24.2201 29.0831 22.5632V14.3132C29.0831 12.6564 30.4263 11.3132 32.0831 11.3132ZM32.0831 13.3132C31.5308 13.3132 31.0831 13.7609 31.0831 14.3132V22.5632C31.0831 23.1155 31.5308 23.5632 32.0831 23.5632H37.0831C37.6354 23.5632 38.0831 23.1155 38.0831 22.5632V14.3132C38.0831 13.7609 37.6354 13.3132 37.0831 13.3132H32.0831Z" fill="#643012"/>
<path d="M28.3956 10.0945H40.2706V15.0945H38.3019H34.3175H30.3331H28.3956V10.0945Z" fill="#BF6C3C"/>
<path fill-rule="evenodd" clip-rule="evenodd" d="M26.8956 10.5945C26.8956 9.48991 27.7911 8.59448 28.8956 8.59448H39.7706C40.8752 8.59448 41.7706 9.48991 41.7706 10.5945V14.5945C41.7706 15.6991 40.8752 16.5945 39.7706 16.5945H38.8019C38.2496 16.5945 37.8019 16.1468 37.8019 15.5945C37.8019 15.0422 38.2496 14.5945 38.8019 14.5945H39.7706V10.5945H28.8956V14.5945H30.8331C31.3854 14.5945 31.8331 15.0422 31.8331 15.5945C31.8331 16.1468 31.3854 16.5945 30.8331 16.5945H28.8956C27.7911 16.5945 26.8956 15.6991 26.8956 14.5945V10.5945Z" fill="#643012"/>
<path fill-rule="evenodd" clip-rule="evenodd" d="M28.9581 11.1726C28.9581 10.8965 29.182 10.6726 29.4581 10.6726H38.2081C38.4843 10.6726 38.7081 10.8965 38.7081 11.1726C38.7081 11.4487 38.4843 11.6726 38.2081 11.6726H29.4581C29.182 11.6726 28.9581 11.4487 28.9581 11.1726Z" fill="#E38E5C"/>
<path d="M28.8063 63.5632C28.8063 63.0109 29.254 62.5632 29.8063 62.5632H30.2125C30.7648 62.5632 31.2125 63.0109 31.2125 63.5632V64.2507C31.2125 64.803 30.7648 65.2507 30.2125 65.2507H29.8063C29.254 65.2507 28.8063 64.803 28.8063 64.2507V63.5632Z" fill="#FFCE50"/>
<path d="M39.338 63.5632C39.338 63.0109 39.7857 62.5632 40.338 62.5632H40.7443C41.2965 62.5632 41.7443 63.0109 41.7443 63.5632V64.2507C41.7443 64.803 41.2965 65.2507 40.7443 65.2507H40.338C39.7857 65.2507 39.338 64.803 39.338 64.2507V63.5632Z" fill="#FFCE50"/>
<path d="M39.1505 72.7507C39.1505 72.1984 39.5982 71.7507 40.1505 71.7507H40.5568C41.109 71.7507 41.5568 72.1984 41.5568 72.7507V73.4382C41.5568 73.9905 41.109 74.4382 40.5568 74.4382H40.1505C39.5982 74.4382 39.1505 73.9905 39.1505 73.4382V72.7507Z" fill="#FFCE50"/>
<path d="M28.8063 72.7507C28.8063 72.1984 29.254 71.7507 29.8063 71.7507H30.2125C30.7648 71.7507 31.2125 72.1984 31.2125 72.7507V73.4382C31.2125 73.9905 30.7648 74.4382 30.2125 74.4382H29.8063C29.254 74.4382 28.8063 73.9905 28.8063 73.4382V72.7507Z" fill="#FFCE50"/>
</svg>
