<svg width="96" height="96" viewBox="0 0 96 96" fill="none" xmlns="http://www.w3.org/2000/svg">
<path d="M80 43.513C80 36.833 74.314 31.4178 67.3 31.4178C67.3 21.3977 58.771 13.2749 48.25 13.2749C39.9021 13.2749 32.8083 18.3887 30.234 25.5065C22.479 26.5021 16.5 32.8307 16.5 40.4892C16.5 48.8392 23.6075 55.6082 32.375 55.6082H67.3C74.314 55.6082 80 50.193 80 43.513Z" fill="#D3F2FF"/>
<path fill-rule="evenodd" clip-rule="evenodd" d="M69.2099 29.5364C76.3572 30.4303 82 36.2718 82 43.513C82 51.3884 75.3255 57.6082 67.3 57.6082H32.375C22.596 57.6082 14.5 50.0346 14.5 40.4892C14.5 32.1404 20.7021 25.2928 28.7945 23.7141C31.9705 16.3739 39.5185 11.2749 48.25 11.2749C59.1297 11.2749 68.2161 19.2203 69.2099 29.5364ZM67.3 31.4178C74.314 31.4178 80 36.833 80 43.513C80 50.193 74.314 55.6082 67.3 55.6082H32.375C23.6075 55.6082 16.5 48.8392 16.5 40.4892C16.5 32.8307 22.479 26.5021 30.234 25.5065C32.8083 18.3887 39.9021 13.2749 48.25 13.2749C58.771 13.2749 67.3 21.3977 67.3 31.4178Z" fill="#68B9DC"/>
<path fill-rule="evenodd" clip-rule="evenodd" d="M72.9999 32.7014C75.4623 34.9075 77 38.0392 77 41.513C77 48.193 71.314 53.6082 64.3 53.6082H29.375C26.6487 53.6082 24.0829 52.9537 21.8414 51.8007C24.644 54.1696 28.3331 55.6082 32.375 55.6082H67.3C74.314 55.6082 80 50.193 80 43.513C80 38.785 77.1516 34.6906 72.9999 32.7014ZM67.2195 29.7389C66.6349 23.6709 62.913 18.4677 57.6122 15.6134C61.705 18.9411 64.3 23.8908 64.3 29.4178C65.3047 29.4178 66.2821 29.5289 67.2195 29.7389Z" fill="#AAE0F8"/>
<path d="M32.6239 68.3742C32.6239 70.8218 30.6397 72.8059 28.1921 72.8059C25.7445 72.8059 23.7604 70.8218 23.7604 68.3742C23.7604 65.9266 25.7445 63.9424 28.1921 63.9424C30.6397 63.9424 32.6239 65.9266 32.6239 68.3742Z" fill="#D3F2FF"/>
<path fill-rule="evenodd" clip-rule="evenodd" d="M34.6239 68.3742C34.6239 71.9263 31.7443 74.8059 28.1921 74.8059C24.64 74.8059 21.7604 71.9263 21.7604 68.3742C21.7604 64.822 24.64 61.9424 28.1921 61.9424C31.7443 61.9424 34.6239 64.822 34.6239 68.3742ZM28.1921 72.8059C30.6397 72.8059 32.6239 70.8218 32.6239 68.3742C32.6239 65.9266 30.6397 63.9424 28.1921 63.9424C25.7445 63.9424 23.7604 65.9266 23.7604 68.3742C23.7604 70.8218 25.7445 72.8059 28.1921 72.8059Z" fill="#68B9DC"/>
<path d="M41.8843 82.6619C41.8843 84.6712 40.2555 86.3 38.2463 86.3C36.2371 86.3 34.6083 84.6712 34.6083 82.6619C34.6083 80.6527 36.2371 79.0239 38.2463 79.0239C40.2555 79.0239 41.8843 80.6527 41.8843 82.6619Z" fill="#D3F2FF"/>
<path fill-rule="evenodd" clip-rule="evenodd" d="M43.8843 82.6619C43.8843 85.7757 41.3601 88.3 38.2463 88.3C35.1325 88.3 32.6083 85.7757 32.6083 82.6619C32.6083 79.5482 35.1325 77.0239 38.2463 77.0239C41.3601 77.0239 43.8843 79.5482 43.8843 82.6619ZM38.2463 86.3C40.2555 86.3 41.8843 84.6712 41.8843 82.6619C41.8843 80.6527 40.2555 79.0239 38.2463 79.0239C36.2371 79.0239 34.6083 80.6527 34.6083 82.6619C34.6083 84.6712 36.2371 86.3 38.2463 86.3Z" fill="#68B9DC"/>
<path d="M57.3626 70.1602C57.3626 73.3019 54.8157 75.8488 51.674 75.8488C48.5323 75.8488 45.9855 73.3019 45.9855 70.1602C45.9855 67.0185 48.5323 64.4717 51.674 64.4717C54.8157 64.4717 57.3626 67.0185 57.3626 70.1602Z" fill="#D3F2FF"/>
<path fill-rule="evenodd" clip-rule="evenodd" d="M59.3626 70.1602C59.3626 74.4065 55.9203 77.8488 51.674 77.8488C47.4278 77.8488 43.9855 74.4065 43.9855 70.1602C43.9855 65.914 47.4278 62.4717 51.674 62.4717C55.9203 62.4717 59.3626 65.914 59.3626 70.1602ZM51.674 75.8488C54.8157 75.8488 57.3626 73.3019 57.3626 70.1602C57.3626 67.0185 54.8157 64.4717 51.674 64.4717C48.5323 64.4717 45.9855 67.0185 45.9855 70.1602C45.9855 73.3019 48.5323 75.8488 51.674 75.8488Z" fill="#68B9DC"/>
<path d="M72.7083 73.7323C72.7083 75.7415 71.0795 77.3703 69.0703 77.3703C67.061 77.3703 65.4323 75.7415 65.4323 73.7323C65.4323 71.723 67.061 70.0942 69.0703 70.0942C71.0795 70.0942 72.7083 71.723 72.7083 73.7323Z" fill="#D3F2FF"/>
<path fill-rule="evenodd" clip-rule="evenodd" d="M74.7083 73.7323C74.7083 76.8461 72.1841 79.3703 69.0703 79.3703C65.9565 79.3703 63.4323 76.8461 63.4323 73.7323C63.4323 70.6185 65.9565 68.0942 69.0703 68.0942C72.1841 68.0942 74.7083 70.6185 74.7083 73.7323ZM69.0703 77.3703C71.0795 77.3703 72.7083 75.7415 72.7083 73.7323C72.7083 71.723 71.0795 70.0942 69.0703 70.0942C67.061 70.0942 65.4323 71.723 65.4323 73.7323C65.4323 75.7415 67.061 77.3703 69.0703 77.3703Z" fill="#68B9DC"/>
<path d="M52.1525 68.143C52.1525 69.2206 51.2789 70.0942 50.2012 70.0942C49.1236 70.0942 48.25 69.2206 48.25 68.143C48.25 67.0654 49.1236 66.1918 50.2012 66.1918C51.2789 66.1918 52.1525 67.0654 52.1525 68.143Z" fill="#EDFAFF"/>
<path d="M28.1921 67.086C28.1921 67.7974 27.6154 68.3741 26.904 68.3741C26.1926 68.3741 25.6159 67.7974 25.6159 67.086C25.6159 66.3746 26.1926 65.7979 26.904 65.7979C27.6154 65.7979 28.1921 66.3746 28.1921 67.086Z" fill="#EDFAFF"/>
<path d="M38.2463 81.836C38.2463 82.5474 37.6696 83.1241 36.9582 83.1241C36.2468 83.1241 35.67 82.5474 35.67 81.836C35.67 81.1246 36.2468 80.5479 36.9582 80.5479C37.6696 80.5479 38.2463 81.1246 38.2463 81.836Z" fill="#EDFAFF"/>
<path d="M69.6631 72.8059C69.6631 73.5173 69.0864 74.0941 68.375 74.0941C67.6636 74.0941 67.0869 73.5173 67.0869 72.8059C67.0869 72.0945 67.6636 71.5178 68.375 71.5178C69.0864 71.5178 69.6631 72.0945 69.6631 72.8059Z" fill="#EDFAFF"/>
<path fill-rule="evenodd" clip-rule="evenodd" d="M43.5 39C48.7467 39 53 34.7467 53 29.5C53 24.2533 48.7467 20 43.5 20C38.2533 20 34 24.2533 34 29.5C34 29.8382 34.0177 30.1722 34.0521 30.5012C33.0991 30.1768 32.0714 30 31 30C26.0294 30 22 33.8056 22 38.5C22 43.1944 26.0294 47 31 47C35.9706 47 40 43.1944 40 38.5C40 38.4445 39.9994 38.3891 39.9983 38.3338C41.0819 38.7637 42.2634 39 43.5 39Z" fill="#EDFAFF"/>
<path d="M74 49C74 49.5523 73.5523 50 73 50C72.4477 50 72 49.5523 72 49C72 48.4477 72.4477 48 73 48C73.5523 48 74 48.4477 74 49Z" fill="#75CEF3"/>
<path d="M71 52C71 52.5523 70.5523 53 70 53C69.4477 53 69 52.5523 69 52C69 51.4477 69.4477 51 70 51C70.5523 51 71 51.4477 71 52Z" fill="#75CEF3"/>
<path d="M60.875 53C60.875 53.5523 60.4273 54 59.875 54C59.3227 54 58.875 53.5523 58.875 53C58.875 52.4477 59.3227 52 59.875 52C60.4273 52 60.875 52.4477 60.875 53Z" fill="#75CEF3"/>
<path d="M74 42.5C74 43.3284 73.3284 44 72.5 44C71.6716 44 71 43.3284 71 42.5C71 41.6716 71.6716 41 72.5 41C73.3284 41 74 41.6716 74 42.5Z" fill="#75CEF3"/>
<path d="M78 45C78 45.5523 77.5523 46 77 46C76.4477 46 76 45.5523 76 45C76 44.4477 76.4477 44 77 44C77.5523 44 78 44.4477 78 45Z" fill="#75CEF3"/>
<path d="M63.3125 47.2812C63.3125 47.6782 62.9907 48 62.5938 48C62.1968 48 61.875 47.6782 61.875 47.2812C61.875 46.8843 62.1968 46.5625 62.5938 46.5625C62.9907 46.5625 63.3125 46.8843 63.3125 47.2812Z" fill="#75CEF3"/>
<path d="M68.375 43.2812C68.375 43.6782 68.0532 44 67.6562 44C67.2593 44 66.9375 43.6782 66.9375 43.2812C66.9375 42.8843 67.2593 42.5625 67.6562 42.5625C68.0532 42.5625 68.375 42.8843 68.375 43.2812Z" fill="#75CEF3"/>
<path d="M78 41C78 41.397 77.6782 41.7188 77.2812 41.7188C76.8843 41.7188 76.5625 41.397 76.5625 41C76.5625 40.603 76.8843 40.2812 77.2812 40.2812C77.6782 40.2812 78 40.603 78 41Z" fill="#75CEF3"/>
<path d="M58.25 50.3438C58.25 50.7407 57.9282 51.0625 57.5312 51.0625C57.1343 51.0625 56.8125 50.7407 56.8125 50.3438C56.8125 49.9468 57.1343 49.625 57.5312 49.625C57.9282 49.625 58.25 49.9468 58.25 50.3438Z" fill="#75CEF3"/>
<path d="M55 52.7188C55 53.1157 54.6782 53.4375 54.2812 53.4375C53.8843 53.4375 53.5625 53.1157 53.5625 52.7188C53.5625 52.3218 53.8843 52 54.2812 52C54.6782 52 55 52.3218 55 52.7188Z" fill="#75CEF3"/>
<path d="M74 37.375C74 37.772 73.6782 38.0938 73.2812 38.0938C72.8843 38.0938 72.5625 37.772 72.5625 37.375C72.5625 36.978 72.8843 36.6562 73.2812 36.6562C73.6782 36.6562 74 36.978 74 37.375Z" fill="#75CEF3"/>
<path d="M66 51.5C66 52.3284 65.3284 53 64.5 53C63.6716 53 63 52.3284 63 51.5C63 50.6716 63.6716 50 64.5 50C65.3284 50 66 50.6716 66 51.5Z" fill="#75CEF3"/>
<path d="M70.1875 47.8125C70.1875 48.8135 69.376 49.625 68.375 49.625C67.374 49.625 66.5625 48.8135 66.5625 47.8125C66.5625 46.8115 67.374 46 68.375 46C69.376 46 70.1875 46.8115 70.1875 47.8125Z" fill="#75CEF3"/>
</svg>
